<?xml version="1.0" encoding="UTF-8" standalone="no"?>
<svg
   xmlns:dc="http://purl.org/dc/elements/1.1/"
   xmlns:cc="http://creativecommons.org/ns#"
   xmlns:rdf="http://www.w3.org/1999/02/22-rdf-syntax-ns#"
   xmlns:svg="http://www.w3.org/2000/svg"
   xmlns="http://www.w3.org/2000/svg"
   xmlns:sodipodi="http://sodipodi.sourceforge.net/DTD/sodipodi-0.dtd"
   xmlns:inkscape="http://www.inkscape.org/namespaces/inkscape"
   version="1.1"
   width="100%"
   height="100%"
   viewBox="0 0 512 512"
   id="svg2"
   inkscape:version="0.91 r13725"
   sodipodi:docname="application-x-smb-workgroup.svg">
  <sodipodi:namedview
     pagecolor="#ffffff"
     bordercolor="#666666"
     borderopacity="1"
     objecttolerance="10"
     gridtolerance="10"
     guidetolerance="10"
     inkscape:pageopacity="0"
     inkscape:pageshadow="2"
     inkscape:window-width="640"
     inkscape:window-height="480"
     id="namedview20"
     showgrid="false"
     inkscape:zoom="0.4609375"
     inkscape:cx="256"
     inkscape:cy="256"
     inkscape:window-x="0"
     inkscape:window-y="0"
     inkscape:window-maximized="0"
     inkscape:current-layer="svg2" />
  <metadata
     id="metadata365">
    <rdf:RDF>
      <cc:Work
         rdf:about="">
        <dc:format>image/svg+xml</dc:format>
        <dc:type
           rdf:resource="http://purl.org/dc/dcmitype/StillImage" />
        <dc:title></dc:title>
      </cc:Work>
    </rdf:RDF>
  </metadata>
  <defs
     id="defs4">
    <linearGradient
       y1="121.76"
       x2="0"
       y2="453.26001"
       id="0-8"
       gradientUnits="userSpaceOnUse"
       gradientTransform="translate(0.0012,-0.0195)">
      <stop
         id="stop7-7"
         style="stop-color:#6a6a6a;stop-opacity:1"
         offset="0" />
      <stop
         id="stop9-5"
         style="stop-color:#000000;stop-opacity:1"
         offset="0.47" />
      <stop
         id="stop11-9"
         style="stop-color:#ffffff;stop-opacity:1"
         offset="0.49399999" />
      <stop
         id="stop13-9"
         style="stop-color:#ffffff;stop-opacity:1"
         offset="0.90100002" />
      <stop
         id="stop15-0"
         style="stop-color:#000000;stop-opacity:1"
         offset="0.95499998" />
      <stop
         id="stop17-2"
         style="stop-color:#000000;stop-opacity:1"
         offset="1" />
    </linearGradient>
  </defs>
  <g
     id="g113"
     style="fill-rule:evenodd"
     transform="translate(0.0012,-0.0195)">
    <path
       d="m 108.63,57.39 c -7.963,0 -15.228,2.293 -20.693,6.22 -4.545,3.266 -7.751,7.872 -8.752,13.13 l -11.909,0 c -16.447,0 -29.883,13.03 -29.883,29.2 l 0,66.736 c 0,16.17 13.436,29.19 29.883,29.19 l 377.47,0 c 16.447,0 29.883,-13.03 29.883,-29.19 l 0,-66.736 c 0,-16.17 -13.436,-29.2 -29.883,-29.2 l -262.91,0 c -1,-5.256 -4.208,-9.862 -8.753,-13.13 -5.465,-3.927 -12.73,-6.22 -20.693,-6.22 l -43.761,0"
       id="path115"
       style="fill:#cccccc" />
    <path
       d="m 37.36,118.48 c -19.928,0 -38.06,15.818 -36.23,35.853 l 24.26,265.41 c 1.733,18.966 16.271,34.947 36.2,34.947 l 383.41,0 c 19.933,0 34.1,-16.05 36.2,-34.853 l 29.632,-265.41 c 1.123,-10.05 -3.137,-19.263 -9.971,-25.663 -6.833,-6.399 -16.258,-10.284 -26.22,-10.284 l -437.27,0"
       id="path117"
       style="fill:#747474" />
  </g>
  <path
     d="m 37.3612,118.4505 c -19.928,0 -38.08,15.84 -36.25,35.875 l 11.781,128.78 12.469,136.63 c 1.733,18.966 16.29,34.938 36.22,34.938 l 383.41,0 c 19.933,0 34.09,-16.04 36.19,-34.844 l 15.281,-136.72 14.375,-128.69 c 1.123,-10.05 -3.135,-19.287 -9.969,-25.688 -6.833,-6.399 -16.257,-10.281 -26.22,-10.281 l -437.28,0"
     id="path119"
     style="opacity:0.05;fill:url(#0-8)" />
  <g
     id="g121"
     style="fill:#ffffff;fill-rule:evenodd"
     transform="translate(0.0012,-0.0195)">
    <path
       d="m 37.35,118.47 c -6.165,0 -12.154,1.503 -17.438,4.188 l 332.06,332.03 28.25,0 -336.19,-336.22 -6.688,0 m 34.969,0 336.22,336.22 28.28,0 -336.22,-336.22 -28.28,0 m 56.59,0 332.25,332.28 c 5.997,-3.165 10.884,-8.06 14.375,-13.938 l -318.37,-318.34 -28.25,0 m 56.56,0 296.28,296.31 2.844,-25.469 -270.87,-270.84 -28.25,0 m 56.56,0 245.41,245.44 2.844,-25.469 -220,-219.97 -28.25,0 m 56.56,0 194.53,194.53 2.844,-25.438 -169.12,-169.09 -28.25,0 m 56.56,0 143.63,143.63 2.844,-25.438 -118.19,-118.19 -28.28,0 m 56.56,0 92.75,92.75 2.844,-25.438 -67.28,-67.31 -28.313,0 m 56.59,0 41.844,41.844 0.656,-5.875 c 1.123,-10.05 -3.134,-19.288 -9.969,-25.688 -6.833,-6.399 -16.252,-10.281 -26.22,-10.281 l -6.313,0 M 5.253,136.259 c -3.108,5.286 -4.73,11.464 -4.125,18.09 l 0.625,6.719 293.66,293.63 28.25,0 -318.41,-318.44 m -0.656,55.906 2.844,31.13 231.41,231.41 28.25,0 -262.5,-262.53 m 5.688,62.25 2.844,31.13 169.16,169.16 28.25,0 -200.25,-200.28 m 5.688,62.28 2.844,31.13 106.88,106.88 28.28,0 -138,-138 m 5.688,62.25 2.844,31.13 44.625,44.625 28.28,0 -75.75,-75.75"
       id="path123"
       style="opacity:0" />
    <path
       d="m 108.55,57.31 c -7.963,0 -15.11,2.403 -20.572,6.33 -4.545,3.266 -7.702,7.931 -8.703,13.187 l -12.13,0 c -17.677,0 -29.802,12.771 -29.802,30.661 l 0,3.956 c 0,-16.17 13.355,-29.27 29.802,-29.27 l 14.286,0 c 1,-5.256 2,-9.657 6.549,-12.923 5.465,-3.927 12.609,-6.33 20.572,-6.33 l 43.78,0 c 7.963,0 15.371,2.403 20.835,6.33 4.545,3.266 5.766,7.668 6.769,12.923 l 264.88,0 c 16.447,0 29.802,11.455 29.802,27.625 l 0,-3.956 c 0,-16.17 -13.355,-29.01 -29.802,-29.01 l -262.95,0 c -1,-5.256 -4.159,-9.921 -8.703,-13.187 -5.465,-3.927 -12.872,-6.33 -20.835,-6.33 z"
       id="path125"
       style="opacity:0.76399997" />
    <path
       d="m 37.35,118.47 c -19.928,0 -38.05,15.84 -36.22,35.875 l 0.406,4.375 c 3,-15.936 18.732,-27.563 35.813,-27.563 l 437.28,0 c 9.966,0 19.386,3.882 26.22,10.281 4.736,4.435 8.234,10.208 9.563,16.688 l 0.406,-3.688 c 1.123,-10.05 -3.134,-19.288 -9.969,-25.688 -6.833,-6.399 -16.252,-10.281 -26.22,-10.281 l -437.28,0"
       id="path127"
       style="opacity:0.4" />
  </g>
  <path
     inkscape:connector-curvature="0"
     d="m 194.38122,161.5905 c -6.358,0 -11.469,5.111 -11.469,11.469 l 0,65.34 c 0,3.434 1.502,6.488 3.875,8.594 0.311,0.353 0.648,0.688 1,1 0.311,0.353 0.648,0.688 1,1 0.311,0.353 0.648,0.688 1,1 0.309,0.351 0.62,0.69 0.969,1 0.343,0.389 0.702,0.755 1.094,1.094 0.283,0.313 0.59,0.595 0.906,0.875 0.311,0.353 0.648,0.688 1,1 0.311,0.353 0.648,0.688 1,1 0.311,0.353 0.648,0.688 1,1 0.294,0.334 0.607,0.64 0.938,0.938 0.366,0.42 0.734,0.825 1.156,1.188 0.274,0.301 0.57,0.573 0.875,0.844 0.311,0.353 0.648,0.688 1,1 0.311,0.353 0.648,0.688 1,1 0.311,0.353 0.648,0.688 1,1 0.294,0.334 0.607,0.64 0.938,0.938 0.338,0.388 0.707,0.755 1.094,1.094 0.33,0.37 0.656,0.738 1.031,1.063 0.283,0.313 0.59,0.595 0.906,0.875 0.311,0.353 0.648,0.688 1,1 0.311,0.353 0.648,0.688 1,1 0.311,0.353 0.648,0.688 1,1 0.309,0.351 0.62,0.69 0.969,1 0.343,0.389 0.702,0.755 1.094,1.094 0.283,0.313 0.59,0.595 0.906,0.875 0.311,0.353 0.648,0.688 1,1 0.311,0.353 0.648,0.688 1,1 0.311,0.353 0.648,0.688 1,1 0.294,0.334 0.607,0.64 0.938,0.938 0.366,0.42 0.734,0.825 1.156,1.188 0.274,0.301 0.57,0.573 0.875,0.844 0.311,0.353 0.648,0.688 1,1 0.311,0.353 0.648,0.688 1,1 0.311,0.353 0.648,0.688 1,1 0.294,0.334 0.607,0.64 0.938,0.938 0.338,0.388 0.707,0.755 1.094,1.094 0.33,0.37 0.656,0.738 1.031,1.063 0.283,0.313 0.59,0.595 0.906,0.875 0.107,0.121 0.2,0.258 0.313,0.375 l -133.159996,0 0,18.09 0,8.313 0,23.469 1,0 0,0.875 0,0.125 1,0 0,0.75 0,0.25 1,0 0,0.625 0,0.375 0.969,0 0,0.5 0,0.469 1,0 0,0.438 0,0.563 1,0 0,0.313 0,0.688 1,0 0,0.188 0,0.813 1,0 0,0.063 0,0.938 0.999996,0 0,1 0.969,0 0,0.969 1,0 0,1 1,0 0,1 1,0 0,1 1,0 0,1 1,0 0,1 0.969,0 0,0.969 1,0 0,1 1,0 0,1 1,0 0,0.156 -39.189996,0 c -6.358,0 -11.469,5.111 -11.469,11.469 l 0,35.531 c 0,3.576 1.61,6.744 4.156,8.844 0.317,0.333 0.614,0.676 0.969,0.969 0.239,0.251 0.489,0.491 0.75,0.719 0.314,0.35 0.645,0.692 1,1 0.32,0.353 0.669,0.691 1.031,1 0.354,0.387 0.72,0.76 1.125,1.094 0.26,0.274 0.526,0.535 0.813,0.781 0.359,0.396 0.712,0.753 1.125,1.094 0.231,0.245 0.466,0.495 0.719,0.719 0.317,0.359 0.67,0.685 1.031,1 0.368,0.412 0.761,0.805 1.188,1.156 0.312,0.331 0.618,0.648 0.969,0.938 0.313,0.333 0.616,0.678 0.969,0.969 0.311,0.331 0.649,0.648 1,0.938 0.233,0.248 0.463,0.494 0.719,0.719 0.302,0.343 0.625,0.667 0.969,0.969 0.373,0.424 0.783,0.797 1.219,1.156 0.311,0.333 0.617,0.679 0.969,0.969 0.311,0.334 0.616,0.647 0.969,0.938 0.313,0.337 0.645,0.676 1,0.969 0.306,0.327 0.623,0.652 0.969,0.938 0.242,0.26 0.482,0.516 0.75,0.75 0.366,0.419 0.758,0.802 1.188,1.156 0.306,0.33 0.621,0.651 0.969,0.938 0.248,0.27 0.505,0.54 0.781,0.781 0.36,0.412 0.765,0.777 1.188,1.125 0.307,0.333 0.619,0.68 0.969,0.969 0.308,0.334 0.618,0.648 0.969,0.938 0.317,0.345 0.636,0.703 1,1 0.297,0.321 0.6,0.628 0.938,0.906 0.262,0.286 0.55,0.56 0.844,0.813 0.345,0.394 0.721,0.76 1.125,1.094 0.302,0.33 0.623,0.653 0.969,0.938 0.317,0.348 0.635,0.702 1,1 0.296,0.322 0.599,0.627 0.938,0.906 0.315,0.347 0.637,0.704 1,1 0.297,0.325 0.629,0.626 0.969,0.906 0.304,0.335 0.62,0.65 0.968996,0.938 0.308,0.343 0.613,0.675 0.969,0.969 0.302,0.334 0.621,0.651 0.969,0.938 0.323,0.361 0.655,0.694 1.031,1 0.292,0.321 0.602,0.63 0.938,0.906 0.301,0.334 0.622,0.683 0.969,0.969 0.299,0.333 0.623,0.653 0.969,0.938 0.313,0.35 0.636,0.672 1,0.969 0.295,0.328 0.597,0.656 0.938,0.938 0.311,0.349 0.637,0.673 1,0.969 0.3,0.337 0.621,0.651 0.969,0.938 0.298,0.334 0.623,0.652 0.969,0.938 0.019,0.022 0.043,0.041 0.063,0.063 l 334,0 c 19.933,0 34.09,-16.04 36.19,-34.844 l 9.969,-89.41 c -0.233,-0.257 -0.462,-0.52 -0.719,-0.75 -0.319,-0.364 -0.669,-0.71 -1.031,-1.031 -0.347,-0.394 -0.696,-0.782 -1.094,-1.125 -0.251,-0.277 -0.505,-0.53 -0.781,-0.781 -0.352,-0.409 -0.75,-0.769 -1.156,-1.125 -0.298,-0.333 -0.634,-0.641 -0.969,-0.938 -0.311,-0.352 -0.648,-0.689 -1,-1 -0.296,-0.335 -0.604,-0.671 -0.938,-0.969 -0.356,-0.406 -0.716,-0.804 -1.125,-1.156 -0.251,-0.277 -0.505,-0.53 -0.781,-0.781 -0.352,-0.409 -0.75,-0.769 -1.156,-1.125 -0.298,-0.333 -0.634,-0.641 -0.969,-0.938 -0.311,-0.352 -0.648,-0.689 -1,-1 -0.296,-0.335 -0.604,-0.671 -0.938,-0.969 -0.356,-0.406 -0.716,-0.804 -1.125,-1.156 -0.251,-0.277 -0.505,-0.53 -0.781,-0.781 -0.343,-0.398 -0.731,-0.746 -1.125,-1.094 -0.321,-0.362 -0.667,-0.712 -1.031,-1.031 -0.298,-0.333 -0.634,-0.641 -0.969,-0.938 -0.296,-0.335 -0.604,-0.671 -0.938,-0.969 -0.356,-0.406 -0.716,-0.804 -1.125,-1.156 -0.283,-0.312 -0.59,-0.596 -0.906,-0.875 -0.279,-0.316 -0.563,-0.623 -0.875,-0.906 -0.352,-0.409 -0.75,-0.769 -1.156,-1.125 -0.298,-0.333 -0.634,-0.641 -0.969,-0.938 -0.296,-0.335 -0.604,-0.671 -0.938,-0.969 -0.319,-0.364 -0.669,-0.71 -1.031,-1.031 -0.347,-0.394 -0.696,-0.782 -1.094,-1.125 -0.251,-0.277 -0.505,-0.53 -0.781,-0.781 -0.352,-0.409 -0.75,-0.769 -1.156,-1.125 -0.298,-0.333 -0.634,-0.641 -0.969,-0.938 -0.311,-0.352 -0.648,-0.689 -1,-1 -0.296,-0.335 -0.604,-0.671 -0.938,-0.969 -0.356,-0.406 -0.716,-0.804 -1.125,-1.156 -0.251,-0.277 -0.505,-0.53 -0.781,-0.781 -0.352,-0.409 -0.75,-0.769 -1.156,-1.125 -0.298,-0.333 -0.634,-0.641 -0.969,-0.938 -0.311,-0.352 -0.648,-0.689 -1,-1 -0.296,-0.335 -0.604,-0.671 -0.938,-0.969 -0.356,-0.406 -0.716,-0.804 -1.125,-1.156 -0.283,-0.312 -0.59,-0.596 -0.906,-0.875 -0.279,-0.316 -0.563,-0.623 -0.875,-0.906 -0.352,-0.409 -0.75,-0.769 -1.156,-1.125 -0.298,-0.333 -0.634,-0.641 -0.969,-0.938 -0.296,-0.335 -0.604,-0.671 -0.938,-0.969 -0.319,-0.364 -0.669,-0.71 -1.031,-1.031 -0.347,-0.394 -0.696,-0.782 -1.094,-1.125 -0.251,-0.277 -0.505,-0.53 -0.781,-0.781 -0.352,-0.409 -0.75,-0.769 -1.156,-1.125 -0.298,-0.333 -0.634,-0.641 -0.969,-0.938 -0.311,-0.352 -0.648,-0.689 -1,-1 -0.296,-0.335 -0.604,-0.671 -0.938,-0.969 -0.356,-0.406 -0.716,-0.804 -1.125,-1.156 -0.251,-0.277 -0.505,-0.53 -0.781,-0.781 -0.352,-0.409 -0.75,-0.769 -1.156,-1.125 -0.298,-0.333 -0.634,-0.641 -0.969,-0.938 -0.311,-0.352 -0.648,-0.689 -1,-1 -0.296,-0.335 -0.604,-0.671 -0.938,-0.969 -0.356,-0.406 -0.716,-0.804 -1.125,-1.156 -0.251,-0.277 -0.505,-0.53 -0.781,-0.781 -0.343,-0.398 -0.731,-0.746 -1.125,-1.094 -0.321,-0.362 -0.667,-0.712 -1.031,-1.031 -0.298,-0.333 -0.634,-0.641 -0.969,-0.938 -0.296,-0.335 -0.604,-0.671 -0.938,-0.969 -0.356,-0.406 -0.716,-0.804 -1.125,-1.156 -0.283,-0.312 -0.59,-0.596 -0.906,-0.875 -0.279,-0.316 -0.563,-0.623 -0.875,-0.906 -0.352,-0.409 -0.75,-0.769 -1.156,-1.125 -0.298,-0.333 -0.634,-0.641 -0.969,-0.938 -0.296,-0.335 -0.604,-0.671 -0.938,-0.969 -0.319,-0.364 -0.669,-0.71 -1.031,-1.031 -0.347,-0.394 -0.696,-0.782 -1.094,-1.125 -0.251,-0.277 -0.505,-0.53 -0.781,-0.781 -0.352,-0.409 -0.75,-0.769 -1.156,-1.125 -0.298,-0.333 -0.634,-0.641 -0.969,-0.938 -0.311,-0.352 -0.648,-0.689 -1,-1 -0.296,-0.335 -0.604,-0.671 -0.938,-0.969 -0.356,-0.406 -0.716,-0.804 -1.125,-1.156 -0.251,-0.277 -0.505,-0.53 -0.781,-0.781 -0.352,-0.409 -0.75,-0.769 -1.156,-1.125 -0.298,-0.333 -0.634,-0.641 -0.969,-0.938 -0.311,-0.352 -0.648,-0.689 -1,-1 -0.296,-0.335 -0.604,-0.671 -0.938,-0.969 -0.356,-0.406 -0.716,-0.804 -1.125,-1.156 -0.251,-0.277 -0.505,-0.53 -0.781,-0.781 -0.308,-0.358 -0.65,-0.683 -1,-1 -0.352,-0.409 -0.75,-0.769 -1.156,-1.125 -0.298,-0.333 -0.634,-0.641 -0.969,-0.938 -0.296,-0.335 -0.604,-0.671 -0.938,-0.969 -0.356,-0.406 -0.716,-0.804 -1.125,-1.156 -0.317,-0.35 -0.642,-0.692 -1,-1 -0.251,-0.277 -0.505,-0.53 -0.781,-0.781 -0.352,-0.409 -0.75,-0.769 -1.156,-1.125 -0.298,-0.333 -0.634,-0.641 -0.969,-0.938 -0.311,-0.352 -0.648,-0.689 -1,-1 -0.296,-0.335 -0.604,-0.671 -0.938,-0.969 -0.356,-0.406 -0.716,-0.804 -1.125,-1.156 -0.251,-0.277 -0.505,-0.53 -0.781,-0.781 -0.352,-0.409 -0.75,-0.769 -1.156,-1.125 -0.298,-0.333 -0.634,-0.641 -0.969,-0.938 -0.311,-0.352 -0.648,-0.689 -1,-1 -0.296,-0.335 -0.604,-0.671 -0.938,-0.969 -0.356,-0.406 -0.716,-0.804 -1.125,-1.156 -0.251,-0.277 -0.505,-0.53 -0.781,-0.781 -0.343,-0.398 -0.731,-0.746 -1.125,-1.094 -0.321,-0.362 -0.667,-0.712 -1.031,-1.031 -0.298,-0.333 -0.634,-0.641 -0.969,-0.938 -0.296,-0.335 -0.604,-0.671 -0.938,-0.969 -0.356,-0.406 -0.716,-0.804 -1.125,-1.156 -0.283,-0.312 -0.59,-0.596 -0.906,-0.875 -0.279,-0.316 -0.563,-0.623 -0.875,-0.906 -0.352,-0.409 -0.75,-0.769 -1.156,-1.125 -0.298,-0.333 -0.634,-0.641 -0.969,-0.938 -0.296,-0.335 -0.604,-0.671 -0.938,-0.969 -0.319,-0.364 -0.669,-0.71 -1.031,-1.031 -0.347,-0.394 -0.696,-0.782 -1.094,-1.125 -0.251,-0.277 -0.505,-0.53 -0.781,-0.781 -0.352,-0.409 -0.75,-0.769 -1.156,-1.125 -0.298,-0.333 -0.634,-0.641 -0.969,-0.938 -0.311,-0.352 -0.648,-0.689 -1,-1 -0.296,-0.335 -0.604,-0.671 -0.938,-0.969 -0.356,-0.406 -0.716,-0.804 -1.125,-1.156 -0.251,-0.277 -0.505,-0.53 -0.781,-0.781 -0.352,-0.409 -0.75,-0.769 -1.156,-1.125 -0.298,-0.333 -0.634,-0.641 -0.969,-0.938 -0.311,-0.352 -0.648,-0.689 -1,-1 -0.296,-0.335 -0.604,-0.671 -0.938,-0.969 -0.356,-0.406 -0.716,-0.804 -1.125,-1.156 -0.251,-0.277 -0.505,-0.53 -0.781,-0.781 -0.343,-0.398 -0.731,-0.746 -1.125,-1.094 -0.321,-0.362 -0.667,-0.712 -1.031,-1.031 -0.298,-0.333 -0.634,-0.641 -0.969,-0.938 -0.296,-0.335 -0.604,-0.671 -0.938,-0.969 -0.356,-0.406 -0.716,-0.804 -1.125,-1.156 -0.283,-0.312 -0.59,-0.596 -0.906,-0.875 -0.279,-0.316 -0.563,-0.623 -0.875,-0.906 -0.352,-0.409 -0.75,-0.769 -1.156,-1.125 -0.298,-0.333 -0.634,-0.641 -0.969,-0.938 -0.311,-0.352 -0.648,-0.689 -1,-1 -0.296,-0.335 -0.604,-0.671 -0.938,-0.969 -0.356,-0.406 -0.716,-0.804 -1.125,-1.156 -0.251,-0.277 -0.505,-0.53 -0.781,-0.781 -0.352,-0.409 -0.75,-0.769 -1.156,-1.125 -0.298,-0.333 -0.634,-0.641 -0.969,-0.938 -0.311,-0.352 -0.648,-0.689 -1,-1 -0.296,-0.335 -0.604,-0.671 -0.938,-0.969 -0.356,-0.406 -0.716,-0.804 -1.125,-1.156 -0.251,-0.277 -0.505,-0.53 -0.781,-0.781 -0.343,-0.398 -0.731,-0.746 -1.125,-1.094 -0.321,-0.362 -0.667,-0.712 -1.031,-1.031 -0.298,-0.333 -0.634,-0.641 -0.969,-0.938 -0.296,-0.335 -0.604,-0.671 -0.938,-0.969 -0.356,-0.406 -0.716,-0.804 -1.125,-1.156 -0.283,-0.312 -0.59,-0.596 -0.906,-0.875 -0.279,-0.316 -0.563,-0.623 -0.875,-0.906 -0.352,-0.409 -0.75,-0.769 -1.156,-1.125 -0.298,-0.333 -0.634,-0.641 -0.969,-0.938 -0.296,-0.335 -0.604,-0.671 -0.938,-0.969 -0.319,-0.364 -0.669,-0.71 -1.031,-1.031 -0.347,-0.394 -0.696,-0.782 -1.094,-1.125 -0.251,-0.277 -0.505,-0.53 -0.781,-0.781 -0.352,-0.409 -0.75,-0.769 -1.156,-1.125 -0.298,-0.333 -0.634,-0.641 -0.969,-0.938 -0.311,-0.352 -0.648,-0.689 -1,-1 -0.296,-0.335 -0.604,-0.671 -0.938,-0.969 -0.356,-0.406 -0.716,-0.804 -1.125,-1.156 -2.095,-2.31 -5.119,-3.75 -8.5,-3.75 l -123.25,0"
     id="path509"
     style="fill-opacity:0.23500001;fill-rule:evenodd" />
  <rect
     style="fill:#ffffff;fill-rule:evenodd"
     width="146.18056"
     height="88.303566"
     rx="11.47661"
     x="182.90866"
     y="161.59457"
     id="rect513" />
  <path
     style="fill:#ffffff;fill-rule:evenodd"
     inkscape:connector-curvature="0"
     d="m 241.75393,265.73287 0,19.44747 -150.001949,0 0,18.11008 0,8.30253 0,23.45965 27.694719,0 0,-23.45965 122.30901,0 0,25.12515 27.69473,0 0,-25.12515 121.8632,0 0,25.63336 27.69472,0 0,-25.63336 0,-6.07355 0,-20.33906 -149.55614,0 0,-19.44747 -27.69473,0"
     id="path515" />
  <rect
     style="fill:#ffffff;fill-rule:evenodd"
     width="96.062225"
     height="58.472584"
     rx="11.47661"
     x="355.94937"
     y="353.12704"
     id="rect517" />
  <rect
     style="fill:#ffffff;fill-rule:evenodd"
     width="96.062225"
     height="58.472584"
     rx="11.47661"
     x="59.993378"
     y="353.12704"
     id="rect519" />
  <rect
     style="fill:#ffffff;fill-rule:evenodd"
     width="96.062225"
     height="58.472584"
     rx="11.47661"
     x="206.58946"
     y="353.12704"
     id="rect521" />
</svg>
