<?xml version="1.0" encoding="UTF-8" standalone="no"?>
<svg
   xmlns:dc="http://purl.org/dc/elements/1.1/"
   xmlns:cc="http://creativecommons.org/ns#"
   xmlns:rdf="http://www.w3.org/1999/02/22-rdf-syntax-ns#"
   xmlns:svg="http://www.w3.org/2000/svg"
   xmlns="http://www.w3.org/2000/svg"
   xmlns:sodipodi="http://sodipodi.sourceforge.net/DTD/sodipodi-0.dtd"
   xmlns:inkscape="http://www.inkscape.org/namespaces/inkscape"
   version="1.1"
   width="100%"
   height="100%"
   viewBox="0 0 512 512"
   id="svg2"
   inkscape:version="0.91 r13725"
   sodipodi:docname="folder-games.svg">
  <sodipodi:namedview
     pagecolor="#ffffff"
     bordercolor="#666666"
     borderopacity="1"
     objecttolerance="10"
     gridtolerance="10"
     guidetolerance="10"
     inkscape:pageopacity="0"
     inkscape:pageshadow="2"
     inkscape:window-width="640"
     inkscape:window-height="480"
     id="namedview20"
     showgrid="false"
     inkscape:zoom="0.4609375"
     inkscape:cx="256"
     inkscape:cy="256"
     inkscape:window-x="0"
     inkscape:window-y="0"
     inkscape:window-maximized="0"
     inkscape:current-layer="svg2" />
  <metadata
     id="metadata365">
    <rdf:RDF>
      <cc:Work
         rdf:about="">
        <dc:format>image/svg+xml</dc:format>
        <dc:type
           rdf:resource="http://purl.org/dc/dcmitype/StillImage" />
        <dc:title></dc:title>
      </cc:Work>
    </rdf:RDF>
  </metadata>
  <defs
     id="defs4">
    <linearGradient
       y1="121.76"
       x2="0"
       y2="453.26001"
       id="0-8"
       gradientUnits="userSpaceOnUse"
       gradientTransform="translate(0.0012,-0.0195)">
      <stop
         id="stop7-7"
         style="stop-color:#6a6a6a;stop-opacity:1"
         offset="0" />
      <stop
         id="stop9-5"
         style="stop-color:#000000;stop-opacity:1"
         offset="0.47" />
      <stop
         id="stop11-9"
         style="stop-color:#ffffff;stop-opacity:1"
         offset="0.49399999" />
      <stop
         id="stop13-9"
         style="stop-color:#ffffff;stop-opacity:1"
         offset="0.90100002" />
      <stop
         id="stop15-0"
         style="stop-color:#000000;stop-opacity:1"
         offset="0.95499998" />
      <stop
         id="stop17-2"
         style="stop-color:#000000;stop-opacity:1"
         offset="1" />
    </linearGradient>
  </defs>
  <g
     id="g113"
     style="fill-rule:evenodd"
     transform="translate(0.0012,-0.0195)">
    <path
       d="m 108.63,57.39 c -7.963,0 -15.228,2.293 -20.693,6.22 -4.545,3.266 -7.751,7.872 -8.752,13.13 l -11.909,0 c -16.447,0 -29.883,13.03 -29.883,29.2 l 0,66.736 c 0,16.17 13.436,29.19 29.883,29.19 l 377.47,0 c 16.447,0 29.883,-13.03 29.883,-29.19 l 0,-66.736 c 0,-16.17 -13.436,-29.2 -29.883,-29.2 l -262.91,0 c -1,-5.256 -4.208,-9.862 -8.753,-13.13 -5.465,-3.927 -12.73,-6.22 -20.693,-6.22 l -43.761,0"
       id="path115"
       style="fill:#cccccc" />
    <path
       d="m 37.36,118.48 c -19.928,0 -38.06,15.818 -36.23,35.853 l 24.26,265.41 c 1.733,18.966 16.271,34.947 36.2,34.947 l 383.41,0 c 19.933,0 34.1,-16.05 36.2,-34.853 l 29.632,-265.41 c 1.123,-10.05 -3.137,-19.263 -9.971,-25.663 -6.833,-6.399 -16.258,-10.284 -26.22,-10.284 l -437.27,0"
       id="path117"
       style="fill:#747474" />
  </g>
  <path
     d="m 37.3612,118.4505 c -19.928,0 -38.08,15.84 -36.25,35.875 l 11.781,128.78 12.469,136.63 c 1.733,18.966 16.29,34.938 36.22,34.938 l 383.41,0 c 19.933,0 34.09,-16.04 36.19,-34.844 l 15.281,-136.72 14.375,-128.69 c 1.123,-10.05 -3.135,-19.287 -9.969,-25.688 -6.833,-6.399 -16.257,-10.281 -26.22,-10.281 l -437.28,0"
     id="path119"
     style="opacity:0.05;fill:url(#0-8)" />
  <g
     id="g121"
     style="fill:#ffffff;fill-rule:evenodd"
     transform="translate(0.0012,-0.0195)">
    <path
       d="m 37.35,118.47 c -6.165,0 -12.154,1.503 -17.438,4.188 l 332.06,332.03 28.25,0 -336.19,-336.22 -6.688,0 m 34.969,0 336.22,336.22 28.28,0 -336.22,-336.22 -28.28,0 m 56.59,0 332.25,332.28 c 5.997,-3.165 10.884,-8.06 14.375,-13.938 l -318.37,-318.34 -28.25,0 m 56.56,0 296.28,296.31 2.844,-25.469 -270.87,-270.84 -28.25,0 m 56.56,0 245.41,245.44 2.844,-25.469 -220,-219.97 -28.25,0 m 56.56,0 194.53,194.53 2.844,-25.438 -169.12,-169.09 -28.25,0 m 56.56,0 143.63,143.63 2.844,-25.438 -118.19,-118.19 -28.28,0 m 56.56,0 92.75,92.75 2.844,-25.438 -67.28,-67.31 -28.313,0 m 56.59,0 41.844,41.844 0.656,-5.875 c 1.123,-10.05 -3.134,-19.288 -9.969,-25.688 -6.833,-6.399 -16.252,-10.281 -26.22,-10.281 l -6.313,0 M 5.253,136.259 c -3.108,5.286 -4.73,11.464 -4.125,18.09 l 0.625,6.719 293.66,293.63 28.25,0 -318.41,-318.44 m -0.656,55.906 2.844,31.13 231.41,231.41 28.25,0 -262.5,-262.53 m 5.688,62.25 2.844,31.13 169.16,169.16 28.25,0 -200.25,-200.28 m 5.688,62.28 2.844,31.13 106.88,106.88 28.28,0 -138,-138 m 5.688,62.25 2.844,31.13 44.625,44.625 28.28,0 -75.75,-75.75"
       id="path123"
       style="opacity:0" />
    <path
       d="m 108.55,57.31 c -7.963,0 -15.11,2.403 -20.572,6.33 -4.545,3.266 -7.702,7.931 -8.703,13.187 l -12.13,0 c -17.677,0 -29.802,12.771 -29.802,30.661 l 0,3.956 c 0,-16.17 13.355,-29.27 29.802,-29.27 l 14.286,0 c 1,-5.256 2,-9.657 6.549,-12.923 5.465,-3.927 12.609,-6.33 20.572,-6.33 l 43.78,0 c 7.963,0 15.371,2.403 20.835,6.33 4.545,3.266 5.766,7.668 6.769,12.923 l 264.88,0 c 16.447,0 29.802,11.455 29.802,27.625 l 0,-3.956 c 0,-16.17 -13.355,-29.01 -29.802,-29.01 l -262.95,0 c -1,-5.256 -4.159,-9.921 -8.703,-13.187 -5.465,-3.927 -12.872,-6.33 -20.835,-6.33 z"
       id="path125"
       style="opacity:0.76399997" />
    <path
       d="m 37.35,118.47 c -19.928,0 -38.05,15.84 -36.22,35.875 l 0.406,4.375 c 3,-15.936 18.732,-27.563 35.813,-27.563 l 437.28,0 c 9.966,0 19.386,3.882 26.22,10.281 4.736,4.435 8.234,10.208 9.563,16.688 l 0.406,-3.688 c 1.123,-10.05 -3.134,-19.288 -9.969,-25.688 -6.833,-6.399 -16.252,-10.281 -26.22,-10.281 l -437.28,0"
       id="path127"
       style="opacity:0.4" />
  </g>
  <path
     inkscape:connector-curvature="0"
     id="path455"
     style="opacity:0.25"
     d="m 179.8312,185.818 c -11.853,-0.16 -23.991,5.614 -36.623,17.477 -30.465,28.61 -49.744,75.67 -49.963,121.87 -0.051,10.672 0.657,15.666 3.434,24.13 3.734,11.386 9.902,21.539 16.838,28.475 l 76.922,76.922 254.55,0 c 19.933,0 34.09,-16.04 36.19,-34.844 l 10.469,-93.65 -119.99,-119.99 c -0.987,-0.987 -1.989,-1.957 -3,-2.91 -12.633,-11.863 -24.736,-17.637 -36.59,-17.477 -12.904,0.175 -21.52,4.349 -36.592,17.779 -13.07,11.651 -18.933,15.543 -27.23,18.14 -6.914,2.167 -17.703,2.167 -24.617,0 -8.3,-2.601 -14.12,-6.494 -27.2,-18.14 -15.07,-13.431 -23.687,-17.605 -36.592,-17.779" />
  <path
     inkscape:connector-curvature="0"
     id="path457"
     style="fill:#ffffff"
     d="m 179.8312,185.818 c -11.853,-0.16 -23.989,5.612 -36.622,17.475 -30.465,28.61 -49.745,75.67 -49.964,121.87 -0.051,10.672 0.658,15.664 3.434,24.13 6.25,19.06 19.323,34.67 31.395,37.503 8.367,1.964 19.402,-1.113 29.328,-8.175 2.354,-1.675 9.668,-8.312 16.26,-14.74 22.02,-21.468 29.392,-27.04 44.07,-33.28 11.489,-4.888 23.794,-7.203 38.2,-7.203 14.409,0 26.744,2.315 38.23,7.203 14.676,6.243 22.05,11.811 44.07,33.28 6.592,6.428 13.906,13.07 16.26,14.74 8.624,6.136 18.468,9.381 26.17,8.631 15.611,-1.521 31.504,-21.74 36.987,-47.05 2.598,-11.994 0.452,-38.915 -4.65,-58.29 -8.544,-32.449 -23.623,-59.17 -44.34,-78.62 -12.633,-11.863 -24.738,-17.636 -36.592,-17.475 -12.904,0.175 -21.52,4.349 -36.592,17.779 -13.07,11.651 -18.931,15.543 -27.23,18.14 -6.914,2.167 -17.703,2.167 -24.617,0 -8.3,-2.601 -14.13,-6.493 -27.2,-18.14 -15.07,-13.431 -23.687,-17.604 -36.592,-17.779 m 152.75,46.13 c 3.543,0.001 7.147,1.197 10.151,3.769 8.676,7.427 7.438,20.933 -2.401,26.26 -3.092,1.674 -7.794,2.594 -10.212,2.01 -10.357,-2.518 -15.78,-10.992 -13.04,-20.362 2.148,-7.34 8.736,-11.672 15.5,-11.67 m -166.03,3.313 12.947,0 12.947,0 0,12.643 0,12.613 12.643,0 12.643,0 0,12.977 0,12.947 -12.643,0 -12.643,0 0,12.643 0,12.613 -12.947,0 -12.947,0 0,-12.613 0,-12.643 -12.643,0 -12.643,0 0,-12.947 0,-12.977 12.643,0 12.643,0 0,-12.613 0,-12.643 m 140.87,22.03 c 3.187,0.008 8.415,2.371 10.941,4.923 8.302,8.389 5.04,22.568 -6.109,26.502 -10.386,3.665 -21.28,-4.104 -21.305,-15.226 -0.02,-8.88 7.45,-16.22 16.472,-16.199 m 50.54,0.274 c 2.662,-0.004 5.323,0.489 7.142,1.459 5.698,3.038 8.874,8.226 8.874,14.466 0,6.563 -3.349,11.73 -9.513,14.649 -2.063,0.977 -4.41,1.52 -6.473,1.52 -5.992,0 -12.575,-4.364 -14.862,-9.847 -1.244,-2.983 -1.312,-9.551 -0.122,-12.4 1.276,-3.054 4.701,-6.732 7.78,-8.358 1.846,-0.974 4.51,-1.486 7.172,-1.489 m -25.499,25.499 c 13.914,0 21.18,16.05 12,26.471 -1.453,1.651 -3.819,3.54 -5.258,4.194 -3.148,1.43 -10.08,1.572 -13.07,0.274 -6.088,-2.649 -10.372,-9.86 -9.725,-16.32 0.848,-8.474 7.597,-14.618 16.05,-14.618" />
</svg>
