<?xml version="1.0" encoding="UTF-8" standalone="no"?>
<svg
   xmlns:dc="http://purl.org/dc/elements/1.1/"
   xmlns:cc="http://creativecommons.org/ns#"
   xmlns:rdf="http://www.w3.org/1999/02/22-rdf-syntax-ns#"
   xmlns:svg="http://www.w3.org/2000/svg"
   xmlns="http://www.w3.org/2000/svg"
   xmlns:sodipodi="http://sodipodi.sourceforge.net/DTD/sodipodi-0.dtd"
   xmlns:inkscape="http://www.inkscape.org/namespaces/inkscape"
   version="1.1"
   width="100%"
   height="100%"
   viewBox="0 0 512 512"
   id="svg2"
   inkscape:version="0.91 r13725"
   sodipodi:docname="folder-open.svg">
  <sodipodi:namedview
     pagecolor="#ffffff"
     bordercolor="#666666"
     borderopacity="1"
     objecttolerance="10"
     gridtolerance="10"
     guidetolerance="10"
     inkscape:pageopacity="0"
     inkscape:pageshadow="2"
     inkscape:window-width="640"
     inkscape:window-height="480"
     id="namedview18"
     showgrid="false"
     inkscape:zoom="0.4609375"
     inkscape:cx="256"
     inkscape:cy="256"
     inkscape:window-x="644"
     inkscape:window-y="0"
     inkscape:window-maximized="0"
     inkscape:current-layer="svg2" />
  <metadata
     id="metadata365">
    <rdf:RDF>
      <cc:Work
         rdf:about="">
        <dc:format>image/svg+xml</dc:format>
        <dc:type
           rdf:resource="http://purl.org/dc/dcmitype/StillImage" />
        <dc:title></dc:title>
      </cc:Work>
    </rdf:RDF>
  </metadata>
  <defs
     id="defs4">
    <linearGradient
       y1="121.76"
       x2="0"
       y2="453.26001"
       id="0-5"
       gradientUnits="userSpaceOnUse"
       gradientTransform="matrix(1,0,0,0.76770864,0.0012,105.60176)">
      <stop
         id="stop7-8"
         style="stop-color:#6a6a6a;stop-opacity:1"
         offset="0" />
      <stop
         id="stop9-4"
         style="stop-color:#000000;stop-opacity:1"
         offset="0.47" />
      <stop
         id="stop11-3"
         style="stop-color:#ffffff;stop-opacity:1"
         offset="0.49399999" />
      <stop
         id="stop13-7"
         style="stop-color:#ffffff;stop-opacity:1"
         offset="0.90100002" />
      <stop
         id="stop15-3"
         style="stop-color:#000000;stop-opacity:1"
         offset="0.95499998" />
      <stop
         id="stop17-8"
         style="stop-color:#000000;stop-opacity:1"
         offset="1" />
    </linearGradient>
    <filter
       style="color-interpolation-filters:sRGB;"
       inkscape:label="Greyscale"
       id="filter3361">
      <feColorMatrix
         values="0.21 0.72 0.072 0.1 0 0.21 0.72 0.072 0.1 0 0.21 0.72 0.072 0.1 0 0 0 0 1 0 "
         id="feColorMatrix3363" />
    </filter>
  </defs>
  <path
     inkscape:connector-curvature="0"
     d="m 108.62333,57.3655 c -7.963,0 -15.223,2.323 -20.688,6.25 -4.545,3.266 -7.749,7.867 -8.75,13.13 l -11.906,0 c -16.447,0 -29.875,13.02 -29.875,29.19 l 0,66.75 c 0,0.505 0.005,1 0.031,1.5 -10e-4,0.011 10e-4,0.021 0,0.031 -0.026,0.499 -0.031,1.026 -0.031,1.531 l 0,66.72 c 0,16.17 13.428,29.22 29.875,29.22 l 377.47,0 c 16.447,0 29.875,-13.05 29.875,-29.22 l 0,-66.72 c 0,-0.505 -0.005,-1.032 -0.031,-1.531 0.001,-0.011 -10e-4,-0.021 0,-0.031 0.026,-0.499 0.031,-0.995 0.031,-1.5 l 0,-66.75 c 0,-16.17 -13.428,-29.19 -29.875,-29.19 l -262.91,0 c -1,-5.255 -4.205,-9.857 -8.75,-13.12 -5.465,-3.927 -12.756,-6.25 -20.719,-6.25 l -43.75,0"
     id="path349"
     style="fill:#cccccc;fill-rule:evenodd" />
  <path
     style="fill:#d23638;fill-rule:evenodd;filter:url(#filter3361)"
     id="path117"
     d="m 37.3612,205.24016 c -19.928,0 -38.06,11.73519 -36.23,26.59893 l 24.26,196.90463 c 1.733,14.07066 16.271,25.92678 36.2,25.92678 l 383.41,0 c 19.933,0 34.1,-11.90732 36.2,-25.85705 l 29.632,-196.90463 c 1.123,-7.45597 -3.137,-14.291 -9.971,-19.03908 -6.833,-4.74734 -16.258,-7.62958 -26.22,-7.62958 l -437.27,0"
     inkscape:connector-curvature="0" />
  <path
     d="m 37.3612,196.55219 c -19.928,0 -38.08,12.16053 -36.25,27.54155 l 11.781,98.86552 12.469,104.89203 c 1.733,14.56036 16.29,26.82221 36.22,26.82221 l 383.41,0 c 19.933,0 34.09,-12.31406 36.19,-26.75005 l 15.281,-104.9611 14.375,-98.79644 c 1.123,-7.71546 -3.135,-14.8068 -9.969,-19.72089 -6.833,-4.91259 -16.257,-7.89283 -26.22,-7.89283 l -437.28,0"
     id="path119"
     style="opacity:0.05;fill:url(#0-5)"
     inkscape:connector-curvature="0" />
  <path
     style="opacity:0;fill:#ffffff;fill-rule:evenodd"
     id="path123"
     d="m 37.3512,118.4505 c -6.165,0 -12.154,1.503 -17.438,4.188 l 332.06,332.03 28.25,0 -336.19,-336.22 -6.688,0 m 34.969,0 336.22,336.22 28.28,0 -336.22,-336.22 -28.28,0 m 56.59,0 332.25,332.28 c 5.997,-3.165 10.884,-8.06 14.375,-13.938 l -318.37,-318.34 -28.25,0 m 56.56,0 296.28,296.31 2.844,-25.469 -270.87,-270.84 -28.25,0 m 56.56,0 245.41,245.44 2.844,-25.469 -220,-219.97 -28.25,0 m 56.56,0 194.53,194.53 2.844,-25.438 -169.12,-169.09 -28.25,0 m 56.56,0 143.63,143.63 2.844,-25.438 -118.19,-118.19 -28.28,0 m 56.56,0 92.75,92.75 2.844,-25.438 -67.28,-67.31 -28.313,0 m 56.59,0 41.844,41.844 0.656,-5.875 c 1.123,-10.05 -3.134,-19.288 -9.969,-25.688 -6.833,-6.399 -16.252,-10.281 -26.22,-10.281 l -6.313,0 m -463.06,17.781 c -3.108,5.286 -4.73,11.464 -4.125,18.09 l 0.625,6.719 293.66,293.63 28.25,0 -318.41,-318.44 m -0.656,55.906 2.844,31.13 231.41,231.41 28.25,0 -262.5,-262.53 m 5.688,62.25 2.844,31.13 169.16,169.16 28.25,0 -200.25,-200.28 m 5.688,62.28 2.844,31.13 106.88,106.88 28.28,0 -138,-138 m 5.688,62.25 2.844,31.13 44.625,44.625 28.28,0 -75.75,-75.75" />
  <path
     style="opacity:0.76399997;fill:#ffffff;fill-rule:evenodd"
     id="path125"
     d="m 108.5512,57.2905 c -7.963,0 -15.11,2.403 -20.572,6.33 -4.545,3.266 -7.702,7.931 -8.703,13.187 l -12.13,0 c -17.677,0 -29.802,12.771 -29.802,30.661 l 0,3.956 c 0,-16.17 13.355,-29.27 29.802,-29.27 l 14.286,0 c 1,-5.256 2,-9.657 6.549,-12.923 5.465,-3.927 12.609,-6.33 20.572,-6.33 l 43.78,0 c 7.963,0 15.371,2.403 20.835,6.33 4.545,3.266 5.766,7.668 6.769,12.923 l 264.88,0 c 16.447,0 29.802,11.455 29.802,27.625 l 0,-3.956 c 0,-16.17 -13.355,-29.01 -29.802,-29.01 l -262.95,0 c -1,-5.256 -4.159,-9.921 -8.703,-13.187 -5.465,-3.927 -12.872,-6.33 -20.835,-6.33 z" />
  <path
     style="opacity:0.4;fill:#ffffff;fill-rule:evenodd"
     id="path127"
     d="m 37.3512,205.23016 c -19.928,0 -38.05,15.84 -36.22,35.875 l 0.406,4.375 c 3,-15.936 18.732,-27.563 35.813,-27.563 l 437.28,0 c 9.966,0 19.386,3.882 26.22,10.281 4.736,4.435 8.234,10.208 9.563,16.688 l 0.406,-3.688 c 1.123,-10.05 -3.134,-19.288 -9.969,-25.688 -6.833,-6.399 -16.252,-10.281 -26.22,-10.281 l -437.28,0"
     inkscape:connector-curvature="0" />
</svg>
