<?xml version="1.0" encoding="UTF-8" standalone="no"?>
<svg
   xmlns:dc="http://purl.org/dc/elements/1.1/"
   xmlns:cc="http://creativecommons.org/ns#"
   xmlns:rdf="http://www.w3.org/1999/02/22-rdf-syntax-ns#"
   xmlns:svg="http://www.w3.org/2000/svg"
   xmlns="http://www.w3.org/2000/svg"
   xmlns:sodipodi="http://sodipodi.sourceforge.net/DTD/sodipodi-0.dtd"
   xmlns:inkscape="http://www.inkscape.org/namespaces/inkscape"
   version="1.1"
   width="100%"
   height="100%"
   viewBox="0 0 512 512"
   id="svg2"
   inkscape:version="0.91 r13725"
   sodipodi:docname="folder-gimp.svg">
  <sodipodi:namedview
     pagecolor="#ffffff"
     bordercolor="#666666"
     borderopacity="1"
     objecttolerance="10"
     gridtolerance="10"
     guidetolerance="10"
     inkscape:pageopacity="0"
     inkscape:pageshadow="2"
     inkscape:window-width="640"
     inkscape:window-height="480"
     id="namedview20"
     showgrid="false"
     inkscape:zoom="0.4609375"
     inkscape:cx="256"
     inkscape:cy="256"
     inkscape:window-x="0"
     inkscape:window-y="0"
     inkscape:window-maximized="0"
     inkscape:current-layer="svg2" />
  <metadata
     id="metadata365">
    <rdf:RDF>
      <cc:Work
         rdf:about="">
        <dc:format>image/svg+xml</dc:format>
        <dc:type
           rdf:resource="http://purl.org/dc/dcmitype/StillImage" />
        <dc:title></dc:title>
      </cc:Work>
    </rdf:RDF>
  </metadata>
  <defs
     id="defs4">
    <linearGradient
       y1="121.76"
       x2="0"
       y2="453.26001"
       id="0-8"
       gradientUnits="userSpaceOnUse"
       gradientTransform="translate(0.0012,-0.0195)">
      <stop
         id="stop7-7"
         style="stop-color:#6a6a6a;stop-opacity:1"
         offset="0" />
      <stop
         id="stop9-5"
         style="stop-color:#000000;stop-opacity:1"
         offset="0.47" />
      <stop
         id="stop11-9"
         style="stop-color:#ffffff;stop-opacity:1"
         offset="0.49399999" />
      <stop
         id="stop13-9"
         style="stop-color:#ffffff;stop-opacity:1"
         offset="0.90100002" />
      <stop
         id="stop15-0"
         style="stop-color:#000000;stop-opacity:1"
         offset="0.95499998" />
      <stop
         id="stop17-2"
         style="stop-color:#000000;stop-opacity:1"
         offset="1" />
    </linearGradient>
  </defs>
  <g
     id="g113"
     style="fill-rule:evenodd"
     transform="translate(0.0012,-0.0195)">
    <path
       d="m 108.63,57.39 c -7.963,0 -15.228,2.293 -20.693,6.22 -4.545,3.266 -7.751,7.872 -8.752,13.13 l -11.909,0 c -16.447,0 -29.883,13.03 -29.883,29.2 l 0,66.736 c 0,16.17 13.436,29.19 29.883,29.19 l 377.47,0 c 16.447,0 29.883,-13.03 29.883,-29.19 l 0,-66.736 c 0,-16.17 -13.436,-29.2 -29.883,-29.2 l -262.91,0 c -1,-5.256 -4.208,-9.862 -8.753,-13.13 -5.465,-3.927 -12.73,-6.22 -20.693,-6.22 l -43.761,0"
       id="path115"
       style="fill:#cccccc" />
    <path
       d="m 37.36,118.48 c -19.928,0 -38.06,15.818 -36.23,35.853 l 24.26,265.41 c 1.733,18.966 16.271,34.947 36.2,34.947 l 383.41,0 c 19.933,0 34.1,-16.05 36.2,-34.853 l 29.632,-265.41 c 1.123,-10.05 -3.137,-19.263 -9.971,-25.663 -6.833,-6.399 -16.258,-10.284 -26.22,-10.284 l -437.27,0"
       id="path117"
       style="fill:#747474" />
  </g>
  <path
     d="m 37.3612,118.4505 c -19.928,0 -38.08,15.84 -36.25,35.875 l 11.781,128.78 12.469,136.63 c 1.733,18.966 16.29,34.938 36.22,34.938 l 383.41,0 c 19.933,0 34.09,-16.04 36.19,-34.844 l 15.281,-136.72 14.375,-128.69 c 1.123,-10.05 -3.135,-19.287 -9.969,-25.688 -6.833,-6.399 -16.257,-10.281 -26.22,-10.281 l -437.28,0"
     id="path119"
     style="opacity:0.05;fill:url(#0-8)" />
  <g
     id="g121"
     style="fill:#ffffff;fill-rule:evenodd"
     transform="translate(0.0012,-0.0195)">
    <path
       d="m 37.35,118.47 c -6.165,0 -12.154,1.503 -17.438,4.188 l 332.06,332.03 28.25,0 -336.19,-336.22 -6.688,0 m 34.969,0 336.22,336.22 28.28,0 -336.22,-336.22 -28.28,0 m 56.59,0 332.25,332.28 c 5.997,-3.165 10.884,-8.06 14.375,-13.938 l -318.37,-318.34 -28.25,0 m 56.56,0 296.28,296.31 2.844,-25.469 -270.87,-270.84 -28.25,0 m 56.56,0 245.41,245.44 2.844,-25.469 -220,-219.97 -28.25,0 m 56.56,0 194.53,194.53 2.844,-25.438 -169.12,-169.09 -28.25,0 m 56.56,0 143.63,143.63 2.844,-25.438 -118.19,-118.19 -28.28,0 m 56.56,0 92.75,92.75 2.844,-25.438 -67.28,-67.31 -28.313,0 m 56.59,0 41.844,41.844 0.656,-5.875 c 1.123,-10.05 -3.134,-19.288 -9.969,-25.688 -6.833,-6.399 -16.252,-10.281 -26.22,-10.281 l -6.313,0 M 5.253,136.259 c -3.108,5.286 -4.73,11.464 -4.125,18.09 l 0.625,6.719 293.66,293.63 28.25,0 -318.41,-318.44 m -0.656,55.906 2.844,31.13 231.41,231.41 28.25,0 -262.5,-262.53 m 5.688,62.25 2.844,31.13 169.16,169.16 28.25,0 -200.25,-200.28 m 5.688,62.28 2.844,31.13 106.88,106.88 28.28,0 -138,-138 m 5.688,62.25 2.844,31.13 44.625,44.625 28.28,0 -75.75,-75.75"
       id="path123"
       style="opacity:0" />
    <path
       d="m 108.55,57.31 c -7.963,0 -15.11,2.403 -20.572,6.33 -4.545,3.266 -7.702,7.931 -8.703,13.187 l -12.13,0 c -17.677,0 -29.802,12.771 -29.802,30.661 l 0,3.956 c 0,-16.17 13.355,-29.27 29.802,-29.27 l 14.286,0 c 1,-5.256 2,-9.657 6.549,-12.923 5.465,-3.927 12.609,-6.33 20.572,-6.33 l 43.78,0 c 7.963,0 15.371,2.403 20.835,6.33 4.545,3.266 5.766,7.668 6.769,12.923 l 264.88,0 c 16.447,0 29.802,11.455 29.802,27.625 l 0,-3.956 c 0,-16.17 -13.355,-29.01 -29.802,-29.01 l -262.95,0 c -1,-5.256 -4.159,-9.921 -8.703,-13.187 -5.465,-3.927 -12.872,-6.33 -20.835,-6.33 z"
       id="path125"
       style="opacity:0.76399997" />
    <path
       d="m 37.35,118.47 c -19.928,0 -38.05,15.84 -36.22,35.875 l 0.406,4.375 c 3,-15.936 18.732,-27.563 35.813,-27.563 l 437.28,0 c 9.966,0 19.386,3.882 26.22,10.281 4.736,4.435 8.234,10.208 9.563,16.688 l 0.406,-3.688 c 1.123,-10.05 -3.134,-19.288 -9.969,-25.688 -6.833,-6.399 -16.252,-10.281 -26.22,-10.281 l -437.28,0"
       id="path127"
       style="opacity:0.4" />
  </g>
  <path
     inkscape:connector-curvature="0"
     id="path419"
     style="opacity:0.25"
     d="m 441.7712,161.5785 c -17.435,17.339 -18.616,22.09 -39.1,42.45 -11.631,11.502 -23.817,21.02 -39.07,25.916 l -6.738,-6.738 c -2.721,-2.721 -5.797,-4.934 -8.961,-7.402 -10.76,-8.441 -24.343,-14.638 -36.422,-17.885 -11.173,-2.878 -22.67,-4.02 -32.846,-3.928 -13.03,0.551 -24.986,2.054 -36.543,6.188 -6.915,2.526 -13.729,5.642 -21.03,8.727 l -18.03,-13.13 -12.412,-8.732 -12.398,-8.703 -0.023,-0.023 0.002,0.008 -0.018,-0.012 0.02,0.02 2.117,8.764 1.691,9.885 c 1.069,5.607 1.933,11.424 2.555,17.23 1.022,9.547 1.388,19.07 0.938,27.588 -0.185,3.269 -0.353,6.366 -0.355,6.66 -1.816,10.279 -4.935,21.11 -12.275,28.04 -2.887,2.545 -6.183,4.521 -9.615,6.05 l -33.2,-33.2 c -11.958,-11.958 -28.672,-15.578 -42.15,-7.656 -17.541,10.311 -22.945,36.29 -12.06,58.03 2.519,5.03 5.691,9.394 9.295,12.998 l 141.96,141.96 217.88,0 c 19.933,0 34.09,-16.04 36.19,-34.844 l 15.281,-136.72 6.717,-60.13 -61.41,-61.41" />
  <path
     inkscape:connector-curvature="0"
     id="path421"
     style="fill:#ffffff"
     d="m 178.2012,178.3185 2.121,8.779 1.691,9.885 c 1.069,5.607 1.933,11.425 2.555,17.231 1.022,9.547 1.388,19.07 0.937,27.586 -0.185,3.269 -0.355,6.366 -0.357,6.66 -1.816,10.279 -4.935,21.11 -12.275,28.04 -7.827,6.9 -18.644,9.656 -27.11,10.54 l -0.799,-0.236 c 0.147,-8.06 -1.638,-16.53 -5.593,-24.432 -10.882,-21.735 -33.911,-30.982 -51.45,-20.67 -17.541,10.311 -22.946,36.29 -12.06,58.03 9.891,19.757 29.828,29.17 46.545,22.987 l -0.188,0.356 c 11.549,14.764 27.14,28.22 40.09,38.577 14.42,11.482 29.558,21.771 44.31,28.959 20.565,9.735 42.896,17.18 63.01,20.97 19.389,-0.05 34.463,-1.671 48.21,-5.882 14.11,-4.321 26.827,-11.372 41.38,-22.252 13.843,-13.671 24.01,-26.476 32.487,-40.28 13.985,-24.684 21.832,-44.616 28.508,-67.946 5.9,-20.804 9.819,-36.873 12.916,-55.57 3.563,-19.09 3.876,-40.43 8.635,-58.06 -17.435,17.339 -18.616,22.09 -39.1,42.45 -11.984,11.851 -24.547,21.614 -40.464,26.364 -3.563,-6.77 -8.803,-10.293 -14.31,-14.588 -10.76,-8.441 -24.344,-14.638 -36.423,-17.885 -11.173,-2.878 -22.668,-4.02 -32.844,-3.928 -13.03,0.551 -24.987,2.053 -36.543,6.187 -6.915,2.526 -13.728,5.643 -21.02,8.728 l -18.03,-13.13 -12.412,-8.733 -12.437,-8.73" />
</svg>
