<?xml version="1.0" encoding="UTF-8" standalone="no"?>
<svg
   xmlns:dc="http://purl.org/dc/elements/1.1/"
   xmlns:cc="http://creativecommons.org/ns#"
   xmlns:rdf="http://www.w3.org/1999/02/22-rdf-syntax-ns#"
   xmlns:svg="http://www.w3.org/2000/svg"
   xmlns="http://www.w3.org/2000/svg"
   xmlns:sodipodi="http://sodipodi.sourceforge.net/DTD/sodipodi-0.dtd"
   xmlns:inkscape="http://www.inkscape.org/namespaces/inkscape"
   id="svg2"
   viewBox="0 0 512 512"
   height="100%"
   width="100%"
   version="1.1"
   inkscape:version="0.91 r13725"
   sodipodi:docname="mail-message.svg">
  <sodipodi:namedview
     pagecolor="#ffffff"
     bordercolor="#666666"
     borderopacity="1"
     objecttolerance="10"
     gridtolerance="10"
     guidetolerance="10"
     inkscape:pageopacity="0"
     inkscape:pageshadow="2"
     inkscape:window-width="640"
     inkscape:window-height="480"
     id="namedview21"
     showgrid="false"
     inkscape:zoom="0.4609375"
     inkscape:cx="256"
     inkscape:cy="256"
     inkscape:window-x="0"
     inkscape:window-y="0"
     inkscape:window-maximized="0"
     inkscape:current-layer="svg2" />
  <metadata
     id="metadata833">
    <rdf:RDF>
      <cc:Work
         rdf:about="">
        <dc:format>image/svg+xml</dc:format>
        <dc:type
           rdf:resource="http://purl.org/dc/dcmitype/StillImage" />
        <dc:title></dc:title>
      </cc:Work>
    </rdf:RDF>
  </metadata>
  <defs
     id="defs4">
    <linearGradient
       gradientUnits="userSpaceOnUse"
       id="0-4"
       y2="471.66"
       x2="0"
       y1="33.752998">
      <stop
         offset="0"
         style="stop-color:#6a6a6a;stop-opacity:1"
         id="stop7-6" />
      <stop
         offset="0.47"
         style="stop-color:#000000;stop-opacity:1"
         id="stop9-5" />
      <stop
         offset="0.49399999"
         style="stop-color:#ffffff;stop-opacity:1"
         id="stop11-9" />
      <stop
         offset="0.90100002"
         style="stop-color:#ffffff;stop-opacity:1"
         id="stop13-7" />
      <stop
         offset="0.95499998"
         style="stop-color:#000000;stop-opacity:1"
         id="stop15-5" />
      <stop
         offset="1"
         style="stop-color:#000000;stop-opacity:1"
         id="stop17-0" />
    </linearGradient>
    <filter
       style="color-interpolation-filters:sRGB;"
       inkscape:label="Greyscale"
       id="filter3490">
      <feColorMatrix
         values="0.11 0 0.072 0.15 0 0.11 0 0.072 0.15 0 0.11 0 0.072 0.15 0 0 0 0 1 0 "
         id="feColorMatrix3492"
         result="fbSourceGraphic" />
      <feColorMatrix
         result="fbSourceGraphicAlpha"
         in="fbSourceGraphic"
         values="0 0 0 -1 0 0 0 0 -1 0 0 0 0 -1 0 0 0 0 1 0"
         id="feColorMatrix3522" />
      <feColorMatrix
         id="feColorMatrix3524"
         values="0.11 0 0.072 0.45 0 0.11 0 0.072 0.45 0 0.11 0 0.072 0.45 0 0 0 0 1 0 "
         in="fbSourceGraphic" />
    </filter>
    <linearGradient
       gradientUnits="userSpaceOnUse"
       id="0-4-2"
       y2="471.66"
       x2="0"
       y1="33.752998">
      <stop
         offset="0"
         style="stop-color:#6a6a6a;stop-opacity:1"
         id="stop7-6-0" />
      <stop
         offset="0.47"
         style="stop-color:#000000;stop-opacity:1"
         id="stop9-5-2" />
      <stop
         offset="0.49399999"
         style="stop-color:#ffffff;stop-opacity:1"
         id="stop11-9-5" />
      <stop
         offset="0.90100002"
         style="stop-color:#ffffff;stop-opacity:1"
         id="stop13-7-0" />
      <stop
         offset="0.95499998"
         style="stop-color:#000000;stop-opacity:1"
         id="stop15-5-0" />
      <stop
         offset="1"
         style="stop-color:#000000;stop-opacity:1"
         id="stop17-0-3" />
    </linearGradient>
  </defs>
  <path
     d="m 471.95,253.05 c 0,120.9 -98.01,218.91 -218.91,218.91 -120.9,0 -218.91,-98.01 -218.91,-218.91 0,-120.9 98.01,-218.91 218.91,-218.91 120.9,0 218.91,98.01 218.91,218.91"
     id="path21"
     style="fill:#d23638;fill-rule:evenodd;filter:url(#filter3490)" />
  <path
     d="m 249.59,34.19 c -8.912,0.137 -17.689,0.797 -26.313,1.969 l 246.66,246.66 c 1.172,-8.62 1.831,-17.404 1.969,-26.313 L 249.596,34.196 m 29.844,1.563 190.94,190.94 c -1.466,-12.221 -3.949,-24.11 -7.344,-35.625 l -148,-148 C 303.54,39.685 291.641,37.229 279.442,35.761 m -79.875,4.969 c -7.363,1.849 -14.579,4.083 -21.625,6.656 l 280.78,280.78 c 2.574,-7.05 4.807,-14.262 6.656,-21.625 L 199.568,40.731 m -41.531,15.03 c -6.281,3.03 -12.383,6.374 -18.313,9.969 l 300.66,300.66 c 3.595,-5.93 6.939,-12.03 9.969,-18.313 L 158.043,55.767 m 207.41,9.438 75.5,75.5 c -18.556,-30.965 -44.539,-56.939 -75.5,-75.5 m -242.62,11.906 c -5.39,3.996 -10.6,8.224 -15.594,12.688 l 309.09,309.09 c 4.463,-4.994 8.692,-10.204 12.688,-15.594 L 122.827,77.105 m -29.875,26.688 c -4.564,4.892 -8.895,9.986 -13,15.281 l 307.09,307.09 c 5.29,-4.101 10.393,-8.441 15.281,-13 L 92.953,103.794 m -24.688,31.875 c -3.702,5.815 -7.13,11.829 -10.281,18 l 294.47,294.47 c 6.171,-3.151 12.185,-6.579 18,-10.281 L 68.264,135.668 m -19.06,37.5 c -2.706,6.9 -5.088,13.967 -7.094,21.19 l 269.66,269.66 c 7.221,-2.01 14.288,-4.387 21.19,-7.094 L 49.21,173.174 m -12.156,44.41 c -1.368,8.386 -2.301,16.917 -2.688,25.594 l 228.56,228.56 c 8.688,-0.385 17.229,-1.287 25.625,-2.656 l -251.5,-251.5 m -2.063,54.5 c 0.997,11.588 2.894,22.905 5.625,33.906 l 159.53,159.53 c 11,2.731 22.319,4.628 33.906,5.625 L 34.989,272.083 m 22.16,78.72 c 21.2,42.43 55.76,76.985 98.19,98.19 l -98.19,-98.19"
     id="path25"
     style="opacity:0;fill:#ffffff;fill-rule:evenodd" />
  <path
     d="M 256,1 C 115.17,1 1,115.17 1,256 1,396.83 115.17,511 256,511 396.83,511 511,396.83 511,256 511,115.17 396.83,1 256,1 m 8.827,44.931 c 120.9,0 218.9,98 218.9,218.9 0,120.9 -98,218.9 -218.9,218.9 -120.9,0 -218.93,-98 -218.93,-218.9 0,-120.9 98.03,-218.9 218.93,-218.9"
     id="path27"
     style="fill-opacity:0.06700003;fill-rule:evenodd" />
  <path
     id="path31"
     d="M 256,4.43 C 117.06,4.43 4.43,117.06 4.43,256 4.43,394.94 117.06,507.57 256,507.57 394.94,507.57 507.57,394.94 507.57,256 507.57,117.06 394.94,4.43 256,4.43 m 5.885,38.556 c 120.9,0 218.9,98 218.9,218.9 0,120.9 -98,218.9 -218.9,218.9 -120.9,0 -218.93,-98 -218.93,-218.9 0,-120.9 98.03,-218.9 218.93,-218.9"
     style="fill-opacity:0.12900002;fill-rule:evenodd" />
  <path
     id="path33"
     d="M 256,8.36 C 119.23,8.36 8.36,119.23 8.36,256 8.36,392.77 119.23,503.64 256,503.64 392.77,503.64 503.64,392.77 503.64,256 503.64,119.23 392.77,8.36 256,8.36 m 2.942,31.691 c 120.9,0 218.9,98 218.9,218.9 0,120.9 -98,218.9 -218.9,218.9 -120.9,0 -218.93,-98 -218.93,-218.9 0,-120.9 98.03,-218.9 218.93,-218.9"
     style="fill-opacity:0.12900002;fill-rule:evenodd" />
  <path
     d="M 253.04,7.86 C 117.62,7.86 7.85,117.64 7.85,253.05 c 0,135.42 109.78,245.19 245.19,245.19 135.42,0 245.19,-109.78 245.19,-245.19 C 498.23,117.63 388.45,7.86 253.04,7.86 Z m 0,26.297 c 120.9,0 218.9,98 218.9,218.9 0,120.9 -98,218.9 -218.9,218.9 -120.9,0 -218.93,-98 -218.93,-218.9 0,-120.9 98.03,-218.9 218.93,-218.9 z"
     id="path35"
     style="fill:#ffffff;fill-rule:evenodd;stroke:#000000;stroke-width:4.90399981;stroke-opacity:0.31000001" />
  <path
     inkscape:connector-curvature="0"
     d="m 471.95,253.05 c 0,120.9 -98.01,218.91 -218.91,218.91 -120.9,0 -218.91,-98.01 -218.91,-218.91 0,-120.9 98.01,-218.91 218.91,-218.91 120.9,0 218.91,98.01 218.91,218.91"
     id="path23"
     style="opacity:0.05;fill:url(#0-4-2);fill-rule:evenodd" />
  <path
     inkscape:connector-curvature="0"
     id="path1204"
     style="opacity:0.25;fill:#000000"
     d="m 259.19,105.44 c -20.12,0 -39.565,3.805 -58.34,11.406 -18.667,7.601 -35.04,18.327 -49.12,32.19 -14.08,13.973 -24.93,30.18 -32.531,48.625 -7.601,18.444 -11.406,37.844 -11.406,58.19 0,21.13 3.729,40.9 11.219,59.34 7.264,17.781 17.757,33.523 31.438,47.2 l 109.44,109.44 c 117.73,-3.61 212.07,-100.17 212.07,-218.78 0,-0.182 -0.005,-0.362 -0.006,-0.543 l -105.5,-105.5 c -11.26,-11.26 -24.26,-20.315 -39,-27.16 -20.456,-9.613 -43.21,-14.406 -68.25,-14.406" />
  <path
     inkscape:connector-curvature="0"
     id="path1206"
     style="fill:#ffffff"
     d="m 259.19,105.44 c -20.12,0 -39.565,3.805 -58.34,11.406 -18.667,7.601 -35.04,18.327 -49.12,32.19 -14.08,13.973 -24.93,30.18 -32.531,48.625 -7.601,18.444 -11.406,37.844 -11.406,58.19 0,21.13 3.729,40.9 11.219,59.34 7.489,18.332 18.411,34.496 32.719,48.47 14.308,13.973 30.605,24.578 48.938,31.844 18.332,7.377 37.852,11.06 58.53,11.06 16.99,0 33.693,-2.906 50.13,-8.719 16.543,-5.701 31.808,-13.97 45.781,-24.813 l -17.938,-27.16 c -9.949,8.942 -21.978,16.03 -36.06,21.281 -14.08,5.254 -28.17,7.875 -42.25,7.875 -16.432,0 -31.906,-2.906 -46.44,-8.719 -14.42,-5.701 -27.23,-14.01 -38.41,-24.969 -11.29,-11.178 -19.933,-24.03 -25.969,-38.563 -5.924,-14.643 -8.906,-30.28 -8.906,-46.938 0,-20.232 4.584,-39.02 13.75,-56.34 9.278,-17.438 22.21,-31.639 38.75,-42.594 10.06,-6.595 20.995,-11.584 32.844,-14.938 11.849,-3.465 24.25,-5.187 37.22,-5.188 18.555,0 35.783,3.685 51.656,11.06 15.984,7.378 29.29,17.894 39.906,31.531 6.595,8.16 11.508,17.16 14.75,27 3.241,9.725 4.875,20.17 4.875,31.344 0,17.55 -3.97,31.96 -11.906,43.25 -7.937,11.178 -18.827,17.845 -32.688,19.969 l 0,-116.19 -35.06,0 0,21.969 c -3.354,-7.936 -8.761,-14.15 -16.25,-18.625 -7.378,-4.471 -16.05,-6.719 -26,-6.719 -19.11,0 -34.709,6.996 -46.781,20.969 -12.07,13.973 -18.09,32.14 -18.09,54.5 0,22.356 5.977,40.528 17.938,54.5 12.07,13.861 27.711,20.781 46.938,20.781 9.948,0 18.622,-2.172 26,-6.531 7.489,-4.471 12.896,-10.689 16.25,-18.625 l 0,25.813 6.531,0 c 33.2,0 58.905,-8.358 77.13,-25.12 18.22,-16.767 27.343,-40.3 27.344,-70.59 0,-14.08 -2.172,-27.507 -6.531,-40.25 -4.248,-12.855 -10.554,-24.764 -18.938,-35.719 -13.749,-17.996 -30.857,-31.748 -51.31,-41.25 -20.456,-9.613 -43.21,-14.406 -68.25,-14.406 m -2.344,107.13 c 10.06,0 18.04,3.97 23.969,11.906 6.04,7.825 9.06,18.506 9.06,32.03 0,13.637 -2.982,24.483 -8.906,32.531 -5.925,7.936 -13.833,11.906 -23.781,11.906 -10.06,0 -18.08,-3.97 -24,-11.906 -5.813,-7.936 -8.719,-18.782 -8.719,-32.531 0,-13.525 2.906,-24.21 8.719,-32.03 5.924,-7.936 13.819,-11.906 23.656,-11.906" />
</svg>
