<?xml version="1.0" encoding="UTF-8" standalone="no"?>
<svg
   xmlns:dc="http://purl.org/dc/elements/1.1/"
   xmlns:cc="http://creativecommons.org/ns#"
   xmlns:rdf="http://www.w3.org/1999/02/22-rdf-syntax-ns#"
   xmlns:svg="http://www.w3.org/2000/svg"
   xmlns="http://www.w3.org/2000/svg"
   xmlns:xlink="http://www.w3.org/1999/xlink"
   xmlns:sodipodi="http://sodipodi.sourceforge.net/DTD/sodipodi-0.dtd"
   xmlns:inkscape="http://www.inkscape.org/namespaces/inkscape"
   id="svg8"
   version="1.1"
   viewBox="0 0 193.46241 193.48999"
   height="731.30072"
   width="731.19653"
   inkscape:version="0.91 r13725"
   sodipodi:docname="PeppermintOS_logo-material_lapped-lightened-no-dropshadow.svg">
  <sodipodi:namedview
     pagecolor="#ffffff"
     bordercolor="#666666"
     borderopacity="1"
     objecttolerance="10"
     gridtolerance="10"
     guidetolerance="10"
     inkscape:pageopacity="0"
     inkscape:pageshadow="2"
     inkscape:window-width="1392"
     inkscape:window-height="873"
     id="namedview86"
     showgrid="false"
     fit-margin-top="0"
     fit-margin-left="0"
     fit-margin-right="0"
     fit-margin-bottom="0"
     inkscape:zoom="1"
     inkscape:cx="315.93462"
     inkscape:cy="368.74842"
     inkscape:window-x="0"
     inkscape:window-y="0"
     inkscape:window-maximized="0"
     inkscape:current-layer="g6157" />
  <defs
     id="defs2">
    <linearGradient
       gradientUnits="userSpaceOnUse"
       y2="56.219948"
       x2="541.97357"
       y1="23.354456"
       x1="507.31415"
       id="linearGradient5925"
       xlink:href="#linearGradient5787" />
    <linearGradient
       id="linearGradient5787">
      <stop
         id="stop5783"
         offset="0"
         style="stop-color:#e6e6e6;stop-opacity:1;" />
      <stop
         id="stop5785"
         offset="1"
         style="stop-color:#a6a6a6;stop-opacity:1" />
    </linearGradient>
    <filter
       height="1.0356303"
       y="-0.017815197"
       width="1.0735254"
       x="-0.036762707"
       id="filter5534"
       style="color-interpolation-filters:sRGB">
      <feGaussianBlur
         id="feGaussianBlur5536"
         stdDeviation="0.53280203" />
    </filter>
    <linearGradient
       gradientTransform="translate(-1.855e-4,3.77e-5)"
       gradientUnits="userSpaceOnUse"
       y2="72.049362"
       x2="500.04956"
       y1="30.593081"
       x1="469.19885"
       id="linearGradient5773"
       xlink:href="#linearGradient5739" />
    <linearGradient
       id="linearGradient5739">
      <stop
         id="stop5735"
         offset="0"
         style="stop-color:#8b0003;stop-opacity:1" />
      <stop
         id="stop5737"
         offset="1"
         style="stop-color:#5d0000;stop-opacity:1" />
    </linearGradient>
    <filter
       height="1.0467649"
       y="-0.023382433"
       width="1.0493021"
       x="-0.024651075"
       id="filter5544"
       style="color-interpolation-filters:sRGB">
      <feGaussianBlur
         id="feGaussianBlur5546"
         stdDeviation="0.62881974" />
    </filter>
    <linearGradient
       gradientUnits="userSpaceOnUse"
       y2="61.942795"
       x2="479.53015"
       y1="25.30929"
       x1="466.87457"
       id="linearGradient5939"
       xlink:href="#linearGradient5931" />
    <linearGradient
       id="linearGradient5931">
      <stop
         style="stop-color:#e6e6e6;stop-opacity:1;"
         offset="0"
         id="stop5927" />
      <stop
         style="stop-color:#949494;stop-opacity:1"
         offset="1"
         id="stop5929" />
    </linearGradient>
    <filter
       height="1.0640157"
       y="-0.032007899"
       width="1.0383943"
       x="-0.019197159"
       id="filter5554"
       style="color-interpolation-filters:sRGB">
      <feGaussianBlur
         id="feGaussianBlur5556"
         stdDeviation="0.57235502" />
    </filter>
    <linearGradient
       gradientTransform="translate(-1.251e-4,3.661e-4)"
       gradientUnits="userSpaceOnUse"
       y2="32.447693"
       x2="478.29333"
       y1="-2.7054358"
       x1="463.37482"
       id="linearGradient5781"
       xlink:href="#linearGradient5739" />
    <filter
       height="1.0649127"
       y="-0.032456376"
       width="1.0380787"
       x="-0.01903937"
       id="filter5572"
       style="color-interpolation-filters:sRGB">
      <feGaussianBlur
         id="feGaussianBlur5574"
         stdDeviation="0.56764987" />
    </filter>
    <linearGradient
       gradientUnits="userSpaceOnUse"
       y2="19.705641"
       x2="472.41281"
       y1="-11.69451"
       x1="457.58752"
       id="linearGradient5947"
       xlink:href="#linearGradient5931" />
    <filter
       height="1.049875"
       y="-0.024937488"
       width="1.046261"
       x="-0.023130445"
       id="filter5582"
       style="color-interpolation-filters:sRGB">
      <feGaussianBlur
         id="feGaussianBlur5584"
         stdDeviation="0.60934003" />
    </filter>
    <linearGradient
       gradientTransform="translate(6.539e-5,4.55e-5)"
       gradientUnits="userSpaceOnUse"
       y2="13.918649"
       x2="506.88931"
       y1="-31.826084"
       x1="467.72662"
       id="linearGradient5741"
       xlink:href="#linearGradient5739" />
    <filter
       height="1.0396546"
       y="-0.019827325"
       width="1.0607942"
       x="-0.030397089"
       id="filter5611"
       style="color-interpolation-filters:sRGB">
      <feGaussianBlur
         id="feGaussianBlur5613"
         stdDeviation="0.58738062" />
    </filter>
    <linearGradient
       gradientUnits="userSpaceOnUse"
       y2="4.8562422"
       x2="522.31134"
       y1="-38.475964"
       x1="484.93616"
       id="linearGradient5789"
       xlink:href="#linearGradient5931" />
    <filter
       height="1.0356312"
       y="-0.017815601"
       width="1.073522"
       x="-0.036760978"
       id="filter5629"
       style="color-interpolation-filters:sRGB">
      <feGaussianBlur
         id="feGaussianBlur5631"
         stdDeviation="0.53281417" />
    </filter>
    <linearGradient
       gradientTransform="translate(4.322e-4,-4.6300001e-6)"
       gradientUnits="userSpaceOnUse"
       y2="-4.7662511"
       x2="532.79993"
       y1="-42.03307"
       x1="512.05615"
       id="linearGradient5749"
       xlink:href="#linearGradient5739" />
    <filter
       height="1.0467659"
       y="-0.023382951"
       width="1.049301"
       x="-0.024650499"
       id="filter5639"
       style="color-interpolation-filters:sRGB">
      <feGaussianBlur
         id="feGaussianBlur5641"
         stdDeviation="0.62882559" />
    </filter>
    <linearGradient
       gradientUnits="userSpaceOnUse"
       y2="-9.7169418"
       x2="541.59106"
       y1="-23.742344"
       x1="535.42279"
       id="linearGradient5909"
       xlink:href="#linearGradient5787" />
    <filter
       height="1.0640203"
       y="-0.032010127"
       width="1.0383927"
       x="-0.019196356"
       id="filter5649"
       style="color-interpolation-filters:sRGB">
      <feGaussianBlur
         id="feGaussianBlur5651"
         stdDeviation="0.57233767" />
    </filter>
    <linearGradient
       gradientTransform="translate(0.0210224,0.05872523)"
       gradientUnits="userSpaceOnUse"
       y2="19.577932"
       x2="559.70764"
       y1="-2.3516066"
       x1="526.42859"
       id="linearGradient5757"
       xlink:href="#linearGradient5739" />
    <filter
       height="1.0649164"
       y="-0.032458201"
       width="1.0380775"
       x="-0.019038742"
       id="filter5676"
       style="color-interpolation-filters:sRGB">
      <feGaussianBlur
         id="feGaussianBlur5678"
         stdDeviation="0.56763075" />
    </filter>
    <linearGradient
       gradientUnits="userSpaceOnUse"
       y2="39.071972"
       x2="546.71021"
       y1="12.69585"
       x1="529.1637"
       id="linearGradient5917"
       xlink:href="#linearGradient5931" />
    <filter
       height="1.0498751"
       y="-0.024937538"
       width="1.0462608"
       x="-0.0231304"
       id="filter5696"
       style="color-interpolation-filters:sRGB">
      <feGaussianBlur
         id="feGaussianBlur5698"
         stdDeviation="2.302988" />
    </filter>
    <linearGradient
       gradientTransform="translate(-4.865e-5,1.378e-4)"
       gradientUnits="userSpaceOnUse"
       y2="53.554054"
       x2="545.60205"
       y1="4.4059963"
       x1="504.35165"
       id="linearGradient5765"
       xlink:href="#linearGradient5739" />
    <filter
       height="1.0399263"
       y="-0.01996313"
       width="1.0601667"
       x="-0.030083342"
       id="filter5725"
       style="color-interpolation-filters:sRGB">
      <feGaussianBlur
         id="feGaussianBlur5727"
         stdDeviation="2.1854495" />
    </filter>
    <filter
       height="1.0479966"
       y="-0.02399829"
       width="1.0480034"
       x="-0.02400171"
       id="filter5987"
       style="color-interpolation-filters:sRGB">
      <feGaussianBlur
         id="feGaussianBlur5989"
         stdDeviation="1.4938417" />
    </filter>
    <linearGradient
       gradientTransform="translate(0.612625,1.3074632)"
       gradientUnits="userSpaceOnUse"
       y2="74.287514"
       x2="541.29846"
       y1="-28.864805"
       x1="446.36649"
       id="linearGradient5955"
       xlink:href="#linearGradient5961" />
    <linearGradient
       id="linearGradient5961">
      <stop
         style="stop-color:#760000;stop-opacity:1"
         offset="0"
         id="stop5957" />
      <stop
         style="stop-color:#4a0000;stop-opacity:1"
         offset="1"
         id="stop5959" />
    </linearGradient>
    <filter
       id="filter3439"
       style="color-interpolation-filters:sRGB">
      <feColorMatrix
         id="feColorMatrix3441"
         values="1.15 0 0 0.11825 -0.075 0 1.15 0 0.11825 -0.075 0 0 1.15 0.11825 -0.075 0 0 0 1 0" />
    </filter>
  </defs>
  <metadata
     id="metadata5">
    <rdf:RDF>
      <cc:Work
         rdf:about="">
        <dc:format>image/svg+xml</dc:format>
        <dc:type
           rdf:resource="http://purl.org/dc/dcmitype/StillImage" />
        <dc:title></dc:title>
      </cc:Work>
    </rdf:RDF>
  </metadata>
  <g
     transform="translate(-250.84932,86.793658)"
     id="layer1">
    <g
       style="opacity:1;filter:url(#filter3439)"
       transform="matrix(1.2951587,0,0,1.2951587,-309.5003,-4.6631822)"
       id="g6157">
      <path
         style="fill:url(#linearGradient5925);fill-opacity:1;stroke-width:0.50876069"
         d="m 507.99963,11.250401 c -3.1374,7.750026 -2.41753,19.283936 2.65043,30.591857 -2.27767,-0.697603 -4.87693,-2.143375 -7.42847,-4.245712 -1.7423,8.18005 0.96889,19.411385 7.92256,29.671508 -2.61202,-0.94289 -5.35509,-2.242206 -8.12315,-3.892229 -0.20421,5.699608 1.88448,12.440726 5.97049,18.973576 a 71.555273,71.134353 0 0 0 40.09939,-12.968972 c -1.56452,0.36287 -2.52589,0.512168 -2.52589,0.512168 -11.13611,-5.437464 -19.08002,-13.830646 -21.63798,-21.790897 2.28389,0.318485 4.95974,0.270435 7.87115,-0.150036 -11.42264,-5.176246 -16.45594,-9.580847 -20.05874,-17.885109 2.2298,0.566991 5.16691,0.757623 8.30771,0.353083 -6.99172,-5.822748 -11.65229,-12.79541 -13.0475,-19.169237 z"
         id="path5502"
         inkscape:connector-curvature="0" />
      <path
         id="path5520"
         d="m 509.38849,10.840183 c -4.82593,4.395823 -8.5298,11.91633 -10.0779,20.879984 -1.92083,-2.513262 -3.22389,-5.154111 -3.84815,-7.371135 -5.38974,7.272219 -6.68955,13.837198 -5.45994,26.317509 -1.8189,-2.315773 -3.2014,-4.605802 -4.06468,-6.743192 -5.6159,6.198704 -8.9123,17.274005 -8.05222,29.636464 0,0 1.04703,1.30481 2.87347,3.14474 a 72.201904,71.777181 0 0 0 28.62942,5.91283 72.201904,71.777181 0 0 0 1.39196,-0.0489 c -4.34939,-6.72761 -6.58153,-13.71982 -6.37074,-19.602532 2.76805,1.65003 5.51151,2.949276 8.12351,3.892152 -6.95368,-10.260106 -9.66511,-21.491281 -7.92279,-29.67133 2.55153,2.10235 5.15075,3.547917 7.42842,4.245513 -5.06806,-11.30809 -5.78792,-22.842047 -2.65036,-30.592073 z"
         style="opacity:0.50899999;fill:#000000;fill-opacity:1;fill-rule:evenodd;stroke:none;stroke-width:3.18537807;filter:url(#filter5534)"
         inkscape:connector-curvature="0" />
      <path
         style="fill:url(#linearGradient5773);fill-opacity:1;fill-rule:evenodd;stroke:none;stroke-width:3.18537807"
         d="m 507.99938,11.250017 c -4.82593,4.395823 -8.5298,11.91633 -10.0779,20.879984 -1.92083,-2.513262 -3.22389,-5.154111 -3.84815,-7.371135 -5.38974,7.272219 -6.68955,13.837198 -5.45994,26.317509 -1.8189,-2.315773 -3.2014,-4.605802 -4.06468,-6.743192 -5.6159,6.198704 -8.9123,17.274005 -8.05222,29.636464 0,0 1.04703,1.30481 2.87347,3.14474 a 72.201904,71.777181 0 0 0 28.62942,5.91283 72.201904,71.777181 0 0 0 1.39196,-0.0489 c -4.34939,-6.72761 -6.58153,-13.71982 -6.37074,-19.602532 2.76805,1.65003 5.51151,2.949276 8.12351,3.892152 -6.95368,-10.260106 -9.66511,-21.491281 -7.92279,-29.67133 2.55153,2.10235 5.15075,3.547917 7.42842,4.245513 -5.06806,-11.30809 -5.78792,-22.842047 -2.65036,-30.592073 z"
         id="path5490"
         inkscape:connector-curvature="0" />
      <path
         id="path5538"
         d="m 510.07493,12.39067 c -8.28182,1.156607 -17.91089,7.549608 -25.17014,17.589592 -0.53232,-2.318959 -0.58365,-5.291008 -0.0358,-8.55597 -7.95393,2.580115 -16.32496,10.543522 -21.73376,21.695537 -0.49055,-2.733053 -0.73601,-5.756158 -0.691,-8.979765 -5.10485,2.710997 -9.9588,7.993478 -13.59046,14.934191 a 71.555273,71.134353 0 0 0 31.32269,27.859203 c -1.02857,-1.10763 -1.60431,-1.823 -1.60431,-1.823 -0.8601,-12.36243 2.4361,-23.437862 8.05201,-29.636567 0.86327,2.137398 2.24597,4.427483 4.06486,6.743242 -1.22962,-12.480311 0.0702,-19.045128 5.45994,-26.317353 0.62426,2.217014 1.92701,4.857656 3.84782,7.370908 1.5481,-8.963644 5.25216,-16.484187 10.0781,-20.880018 z"
         style="opacity:0.519;fill:#000000;fill-opacity:1;stroke-width:0.50876069;filter:url(#filter5544)"
         inkscape:connector-curvature="0" />
      <path
         style="fill:url(#linearGradient5939);fill-opacity:1;stroke-width:0.50876069"
         d="m 507.99963,11.249983 c -8.28182,1.156607 -17.91089,7.549608 -25.17014,17.589592 -0.53232,-2.318959 -0.58365,-5.291008 -0.0358,-8.55597 -7.95393,2.580115 -16.32496,10.543522 -21.73376,21.695537 -0.49055,-2.733053 -0.73601,-5.756158 -0.691,-8.979765 -5.10485,2.710997 -9.9588,7.993478 -13.59046,14.934191 a 71.555273,71.134353 0 0 0 31.32269,27.859203 c -1.02857,-1.10763 -1.60431,-1.823 -1.60431,-1.823 -0.8601,-12.36243 2.4361,-23.437862 8.05201,-29.636567 0.86327,2.137398 2.24597,4.427483 4.06486,6.743242 -1.22962,-12.480311 0.0702,-19.045128 5.45994,-26.317353 0.62426,2.217014 1.92701,4.857656 3.84782,7.370908 1.5481,-8.963644 5.25216,-16.484187 10.0781,-20.880018 z"
         id="path5500"
         inkscape:connector-curvature="0" />
      <path
         id="path5548"
         d="m 508.98776,12.989876 c -6.21785,-1.981304 -14.58543,-1.430149 -23.1222,1.713818 1.22001,-2.920991 2.85105,-5.3710568 4.46286,-7.0211238 -8.99555,-1.032063 -15.32809,1.124905 -25.52448,8.4321608 1.09572,-2.729868 2.38534,-5.074645 3.80915,-6.8966818 -8.17686,-1.761515 -19.41763,0.9207448 -29.69366,7.8489418 0,0 -0.72941,1.878523 -1.48651,4.817056 a 72.201904,71.777181 0 0 0 9.98331,28.471799 c 3.66662,-7.276845 8.67013,-12.81745 13.94105,-15.616632 -0.045,3.223603 0.20042,6.246569 0.69096,8.979623 5.40882,-11.152009 13.77966,-19.115284 21.73359,-21.695398 -0.5479,3.26497 -0.49663,6.236758 0.0358,8.555714 7.25922,-10.039972 16.88844,-16.432687 25.17026,-17.589277 z"
         style="opacity:0.51499999;fill:#000000;fill-opacity:1;fill-rule:evenodd;stroke:none;stroke-width:3.18537807;filter:url(#filter5554)"
         inkscape:connector-curvature="0" />
      <path
         style="fill:url(#linearGradient5781);fill-opacity:1;fill-rule:evenodd;stroke:none;stroke-width:3.18537807"
         d="m 507.99945,11.250345 c -6.21785,-1.9813044 -14.58543,-1.4301494 -23.1222,1.713819 1.22001,-2.920992 2.85105,-5.3710574 4.46286,-7.0211244 -8.99555,-1.032063 -15.32809,1.124905 -25.52448,8.4321614 1.09572,-2.729869 2.38534,-5.0746464 3.80915,-6.8966824 -8.17686,-1.761515 -19.41763,0.920744 -29.69366,7.8489424 0,0 -0.72941,1.878523 -1.48651,4.817056 a 72.201904,71.777181 0 0 0 9.98331,28.471799 c 3.66662,-7.276845 8.67013,-12.81745 13.94105,-15.616632 -0.045,3.223603 0.20042,6.246569 0.69096,8.979623 5.40882,-11.152009 13.77966,-19.115284 21.73359,-21.695398 -0.5479,3.26497 -0.49663,6.236758 0.0358,8.555714 7.25922,-10.039972 16.88844,-16.432687 25.17026,-17.589278 z"
         id="path5488"
         inkscape:connector-curvature="0" />
      <path
         id="path5558"
         d="M 509.93754,12.911051 C 504.7931,6.3205159 494.4445,1.1728719 482.11698,-0.09491908 c 1.74571,-1.61815902 4.29332,-3.14742202 7.39269,-4.30367102 -6.20838,-5.599936 -17.29299,-8.8674659 -29.65548,-7.9755709 2.12462,-1.790179 4.6223,-3.516429 7.43176,-5.090007 -4.91291,-3.073623 -11.93886,-4.637479 -19.79034,-4.301208 a 71.555273,71.134353 0 0 0 -9.11294,34.676427 71.555273,71.134353 0 0 0 0.45049,7.253769 c 0.57113,-1.970822 1.03586,-3.17657 1.03586,-3.17657 10.27604,-6.928192 21.51687,-9.6104841 29.69372,-7.8489621 -1.42381,1.8220301 -2.71348,4.1671061 -3.8092,6.8969811 10.19641,-7.3072661 16.5289,-9.4643201 25.52448,-8.4322411 -1.61181,1.650065 -3.24277,4.1001171 -4.46276,7.0211091 8.53677,-3.14397 16.90441,-3.695389 23.12228,-1.714086 z"
         style="opacity:0.506;fill:#000000;fill-opacity:1;stroke-width:0.50876069;filter:url(#filter5572)"
         inkscape:connector-curvature="0" />
      <path
         style="fill:url(#linearGradient5947);fill-opacity:1;stroke-width:0.50876069"
         d="m 507.99963,11.249983 c -5.14444,-6.590535 -15.49304,-11.738179 -27.82056,-13.00597 1.74571,-1.618159 4.29332,-3.147422 7.39269,-4.303671 -6.20838,-5.599936 -17.29299,-8.867466 -29.65548,-7.975571 2.12462,-1.790179 4.6223,-3.516429 7.43176,-5.090007 -4.91291,-3.073623 -11.93886,-4.637479 -19.79034,-4.301208 a 71.555273,71.134353 0 0 0 -9.11294,34.676427 71.555273,71.134353 0 0 0 0.45049,7.253769 c 0.57113,-1.970822 1.03586,-3.17657 1.03586,-3.17657 10.27604,-6.928192 21.51687,-9.610484 29.69372,-7.848962 -1.42381,1.82203 -2.71348,4.167106 -3.8092,6.896981 10.19641,-7.307266 16.5289,-9.46432 25.52448,-8.432241 -1.61181,1.650065 -3.24277,4.100117 -4.46276,7.021109 8.53677,-3.14397 16.90441,-3.695389 23.12228,-1.714086 z"
         id="ellipse4332"
         inkscape:connector-curvature="0" />
      <path
         id="path5576"
         d="m 508.69311,13.224002 c -1.39205,-6.3739408 -6.05476,-13.34342076 -13.04343,-19.1694768 3.1406,-0.404543 6.07399,-0.213633 8.30686,0.353364 -3.60262,-8.3042802 -8.63513,-12.7099992 -20.05794,-17.8862372 2.91143,-0.420471 5.58664,-0.470883 7.87055,-0.145976 -2.55794,-7.963445 -10.50206,-16.360697 -21.63818,-21.79495 0,0 -1.68681,0.259802 -4.23388,0.934845 a 72.201904,71.777181 0 0 0 -20.42871,23.071608 c 8.16662,-0.477892 15.49741,1.085832 20.57303,4.26127 -2.80947,1.573578 -5.30705,3.299796 -7.43169,5.089979 12.36248,-0.891905 23.44713,2.3759527 29.65552,7.9758912 -3.09936,1.156248 -5.64705,2.685401 -7.39275,4.30357204 12.32753,1.26778096 22.6762,6.41556396 27.82062,13.00611076 z"
         style="opacity:0.506;fill:#000000;fill-opacity:1;fill-rule:evenodd;stroke:none;stroke-width:3.18537807;filter:url(#filter5582)"
         inkscape:connector-curvature="0" />
      <path
         style="fill:url(#linearGradient5741);fill-opacity:1;fill-rule:evenodd;stroke:none;stroke-width:3.18537807"
         d="m 507.99963,11.250024 c -1.39205,-6.37394 -6.05476,-13.34342 -13.04343,-19.169476 3.1406,-0.4045429 6.07399,-0.213633 8.30686,0.353364 -3.60262,-8.304281 -8.63513,-12.71 -20.05794,-17.886238 2.91143,-0.420471 5.58664,-0.470883 7.87055,-0.145976 -2.55794,-7.963445 -10.50206,-16.360697 -21.63818,-21.79495 0,0 -1.68681,0.259802 -4.23388,0.934845 a 72.201904,71.777181 0 0 0 -20.42871,23.071608 c 8.16662,-0.477892 15.49741,1.085832 20.57303,4.26127 -2.80947,1.573578 -5.30705,3.299796 -7.43169,5.089979 12.36248,-0.891905 23.44713,2.375953 29.65552,7.975892 -3.09936,1.156248 -5.64705,2.685401 -7.39275,4.303572 12.32753,1.267781 22.6762,6.415564 27.82062,13.00611 z"
         id="path90"
         inkscape:connector-curvature="0" />
      <path
         id="path5605"
         d="m 506.68839,-57.844635 c -14.37182,0.220861 -28.34354,4.739617 -40.09525,12.967166 1.56411,-0.362161 2.52492,-0.510561 2.52492,-0.510561 11.13621,5.434254 19.08006,13.831607 21.63797,21.795053 -2.28391,-0.324909 -4.95893,-0.274744 -7.87032,0.145727 11.4228,5.176239 16.45507,9.581957 20.05769,17.8862497 -2.23282,-0.567015 -5.16578,-0.758028 -8.30649,-0.35347 6.9887,5.82605895 11.65114,12.795449 13.04314,19.1693663 3.13719,-7.7531903 2.41496,-19.2841953 -2.64946,-30.595026 2.27431,0.700781 4.87595,2.142774 7.42746,4.24832 1.73922,-8.180062 -0.96819,-19.414739 -7.92509,-29.668473 2.6153,0.939688 5.3576,2.239616 8.12559,3.889684 0.20439,-5.699942 -1.88378,-12.440727 -5.97016,-18.974036 z"
         style="opacity:0.49100001;fill:#000000;fill-opacity:1;stroke:none;stroke-width:0.50876069;filter:url(#filter5611)"
         inkscape:connector-curvature="0" />
      <path
         style="fill:url(#linearGradient5789);fill-opacity:1;stroke:none;stroke-width:0.50876069"
         d="m 507.02865,-59.790995 c -14.37182,0.220861 -28.34354,4.739617 -40.09525,12.967166 1.56411,-0.362161 2.52492,-0.510561 2.52492,-0.510561 11.13621,5.434254 19.08006,13.831607 21.63797,21.795053 -2.28391,-0.324909 -4.95893,-0.274744 -7.87032,0.145727 11.4228,5.176239 16.45507,9.581957 20.05769,17.8862486 -2.23282,-0.567015 -5.16578,-0.758028 -8.30649,-0.35347 6.9887,5.826059 11.65114,12.795449 13.04314,19.1693674 3.13719,-7.7531914 2.41496,-19.2841964 -2.64946,-30.595026 2.27431,0.700781 4.87595,2.142774 7.42746,4.24832 1.73922,-8.180062 -0.96819,-19.414739 -7.92509,-29.668473 2.6153,0.939688 5.3576,2.239616 8.12559,3.889684 0.20439,-5.699942 -1.88378,-12.440727 -5.97016,-18.974036 z"
         id="path5603"
         inkscape:connector-curvature="0" />
      <path
         id="path5615"
         d="m 507.38318,-58.666068 a 72.201904,71.777181 0 0 0 -1.39192,0.04898 c 4.34974,6.728024 6.58167,13.719551 6.37076,19.60252 -2.76806,-1.650068 -5.51079,-2.949958 -8.12604,-3.889643 6.95691,10.253732 9.66457,21.488731 7.92528,29.668781 -2.5515,-2.105534 -5.15327,-3.548043 -7.42755,-4.248827 5.06462,11.3112795 5.78707,22.8421775 2.64947,30.595387 0,0 0,0 0,0 4.82237,-4.3958635 8.52986,-11.9167105 10.07791,-20.8832955 1.92081,2.519634 3.22372,5.154154 3.84818,7.37117692 5.38635,-7.26903192 6.68867,-13.83142242 5.46241,-26.31173242 1.81566,2.309399 3.19505,4.603339 4.06137,6.740727 5.61589,-6.198744 8.91312,-17.274817 8.05299,-29.637315 0,0 -1.04613,-1.304007 -2.87178,-3.143883 a 72.201904,71.777181 0 0 0 -28.63192,-5.91286 z"
         style="opacity:0.503;fill:#000000;fill-opacity:1;fill-rule:evenodd;stroke:none;stroke-width:3.18537807;filter:url(#filter5629)"
         inkscape:connector-curvature="0" />
      <path
         style="fill:url(#linearGradient5749);fill-opacity:1;fill-rule:evenodd;stroke:none;stroke-width:3.18537807"
         d="m 507.99999,-60.527214 a 72.201904,71.777181 0 0 0 -1.39192,0.04898 c 4.34974,6.728024 6.58167,13.719551 6.37076,19.60252 -2.76806,-1.650068 -5.51079,-2.949958 -8.12604,-3.889643 6.95691,10.253732 9.66457,21.488731 7.92528,29.668781 -2.5515,-2.105534 -5.15327,-3.548043 -7.42755,-4.248827 5.06462,11.3112789 5.78707,22.8421769 2.64947,30.595386 0,0 0,0 0,0 4.82237,-4.3958631 8.52986,-11.91671013 10.07791,-20.8832944 1.92081,2.5196333 3.22372,5.1541533 3.84818,7.3711763 5.38635,-7.2690313 6.68867,-13.8314219 5.46241,-26.3117319 1.81566,2.309399 3.19505,4.603339 4.06137,6.740727 5.61589,-6.198744 8.91312,-17.274817 8.05299,-29.637315 0,0 -1.04613,-1.304007 -2.87178,-3.143883 a 72.201904,71.777181 0 0 0 -28.63192,-5.91286 z"
         id="path5496"
         inkscape:connector-curvature="0" />
      <path
         id="path5633"
         d="m 506.68342,11.489358 c 8.28479,-1.159911 17.91027,-7.5501548 25.17262,-17.5899698 0.52897,2.31896 0.5799,5.29176595 0.032,8.55679 7.95394,-2.58015705 16.32825,-10.547646 21.73709,-21.6996512 0.48731,2.733056 0.73313,5.76263 0.69179,8.983037 5.10401,-2.710491 9.95828,-7.991009 13.58966,-14.930905 A 71.555273,71.134353 0 0 0 536.58223,-53.0526 c 1.02787,1.107243 1.60353,1.821763 1.60353,1.821763 0.86005,12.362495 -2.43697,23.438655 -8.05286,29.637402 -0.86632,-2.137391 -2.24587,-4.431382 -4.06157,-6.740779 1.22626,12.480312 -0.076,19.0425742 -5.46242,26.3116002 -0.62442,-2.217013 -1.92738,-4.851278 -3.84822,-7.370908 -1.54798,8.96631795 -5.2551,16.486965 -10.07726,20.8828798 z"
         style="opacity:0.506;fill:#000000;fill-opacity:1;stroke-width:0.50876069;filter:url(#filter5639)"
         inkscape:connector-curvature="0" />
      <path
         style="fill:url(#linearGradient5909);fill-opacity:1;stroke-width:0.50876069"
         d="m 507.99998,11.249983 c 8.28479,-1.159911 17.91027,-7.550155 25.17262,-17.58997 0.52897,2.31896 0.5799,5.291766 0.032,8.55679 7.95394,-2.580157 16.32825,-10.547646 21.73709,-21.699651 0.48731,2.733056 0.73313,5.76263 0.69179,8.983037 5.10401,-2.710491 9.95828,-7.991009 13.58966,-14.930905 a 71.555273,71.134353 0 0 0 -31.32435,-27.861259 c 1.02787,1.107243 1.60353,1.821763 1.60353,1.821763 0.86005,12.362495 -2.43697,23.438655 -8.05286,29.637402 -0.86632,-2.137391 -2.24587,-4.431382 -4.06157,-6.740779 1.22626,12.480312 -0.076,19.042574 -5.46242,26.3116 -0.62442,-2.217013 -1.92738,-4.851278 -3.84822,-7.370908 -1.54798,8.966318 -5.2551,16.486965 -10.07726,20.88288 z"
         id="path5504"
         inkscape:connector-curvature="0" />
      <path
         id="path5643"
         d="m 506.93409,10.838151 c 6.221,1.98105 14.58908,1.42688 23.12552,-1.7137748 -1.21996,2.9241768 -2.85104,5.3702488 -4.46286,7.0202748 8.99557,1.028878 15.32796,-1.123928 25.5212,-8.4279994 -1.09252,2.7298684 -2.3861,5.0712064 -3.80671,6.8900574 8.17365,1.7647 19.41529,-0.917474 29.69453,-7.8456714 0,0 0.72809,-1.874658 1.48404,-4.807925 a 72.201904,71.777181 0 0 0 -9.98169,-28.4784276 c -3.66625,7.276084 -8.67019,12.81465 -13.94017,15.613322 0.0417,-3.220416 -0.20451,-6.249881 -0.69183,-8.982935 -5.4088,11.1520086 -13.78297,19.11940455 -21.73691,21.6995606 0.54786,-3.265014 0.49678,-6.237608 -0.0324,-8.556564 -7.26247,10.039973 -16.88792,16.4303086 -25.17279,17.5900824 z"
         style="opacity:0.50899999;fill:#000000;fill-opacity:1;fill-rule:evenodd;stroke:none;stroke-width:3.18537807;filter:url(#filter5649)"
         inkscape:connector-curvature="0" />
      <path
         style="fill:url(#linearGradient5757);fill-opacity:1;fill-rule:evenodd;stroke:none;stroke-width:3.18537807"
         d="m 508.02059,11.308705 c 6.221,1.98105 14.58908,1.42688 23.12552,-1.7137753 -1.21996,2.9241773 -2.85104,5.3702493 -4.46286,7.0202753 8.99557,1.028878 15.32796,-1.123928 25.5212,-8.4280003 -1.09252,2.7298693 -2.3861,5.0712073 -3.80671,6.8900583 8.17365,1.7647 19.41529,-0.917474 29.69453,-7.8456723 0,0 0.72809,-1.874658 1.48404,-4.807925 a 72.201904,71.777181 0 0 0 -9.98169,-28.4784267 c -3.66625,7.276084 -8.67019,12.81465 -13.94017,15.613322 0.0417,-3.220416 -0.20451,-6.249881 -0.69183,-8.982935 -5.4088,11.1520077 -13.78297,19.11940373 -21.73691,21.6995597 0.54786,-3.26501404 0.49678,-6.237608 -0.0324,-8.556564 -7.26247,10.039973 -16.88792,16.4303083 -25.17279,17.5900833 z"
         id="path5494"
         inkscape:connector-curvature="0" />
      <path
         id="path5662"
         d="m 578.64511,2.8426123 c -0.57021,1.967309 -1.03458,3.170872 -1.03458,3.170872 -10.27919,6.9281947 -21.5206,9.6101967 -29.69432,7.8455317 1.4206,-1.818878 2.71399,-4.1606793 3.80649,-6.8905447 -10.19318,7.3040627 -16.5254,9.4572947 -25.52092,8.4284357 1.61182,-1.650021 3.24279,-4.096094 4.46278,-7.0202436 -8.53466,3.1399706 -16.90148,3.6947216 -23.1221,1.7151356 l -0.003,0 c 5.14789,6.593047 15.49394,11.734007 27.82363,13.00488 -1.7455,1.618192 -4.29704,3.149865 -7.39645,4.3062 6.21139,5.593477 17.29677,8.864547 29.65606,7.972637 -2.12148,1.790197 -4.61899,3.51655 -7.43159,5.090133 4.9122,3.075358 11.93829,4.64066 19.78951,4.303104 5.96559,-10.596695 9.10305,-22.535171 9.11366,-34.678515 -0.0259,-2.4218907 -0.17569,-4.8409497 -0.44958,-7.2476257 z"
         style="opacity:0.506;fill:#000000;fill-opacity:1;stroke:none;stroke-width:0.50876069;filter:url(#filter5676)"
         inkscape:connector-curvature="0" />
      <path
         style="fill:url(#linearGradient5917);fill-opacity:1;stroke:none;stroke-width:0.50876069"
         d="m 579.12658,4.0609106 c -0.57021,1.967309 -1.03458,3.170872 -1.03458,3.170872 -10.27919,6.9281944 -21.5206,9.6101964 -29.69432,7.8455314 1.4206,-1.818878 2.71399,-4.160679 3.80649,-6.8905444 -10.19318,7.3040624 -16.5254,9.4572944 -25.52092,8.4284354 1.61182,-1.650021 3.24279,-4.096094 4.46278,-7.0202433 -8.53466,3.1399703 -16.90148,3.6947213 -23.1221,1.7151353 l -0.003,0 c 5.14789,6.593047 15.49394,11.734007 27.82363,13.00488 -1.7455,1.618192 -4.29704,3.149865 -7.39645,4.3062 6.21139,5.593477 17.29677,8.864547 29.65606,7.972637 -2.12148,1.790197 -4.61899,3.51655 -7.43159,5.090133 4.9122,3.075358 11.93829,4.64066 19.78951,4.303104 5.96559,-10.596695 9.10305,-22.535171 9.11366,-34.678515 -0.0259,-2.4218904 -0.17569,-4.8409494 -0.44958,-7.2476254 z"
         id="path5506"
         inkscape:connector-curvature="0" />
      <path
         style="opacity:0.519;fill:#000000;fill-opacity:1;fill-rule:evenodd;stroke:none;stroke-width:12.03922367;filter:url(#filter5696)"
         d="m 1921.5586,1075.8379 c 5.2729,24.0905 22.8885,50.4435 49.3144,72.4512 -1.9491,0.251 -3.8664,0.4213 -5.7656,0.5547 1.377,1.2144 2.7761,2.4192 4.2051,3.6093 -10.1508,1.3075 -19.7238,0.9593 -27.5586,-0.5058 13.4846,28.2084 32.7123,44.1072 73.5332,62.6054 -2.884,0.4166 -5.7039,0.7296 -8.4551,0.9532 2.2359,1.0634 4.5132,2.1307 6.8926,3.2089 -9.6804,1.3981 -18.6685,1.7031 -26.5684,0.9375 11.1011,28.7042 40.1812,58.3046 80.1622,77.8262 0,0 6.3712,-0.9838 15.9902,-3.5351 a 272.88908,271.28383 0 0 0 77.207,-87.1875 c -30.863,1.8113 -58.5698,-4.1033 -77.75,-16.1114 10.6307,-5.9473 20.0697,-12.4722 28.0879,-19.2383 -46.7123,3.371 -88.6096,-8.9959 -112.0859,-30.1367 11.7141,-4.3704 21.3579,-10.1575 27.9551,-16.2734 -46.6037,-4.8037 -85.709,-24.237 -105.1641,-49.1582 z"
         transform="matrix(0.26458334,0,0,0.26458334,0,-274.50002)"
         id="path5680"
         inkscape:connector-curvature="0" />
      <path
         style="fill:url(#linearGradient5765);fill-opacity:1;fill-rule:evenodd;stroke:none;stroke-width:3.18537807"
         d="m 507.99952,11.250117 c 1.39512,6.373942 6.05574,13.34665 13.04761,19.169521 -3.14078,0.404543 -6.07787,0.213633 -8.30768,-0.353364 3.60278,8.30428 8.63611,12.709147 20.05877,17.885385 -2.9114,0.420471 -5.58747,0.468635 -7.87139,0.150141 2.55795,7.960254 10.50208,16.353345 21.63818,21.790789 0,0 1.68557,-0.260655 4.2306,-0.935698 a 72.201904,71.777181 0 0 0 20.42788,-23.068252 c -8.16583,0.479251 -15.49665,-1.085788 -20.57141,-4.262926 2.8127,-1.573575 5.31024,-3.299795 7.43173,-5.089978 -12.3593,0.891905 -23.44492,-2.379903 -29.65637,-7.973385 3.09936,-1.156333 5.65135,-2.687906 7.39686,-4.306079 -12.33054,-1.270965 -22.67729,-6.412421 -27.82478,-13.006154 z"
         id="path5492"
         inkscape:connector-curvature="0" />
      <path
         style="opacity:0.50899999;fill:#000000;fill-opacity:1;stroke-width:1.92287505;filter:url(#filter5725)"
         d="m 1926.2402,1078.4414 c -1.4039,3.4681 -2.5957,7.1425 -3.5879,10.9863 7.2006,21.057 23.1394,43.147 45.584,62.1133 2.3982,-0.1305 4.8355,-0.3306 7.3184,-0.6504 -26.4254,-22.0072 -44.0412,-48.3591 -49.3145,-72.4492 z m 11.6719,72.6758 c 13.4597,31.0239 32.2437,47.652 74.3691,66.9258 2.5079,-0.219 5.071,-0.5108 7.6876,-0.8887 -41.7846,-18.9349 -60.9462,-35.1393 -74.4805,-64.6172 -2.697,-0.3575 -5.2473,-0.8277 -7.5762,-1.4199 z m -19.5937,39.5215 c 0.2772,0.1483 0.5558,0.3016 0.832,0.4453 -0.2759,-0.143 -0.5551,-0.2977 -0.832,-0.4453 z m 9.5996,0.1269 c 0.6521,1.5575 1.32,3.114 2.0156,4.6699 -0.6948,-1.5556 -1.3638,-3.1129 -2.0156,-4.6699 z m -6.8965,1.252 c 0.4858,0.2363 0.9697,0.4642 1.4512,0.6855 -0.4811,-0.2202 -0.9658,-0.4504 -1.4512,-0.6855 z m 3.4668,1.5859 c 0.056,0.024 0.1122,0.047 0.1679,0.07 -0.056,-0.023 -0.1122,-0.047 -0.1679,-0.07 z m 2.6543,1.0469 c 0.1657,0.061 0.3292,0.1187 0.4941,0.1777 -0.1647,-0.059 -0.3287,-0.117 -0.4941,-0.1777 z m 2.8711,0.9726 c 7e-4,3e-4 0,0 0,0 -2e-4,-5e-4 3e-4,0 0,0 -6e-4,-10e-5 0,2e-4 0,0 z m 53.9629,23.6582 c 9.6678,30.0861 39.692,61.8084 81.7812,82.3594 0,0 3.6337,-0.564 9.5469,-1.9355 a 270.44512,268.85424 0 0 1 -92.8906,41.4746 270.44512,268.85424 0 0 0 99.1328,-43.0352 c -5.9132,1.3715 -9.5469,1.9356 -9.5469,1.9356 -41.0593,-20.0482 -70.6271,-50.7261 -81.0254,-80.1465 -2.4239,-0.1255 -4.7625,-0.3405 -6.998,-0.6524 z m -55.6875,66.9356 c 0.5419,0.8553 1.0872,1.7102 1.6445,2.5625 -0.5544,-0.8532 -1.1025,-1.707 -1.6445,-2.5625 z m -9.3809,0.1504 c 0.3767,0.1742 0.7551,0.3509 1.1309,0.5215 -0.3757,-0.1701 -0.7544,-0.3478 -1.1309,-0.5215 z m 2.8242,1.2734 c 0.6216,0.2741 1.2425,0.5446 1.8614,0.8086 -0.619,-0.2634 -1.2397,-0.5351 -1.8614,-0.8086 z m 3.416,1.4629 c 0.7363,0.3052 1.4694,0.5999 2.2012,0.8906 -0.7312,-0.29 -1.4654,-0.5862 -2.2012,-0.8906 z m 3.3067,1.3301 c 1.1482,0.4461 2.292,0.8791 3.4277,1.2891 -8e-4,0 0,0 0,0 -1.1349,-0.4098 -2.2784,-0.8399 -3.4258,-1.2852 z"
         transform="matrix(0.26458334,0,0,0.26458334,0,-274.50002)"
         id="path5700"
         inkscape:connector-curvature="0" />
      <path
         id="path5977"
         style="opacity:0.62000002;fill:#000000;fill-opacity:1;fill-rule:nonzero;stroke:none;stroke-width:3.18831396;filter:url(#filter5987)"
         d="m 508.84645,-59.930135 0,4.747394 0,-4.747394 -0.01,0 c -23.7976,0.0035 -46.374,11.465174 -60.38667,30.662011 -24.28219,33.263681 -9.2117,79.471212 24.05195,103.753411 12.8808,9.399146 20.52731,8.237943 36.42101,8.237943 23.8008,0 39.42826,-10.236265 53.44416,-29.433101 11.7616,-16.113739 16.95587,-29.714433 13.87597,-49.4277777 -3.0736,-19.7133443 -7.30992,-37.6610683 -23.42692,-49.4227583 -12.8744,-9.399148 -28.0826,-14.369728 -43.9732,-14.369728 m -0.01,4.747394 c 14.3092,0 28.7395,4.374368 41.1835,13.454686 31.1976,22.777318 38.0302,66.533737 15.2529,97.734577 -13.6938,18.76004 -34.57043,24.829318 -56.14573,24.829318 -14.306,0 -29.14487,-0.489738 -41.58887,-9.573234 -31.19767,-22.774128 -38.02703,-66.530548 -15.2529,-97.731389 13.6938,-18.76004 34.9758,-28.710771 56.5511,-28.713958"
         inkscape:connector-curvature="0"
         sodipodi:nodetypes="ccccccscccccccsccc" />
      <path
         d="m 507.38234,-63.413446 0,4.747394 0,-4.747394 -0.01,0 c -23.7976,0.0035 -46.374,11.465174 -60.38667,30.662011 -24.28219,33.2636812 -16.97458,80.084071 16.28907,104.36627 12.8808,9.399146 28.0859,14.366536 43.9796,14.366536 23.8008,0 46.374,-11.461983 60.3899,-30.658819 11.7616,-16.113739 16.5473,-35.843026 13.4674,-55.5563708 -3.0736,-19.7133442 -13.6428,-37.0482092 -29.7598,-48.8098992 -12.8744,-9.399148 -28.0826,-14.369728 -43.9732,-14.369728 m -0.01,4.747394 c 14.3092,0 28.7395,4.374368 41.1835,13.454686 31.1976,22.777318 38.0302,66.533737 15.2529,97.734577 -13.6938,18.76004 -34.979,28.71076 -56.5543,28.71076 -14.306,0 -28.7363,-4.37118 -41.1803,-13.454676 -31.19767,-22.774128 -38.02703,-66.5305478 -15.2529,-97.731389 13.6938,-18.76004 34.9758,-28.710771 56.5511,-28.713958"
         style="fill:url(#linearGradient5955);fill-opacity:1;fill-rule:nonzero;stroke:none;stroke-width:3.18831396"
         id="path102"
         inkscape:connector-curvature="0" />
    </g>
  </g>
</svg>
