<?xml version="1.0" encoding="UTF-8" standalone="no"?>
<!-- Created with Inkscape (http://www.inkscape.org/) -->

<svg
   xmlns:dc="http://purl.org/dc/elements/1.1/"
   xmlns:cc="http://creativecommons.org/ns#"
   xmlns:rdf="http://www.w3.org/1999/02/22-rdf-syntax-ns#"
   xmlns:svg="http://www.w3.org/2000/svg"
   xmlns="http://www.w3.org/2000/svg"
   xmlns:sodipodi="http://sodipodi.sourceforge.net/DTD/sodipodi-0.dtd"
   xmlns:inkscape="http://www.inkscape.org/namespaces/inkscape"
   id="svg2"
   height="100%"
   viewBox="0 0 512 512"
   width="100%"
   version="1.1"
   inkscape:version="0.91 r13725"
   sodipodi:docname="xviewer.svg">
  <defs
     id="defs43">
    <linearGradient
       id="linearGradient3764"
       x1="1"
       x2="47"
       gradientUnits="userSpaceOnUse"
       gradientTransform="matrix(0,-1,1,0,-1.5e-6,47.999998)">
      <stop
         style="stop-color:#f49950;stop-opacity:1"
         id="stop7" />
      <stop
         offset="1"
         style="stop-color:#f5a562;stop-opacity:1"
         id="stop9" />
    </linearGradient>
  </defs>
  <sodipodi:namedview
     pagecolor="#ffffff"
     bordercolor="#666666"
     borderopacity="1"
     objecttolerance="10"
     gridtolerance="10"
     guidetolerance="10"
     inkscape:pageopacity="0"
     inkscape:pageshadow="2"
     inkscape:window-width="1366"
     inkscape:window-height="713"
     id="namedview41"
     showgrid="false"
     inkscape:zoom="0.4609375"
     inkscape:cx="-91.118644"
     inkscape:cy="256"
     inkscape:window-x="0"
     inkscape:window-y="0"
     inkscape:window-maximized="1"
     inkscape:current-layer="svg2" />
  <metadata
     id="metadata82">
    <rdf:RDF>
      <cc:Work
         rdf:about="">
        <dc:format>image/svg+xml</dc:format>
        <dc:type
           rdf:resource="http://purl.org/dc/dcmitype/StillImage" />
        <dc:title />
      </cc:Work>
    </rdf:RDF>
  </metadata>
  <path
     id="path4"
     d="m471.95 253.05c0 120.9-98.01 218.9-218.9 218.9-120.9 0-218.9-98.01-218.9-218.9 0-120.9 98.01-218.9 218.9-218.9 120.9 0 218.9 98.01 218.9 218.9"
     fill-rule="evenodd"
     fill="#ef6a47" />
  <g
     id="g8"
     fill-rule="evenodd">
    <path
       id="path10"
       fill-opacity=".067"
       d="m256 1c-140.83 0-255 114.17-255 255s114.17 255 255 255 255-114.17 255-255-114.17-255-255-255m8.827 44.931c120.9 0 218.9 98 218.9 218.9s-98 218.9-218.9 218.9-218.93-98-218.93-218.9 98.03-218.9 218.93-218.9" />
    <g
       id="g12"
       fill-opacity=".129">
      <path
         id="path14"
         d="m256 4.433c-138.94 0-251.57 112.63-251.57 251.57s112.63 251.57 251.57 251.57 251.57-112.63 251.57-251.57-112.63-251.57-251.57-251.57m5.885 38.556c120.9 0 218.9 98 218.9 218.9s-98 218.9-218.9 218.9-218.93-98-218.93-218.9 98.03-218.9 218.93-218.9" />
      <path
         id="path16"
         d="m256 8.356c-136.77 0-247.64 110.87-247.64 247.64s110.87 247.64 247.64 247.64 247.64-110.87 247.64-247.64-110.87-247.64-247.64-247.64m2.942 31.691c120.9 0 218.9 98 218.9 218.9s-98 218.9-218.9 218.9-218.93-98-218.93-218.9 98.03-218.9 218.93-218.9" />
    </g>
    <path
       id="path18"
       d="m253.04 7.859c-135.42 0-245.19 109.78-245.19 245.19 0 135.42 109.78 245.19 245.19 245.19 135.42 0 245.19-109.78 245.19-245.19 0-135.42-109.78-245.19-245.19-245.19zm0 26.297c120.9 0 218.9 98 218.9 218.9s-98 218.9-218.9 218.9-218.93-98-218.93-218.9 98.03-218.9 218.93-218.9z"
       stroke-opacity=".31"
       stroke="#000"
       stroke-width="4.904"
       fill="#fff" />
  </g>
  <text
     id="text20"
     style="word-spacing:0;letter-spacing:0"
     font-size="129.23px"
     line-height="125%"
     y="231.36"
     x="729.64001"
     font-family="Gentium Book Basic">
    <tspan
       id="tspan22"
       y="231.36"
       x="729.64001" />
  </text>
  <text
     id="text24"
     style="text-anchor:middle"
     font-size="46.954px"
     transform="scale(4.0128 .2492)"
     y="579.25"
     x="378.91"
     font-family="Arial" />
  <text
     id="text26"
     style="word-spacing:0;letter-spacing:0"
     font-size="129.23px"
     line-height="125%"
     y="151.36"
     x="1310.91"
     font-family="Gentium Book Basic">
    <tspan
       id="tspan28"
       y="151.36"
       x="1310.91" />
  </text>
  <text
     id="text30"
     style="text-anchor:middle"
     font-size="46.954px"
     transform="scale(4.0128 .2492)"
     y="258.22"
     x="523.76001"
     font-family="Arial" />
  <text
     id="text32"
     style="word-spacing:0;letter-spacing:0"
     font-size="129.23px"
     line-height="125%"
     y="-29.900999"
     x="239.33"
     font-family="Gentium Book Basic">
    <tspan
       id="tspan34"
       y="-29.900999"
       x="239.33" />
  </text>
  <text
     id="text36"
     style="text-anchor:middle"
     font-size="46.954px"
     transform="scale(4.0128 .2492)"
     y="-469.14001"
     x="256.72"
     font-family="Arial" />
  <text
     id="text38"
     style="word-spacing:0;letter-spacing:0"
     font-size="129.23px"
     line-height="125%"
     y="-246.37"
     x="1337.38"
     font-family="Gentium Book Basic">
    <tspan
       id="tspan40"
       y="-246.37"
       x="1337.38" />
  </text>
  <text
     id="text42"
     style="text-anchor:middle"
     font-size="46.954px"
     transform="scale(4.0128 .2492)"
     y="-1337.8101"
     x="530.35999"
     font-family="Arial" />
  <text
     id="text44"
     style="word-spacing:0;letter-spacing:0"
     font-size="129.23px"
     line-height="125%"
     y="-326.38"
     x="1918.65"
     font-family="Gentium Book Basic">
    <tspan
       id="tspan46"
       y="-326.38"
       x="1918.65" />
  </text>
  <text
     id="text48"
     style="text-anchor:middle"
     font-size="46.954px"
     transform="scale(4.0128 .2492)"
     y="-1658.85"
     x="675.21002"
     font-family="Arial" />
  <text
     id="text50"
     style="word-spacing:0;letter-spacing:0"
     font-size="129.23px"
     line-height="125%"
     y="-798.78003"
     x="1529.53"
     font-family="Gentium Book Basic">
    <tspan
       id="tspan52"
       y="-798.78003"
       x="1529.53" />
  </text>
  <text
     id="text54"
     style="text-anchor:middle"
     font-size="46.954px"
     transform="scale(4.0128 .2492)"
     y="-3554.51"
     x="578.23999"
     font-family="Arial" />
  <text
     id="text56"
     style="word-spacing:0;letter-spacing:0"
     font-size="129.23px"
     line-height="125%"
     y="-878.78003"
     x="2110.79"
     font-family="Gentium Book Basic">
    <tspan
       id="tspan58"
       y="-878.78003"
       x="2110.79" />
  </text>
  <text
     id="text60"
     style="text-anchor:middle"
     font-size="46.954px"
     transform="scale(4.0128 .2492)"
     y="-3875.54"
     x="723.09003"
     font-family="Arial" />
  <g
     transform="matrix(9.4013672,0,0,9.4471691,28.479988,28.163001)"
     id="g11">
    <path
       inkscape:connector-curvature="0"
       d="m 36.31,5 c 5.859,4.062 9.688,10.831 9.688,18.5 0,12.426 -10.07,22.5 -22.5,22.5 -7.669,0 -14.438,-3.828 -18.5,-9.688 1.037,1.822 2.306,3.499 3.781,4.969 4.085,3.712 9.514,5.969 15.469,5.969 12.703,0 23,-10.298 23,-23 0,-5.954 -2.256,-11.384 -5.969,-15.469 C 39.81,7.306 38.132,6.037 36.31,5 Z m 4.969,3.781 c 3.854,4.113 6.219,9.637 6.219,15.719 0,12.703 -10.297,23 -23,23 -6.081,0 -11.606,-2.364 -15.719,-6.219 4.16,4.144 9.883,6.719 16.219,6.719 12.703,0 23,-10.298 23,-23 0,-6.335 -2.575,-12.06 -6.719,-16.219 z"
       style="opacity:0.05"
       id="path13" />
    <path
       inkscape:connector-curvature="0"
       d="m 41.28,8.781 c 3.712,4.085 5.969,9.514 5.969,15.469 0,12.703 -10.297,23 -23,23 -5.954,0 -11.384,-2.256 -15.469,-5.969 4.113,3.854 9.637,6.219 15.719,6.219 12.703,0 23,-10.298 23,-23 0,-6.081 -2.364,-11.606 -6.219,-15.719 z"
       style="opacity:0.1"
       id="path15" />
    <path
       inkscape:connector-curvature="0"
       d="M 31.25,2.375 C 39.865,5.529 46,13.792 46,23.505 c 0,12.426 -10.07,22.5 -22.5,22.5 -9.708,0 -17.971,-6.135 -21.12,-14.75 a 23,23 0 0 0 44.875,-7 23,23 0 0 0 -16,-21.875 z"
       style="opacity:0.2"
       id="path17" />
  </g>
  <g
     transform="matrix(9.4013672,0,0,9.4471691,28.479988,28.163001)"
     id="g19">
    <path
       inkscape:connector-curvature="0"
       d="M 24,1 C 36.703,1 47,11.297 47,24 47,36.703 36.703,47 24,47 11.297,47 1,36.703 1,24 1,11.297 11.297,1 24,1 Z"
       style="fill:url(#linearGradient3764);fill-opacity:1"
       id="path21" />
  </g>
  <g
     transform="matrix(9.4013672,0,0,9.4471691,28.479988,28.163001)"
     id="g23">
    <g
       id="g25">
      <g
         transform="translate(1,1)"
         id="g27">
        <g
           style="opacity:0.1"
           id="g29">
          <!-- color: #f5a562 -->
          <g
             id="g31">
            <path
               inkscape:connector-curvature="0"
               d="m 15,13 c -0.379,0 -1,0.586 -1,1 l 0,22 c 0,0.414 0.621,1 1,1 l 19.898,0 C 35.277,37 36,36.414 36,36 l 0,-22 c 0,-0.414 -0.723,-1 -1.102,-1 L 15,13 Z"
               transform="translate(-1,-1)"
               style="fill:#000000;fill-opacity:1;fill-rule:nonzero;stroke:none"
               id="path33" />
          </g>
        </g>
      </g>
    </g>
  </g>
  <path
     inkscape:connector-curvature="0"
     style="opacity:0.25"
     d="m 162.72,111.28 c -0.503,0.016 -1.042,0.061 -1.625,0.156 l 18.09,18.09 -0.01,0 -18.09,-18.09 c -2.331,0.38 -5.154,1.185 -8.498,2.813 l -0.002,-0.002 c -6.762,3 -14.448,12.05 -14.12,24.313 l 0,244.09 18.07,18.07 -0.01,0 -18.06,-18.06 c 0,6.02 2.01,10.03 4.682,12.709 l 0.021,0.021 73.55,73.55 c 11.813,1.972 23.94,3.02 36.31,3.02 120.9,0 218.91,-98.01 218.91,-218.91 0,-16.71 -1.88,-32.98 -5.426,-48.617 l -92.99,-92.99 -207.94,0 c -0.284,0.014 -1.361,-0.204 -2.865,-0.156 l -0.004,-0.004"
     id="path3722" />
  <g
     transform="matrix(11.669472,0,0,11.616661,-27.039272,-28.243779)"
     id="g35">
    <g
       id="g37">
      <!-- color: #f5a562 -->
      <g
         id="g39">
        <path
           inkscape:connector-curvature="0"
           d="m 14,12 c -0.379,0 -1,0.586 -1,1 l 0,22 c 0,0.414 0.621,1 1,1 l 19.898,0 C 34.277,36 35,35.414 35,35 l 0,-22 c 0,-0.414 -0.723,-1 -1.102,-1 z"
           style="fill:#ecedf1;fill-opacity:1;fill-rule:nonzero;stroke:none"
           id="path41" />
        <path
           inkscape:connector-curvature="0"
           d="m 15,14 18,0 0,20 -18,0"
           style="fill:#5acffb;fill-opacity:1;fill-rule:nonzero;stroke:none"
           id="path43" />
        <path
           inkscape:connector-curvature="0"
           d="M 28.5,16 C 27.117,16 26,17.121 26,18.5 26,19.879 27.117,21 28.5,21 29.879,21 31,19.879 31,18.5 31,17.121 29.879,16 28.5,16 Z"
           style="fill:#ffec95;fill-opacity:1;fill-rule:nonzero;stroke:none"
           id="path45" />
        <path
           inkscape:connector-curvature="0"
           d="m 29,25 -7,9 11,0 0,-2 z"
           style="fill:#439c62;fill-opacity:1;fill-rule:nonzero;stroke:none"
           id="path47" />
        <path
           inkscape:connector-curvature="0"
           d="m 21,23 -6,9 0,2 13,0 z"
           style="fill:#45b969;fill-opacity:1;fill-rule:nonzero;stroke:none"
           id="path49" />
      </g>
    </g>
  </g>
  <g
     transform="matrix(9.4013672,0,0,9.4471691,28.479988,28.163001)"
     id="g51">
    <path
       inkscape:connector-curvature="0"
       d="m 40.03,7.531 c 3.712,4.084 5.969,9.514 5.969,15.469 0,12.703 -10.297,23 -23,23 C 17.045,46 11.615,43.744 7.53,40.031 11.708,44.322 17.54,47 23.999,47 c 12.703,0 23,-10.298 23,-23 0,-6.462 -2.677,-12.291 -6.969,-16.469 z"
       style="opacity:0.1"
       id="path53" />
  </g>
</svg>
