<?xml version="1.0" encoding="UTF-8" standalone="no"?>
<svg
   xmlns:dc="http://purl.org/dc/elements/1.1/"
   xmlns:cc="http://creativecommons.org/ns#"
   xmlns:rdf="http://www.w3.org/1999/02/22-rdf-syntax-ns#"
   xmlns:svg="http://www.w3.org/2000/svg"
   xmlns="http://www.w3.org/2000/svg"
   xmlns:sodipodi="http://sodipodi.sourceforge.net/DTD/sodipodi-0.dtd"
   xmlns:inkscape="http://www.inkscape.org/namespaces/inkscape"
   viewBox="0 0 32 32"
   id="svg2"
   version="1.1"
   inkscape:version="0.91 r13725"
   sodipodi:docname="nemo-eject.svg">
  <metadata
     id="metadata14">
    <rdf:RDF>
      <cc:Work
         rdf:about="">
        <dc:format>image/svg+xml</dc:format>
        <dc:type
           rdf:resource="http://purl.org/dc/dcmitype/StillImage" />
      </cc:Work>
    </rdf:RDF>
  </metadata>
  <defs
     id="defs12" />
  <sodipodi:namedview
     pagecolor="#ffffff"
     bordercolor="#666666"
     borderopacity="1"
     objecttolerance="10"
     gridtolerance="10"
     guidetolerance="10"
     inkscape:pageopacity="0"
     inkscape:pageshadow="2"
     inkscape:window-width="1366"
     inkscape:window-height="713"
     id="namedview10"
     showgrid="false"
     inkscape:zoom="7.375"
     inkscape:cx="16"
     inkscape:cy="16"
     inkscape:window-x="0"
     inkscape:window-y="0"
     inkscape:window-maximized="1"
     inkscape:current-layer="svg2" />
  <g
     transform="matrix(1.6666667,0,0,2,2.6666666,0)"
     fill="#dc322f"
     fill-opacity="1"
     id="g4">
    <path
       d="m 14 11 0 2 -12 0 0 -2 z"
       id="path6" />
    <path
       d="m 2 9 6 -6 6 6"
       id="path8" />
  </g>
  <path
     style="fill:#f2f2f2"
     d="m 6.0745763,17.925033 c 0,-0.09126 9.7845537,-11.8068458 9.8962997,-11.8493835 0.05722,-0.021783 2.075016,2.32737 4.483986,5.2203385 2.408971,2.89297 4.651053,5.580283 4.982403,5.971809 l 0.602457,0.711864 -9.982573,0 c -5.490415,0 -9.9825727,-0.02458 -9.9825727,-0.05463 z"
     id="path3342"
     inkscape:connector-curvature="0" />
  <path
     style="fill:#f2f2f2"
     d="m 5.9692565,23.979661 0.037523,-2 10.0000003,-0.03477 10,-0.03477 0,2.034772 0,2.034773 -10.037523,0 -10.0375236,0 0.037523,-2 z"
     id="path3344"
     inkscape:connector-curvature="0" />
</svg>
