<?xml version="1.0" encoding="UTF-8" standalone="no"?>
<!-- Created with Inkscape (http://www.inkscape.org/) -->

<svg
   xmlns:dc="http://purl.org/dc/elements/1.1/"
   xmlns:cc="http://creativecommons.org/ns#"
   xmlns:rdf="http://www.w3.org/1999/02/22-rdf-syntax-ns#"
   xmlns:svg="http://www.w3.org/2000/svg"
   xmlns="http://www.w3.org/2000/svg"
   xmlns:sodipodi="http://sodipodi.sourceforge.net/DTD/sodipodi-0.dtd"
   xmlns:inkscape="http://www.inkscape.org/namespaces/inkscape"
   version="1.1"
   width="100%"
   height="100%"
   viewBox="0 0 512 512"
   id="svg2"
   inkscape:version="0.91 r13725"
   sodipodi:docname="certificate-server.svg">
  <sodipodi:namedview
     pagecolor="#ffffff"
     bordercolor="#666666"
     borderopacity="1"
     objecttolerance="10"
     gridtolerance="10"
     guidetolerance="10"
     inkscape:pageopacity="0"
     inkscape:pageshadow="2"
     inkscape:window-width="640"
     inkscape:window-height="480"
     id="namedview62"
     showgrid="false"
     inkscape:zoom="0.4609375"
     inkscape:cx="256"
     inkscape:cy="256"
     inkscape:window-x="0"
     inkscape:window-y="0"
     inkscape:window-maximized="0"
     inkscape:current-layer="svg2" />
  <metadata
     id="metadata122">
    <rdf:RDF>
      <cc:Work
         rdf:about="">
        <dc:format>image/svg+xml</dc:format>
        <dc:type
           rdf:resource="http://purl.org/dc/dcmitype/StillImage" />
        <dc:title></dc:title>
      </cc:Work>
    </rdf:RDF>
  </metadata>
  <defs
     id="defs120" />
  <path
     d="m 471.95,253.05 c 0,120.9 -98.01,218.9 -218.9,218.9 -120.9,0 -218.9,-98.01 -218.9,-218.9 0,-120.9 98.01,-218.9 218.9,-218.9 120.9,0 218.9,98.01 218.9,218.9"
     inkscape:connector-curvature="0"
     id="path4"
     style="fill:#8db173;fill-rule:evenodd" />
  <g
     id="g8"
     style="fill-rule:evenodd">
    <path
       d="M 256,1 C 115.17,1 1,115.17 1,256 1,396.83 115.17,511 256,511 396.83,511 511,396.83 511,256 511,115.17 396.83,1 256,1 m 8.827,44.931 c 120.9,0 218.9,98 218.9,218.9 0,120.9 -98,218.9 -218.9,218.9 -120.9,0 -218.93,-98 -218.93,-218.9 0,-120.9 98.03,-218.9 218.93,-218.9"
       inkscape:connector-curvature="0"
       id="path10"
       style="fill-opacity:0.06700003" />
    <g
       id="g12"
       style="fill-opacity:0.12900002">
      <path
         d="m 256,4.433 c -138.94,0 -251.57,112.63 -251.57,251.57 0,138.94 112.63,251.57 251.57,251.57 138.94,0 251.57,-112.63 251.57,-251.57 C 507.57,117.063 394.94,4.433 256,4.433 m 5.885,38.556 c 120.9,0 218.9,98 218.9,218.9 0,120.9 -98,218.9 -218.9,218.9 -120.9,0 -218.93,-98 -218.93,-218.9 0,-120.9 98.03,-218.9 218.93,-218.9"
         inkscape:connector-curvature="0"
         id="path14" />
      <path
         d="m 256,8.356 c -136.77,0 -247.64,110.87 -247.64,247.64 0,136.77 110.87,247.64 247.64,247.64 136.77,0 247.64,-110.87 247.64,-247.64 C 503.64,119.226 392.77,8.356 256,8.356 m 2.942,31.691 c 120.9,0 218.9,98 218.9,218.9 0,120.9 -98,218.9 -218.9,218.9 -120.9,0 -218.93,-98 -218.93,-218.9 0,-120.9 98.03,-218.9 218.93,-218.9"
         inkscape:connector-curvature="0"
         id="path16" />
    </g>
    <path
       d="m 253.04,7.859 c -135.42,0 -245.19,109.78 -245.19,245.19 0,135.42 109.78,245.19 245.19,245.19 135.42,0 245.19,-109.78 245.19,-245.19 0,-135.42 -109.78,-245.19 -245.19,-245.19 z m 0,26.297 c 120.9,0 218.9,98 218.9,218.9 0,120.9 -98,218.9 -218.9,218.9 -120.9,0 -218.93,-98 -218.93,-218.9 0,-120.9 98.03,-218.9 218.93,-218.9 z"
       inkscape:connector-curvature="0"
       id="path18"
       style="fill:#ffffff;stroke:#000000;stroke-width:4.90399981;stroke-opacity:0.31000001" />
  </g>
  <text
     x="729.64001"
     y="231.36"
     id="text20"
     style="font-size:129.22999573px;line-height:125%;letter-spacing:0;word-spacing:0;font-family:Gentium Book Basic">
    <tspan
       x="729.64001"
       y="231.36"
       id="tspan22" />
  </text>
  <text
     x="378.91"
     y="579.25"
     transform="scale(4.0128,0.2492)"
     id="text24"
     style="font-size:46.95399857px;text-anchor:middle;font-family:Arial" />
  <text
     x="1310.91"
     y="151.36"
     id="text26"
     style="font-size:129.22999573px;line-height:125%;letter-spacing:0;word-spacing:0;font-family:Gentium Book Basic">
    <tspan
       x="1310.91"
       y="151.36"
       id="tspan28" />
  </text>
  <text
     x="523.76001"
     y="258.22"
     transform="scale(4.0128,0.2492)"
     id="text30"
     style="font-size:46.95399857px;text-anchor:middle;font-family:Arial" />
  <text
     x="239.33"
     y="-29.900999"
     id="text32"
     style="font-size:129.22999573px;line-height:125%;letter-spacing:0;word-spacing:0;font-family:Gentium Book Basic">
    <tspan
       x="239.33"
       y="-29.900999"
       id="tspan34" />
  </text>
  <text
     x="256.72"
     y="-469.14001"
     transform="scale(4.0128,0.2492)"
     id="text36"
     style="font-size:46.95399857px;text-anchor:middle;font-family:Arial" />
  <text
     x="1337.38"
     y="-246.37"
     id="text38"
     style="font-size:129.22999573px;line-height:125%;letter-spacing:0;word-spacing:0;font-family:Gentium Book Basic">
    <tspan
       x="1337.38"
       y="-246.37"
       id="tspan40" />
  </text>
  <text
     x="530.35999"
     y="-1337.8101"
     transform="scale(4.0128,0.2492)"
     id="text42"
     style="font-size:46.95399857px;text-anchor:middle;font-family:Arial" />
  <text
     x="1918.65"
     y="-326.38"
     id="text44"
     style="font-size:129.22999573px;line-height:125%;letter-spacing:0;word-spacing:0;font-family:Gentium Book Basic">
    <tspan
       x="1918.65"
       y="-326.38"
       id="tspan46" />
  </text>
  <text
     x="675.21002"
     y="-1658.85"
     transform="scale(4.0128,0.2492)"
     id="text48"
     style="font-size:46.95399857px;text-anchor:middle;font-family:Arial" />
  <text
     x="1529.53"
     y="-798.78003"
     id="text50"
     style="font-size:129.22999573px;line-height:125%;letter-spacing:0;word-spacing:0;font-family:Gentium Book Basic">
    <tspan
       x="1529.53"
       y="-798.78003"
       id="tspan52" />
  </text>
  <text
     x="578.23999"
     y="-3554.51"
     transform="scale(4.0128,0.2492)"
     id="text54"
     style="font-size:46.95399857px;text-anchor:middle;font-family:Arial" />
  <text
     x="2110.79"
     y="-878.78003"
     id="text56"
     style="font-size:129.22999573px;line-height:125%;letter-spacing:0;word-spacing:0;font-family:Gentium Book Basic">
    <tspan
       x="2110.79"
       y="-878.78003"
       id="tspan58" />
  </text>
  <text
     x="723.09003"
     y="-3875.54"
     transform="scale(4.0128,0.2492)"
     id="text60"
     style="font-size:46.95399857px;text-anchor:middle;font-family:Arial" />
  <text
     x="277.98999"
     y="535.94"
     id="text62"
     style="font-size:208.33000183px;line-height:125%;letter-spacing:0;word-spacing:0;font-family:Gentium Book Basic">
    <tspan
       x="277.98999"
       y="535.94"
       id="tspan64" />
  </text>
  <g
     transform="matrix(4.73421,0,0,4.73421,95.46,95.54)"
     id="g66"
     style="fill:#ffffff" />
  <path
     inkscape:connector-curvature="0"
     style="color:#000000;fill-opacity:0.23500001;fill-rule:evenodd"
     id="path433"
     d="m 249.19,97.06 -14.656,19.906 -21.625,-12 -7.781,23.438 -24.25,-4.719 -0.156,24.719 -24.531,2.969 7.5,23.563 -22.406,10.438 14.406,20.06 -18.09,16.844 1.156,0.844 -0.156,0.156 1.156,0.844 -0.156,0.156 1.156,0.844 c -0.003,0.003 -0.156,0.156 -0.156,0.156 0,0 1.01,0.725 1.125,0.813 -0.003,0.003 -0.156,0.156 -0.156,0.156 0,0 1.03,0.751 1.156,0.844 -0.003,0.003 -0.156,0.156 -0.156,0.156 0,0 1.03,0.751 1.156,0.844 -0.003,0.003 -0.156,0.156 -0.156,0.156 0,0 1.03,0.751 1.156,0.844 -0.003,0.003 -0.156,0.156 -0.156,0.156 0,0 1.03,0.751 1.156,0.844 -0.003,0.003 -0.156,0.156 -0.156,0.156 0,0 1.03,0.751 1.156,0.844 -0.003,0.003 -0.156,0.156 -0.156,0.156 0,0 1.01,0.725 1.125,0.813 -0.003,0.003 -0.156,0.156 -0.156,0.156 0,0 1.03,0.751 1.156,0.844 -0.003,0.003 -0.156,0.156 -0.156,0.156 0,0 1.03,0.751 1.156,0.844 -0.003,0.003 -0.156,0.156 -0.156,0.156 0,0 1.03,0.751 1.156,0.844 -0.003,0.003 -0.156,0.156 -0.156,0.156 0,0 1.03,0.751 1.156,0.844 -0.003,0.003 -0.156,0.156 -0.156,0.156 0,0 1.03,0.751 1.156,0.844 -0.003,0.003 -0.156,0.156 -0.156,0.156 0,0 1.01,0.725 1.125,0.813 -0.003,0.003 -0.156,0.156 -0.156,0.156 0,0 1.03,0.751 1.156,0.844 -0.003,0.003 -0.156,0.156 -0.156,0.156 0,0 1.03,0.751 1.156,0.844 -0.003,0.003 -0.156,0.156 -0.156,0.156 0,0 0.184,0.123 0.188,0.125 l -10.188,18.25 1.313,0.438 -0.313,0.563 1.313,0.438 -0.313,0.563 1.313,0.438 c -0.016,0.029 -0.313,0.563 -0.313,0.563 0,0 1.148,0.393 1.281,0.438 -0.015,0.026 -0.313,0.531 -0.313,0.531 0,0 1.174,0.391 1.313,0.438 -0.016,0.029 -0.313,0.563 -0.313,0.563 0,0 1.174,0.391 1.313,0.438 -0.016,0.029 -0.313,0.563 -0.313,0.563 0,0 1.173,0.391 1.313,0.438 -0.016,0.029 -0.313,0.563 -0.313,0.563 l 1.313,0.438 c -0.016,0.029 -0.313,0.563 -0.313,0.563 0,0 1.173,0.391 1.313,0.438 -0.016,0.029 -0.313,0.563 -0.313,0.563 0,0 1.148,0.393 1.281,0.438 -0.015,0.026 -0.313,0.531 -0.313,0.531 0,0 1.173,0.391 1.313,0.438 -0.016,0.029 -0.313,0.563 -0.313,0.563 0,0 1.173,0.391 1.313,0.438 -0.016,0.029 -0.313,0.563 -0.313,0.563 0,0 1.173,0.391 1.313,0.438 -0.016,0.029 -0.313,0.563 -0.313,0.563 l 1.313,0.438 c -0.016,0.029 -0.313,0.563 -0.313,0.563 l 1.313,0.438 c -0.016,0.029 -0.313,0.563 -0.313,0.563 0,0 1.15,0.363 1.281,0.406 -0.016,0.029 -0.313,0.563 -0.313,0.563 0,0 1.173,0.391 1.313,0.438 -0.016,0.029 -0.313,0.563 -0.313,0.563 0,0 1.173,0.391 1.313,0.438 -0.016,0.029 -0.313,0.563 -0.313,0.563 0,0 1.173,0.391 1.313,0.438 -0.016,0.029 -0.313,0.563 -0.313,0.563 0,0 1.173,0.391 1.313,0.438 -0.016,0.029 -0.313,0.563 -0.313,0.563 0,0 0.944,0.315 1.031,0.344 l -2.219,11.781 1.188,0 -0.188,1 1.188,0 -0.188,1 1.188,0 c -0.015,0.079 -0.188,1 -0.188,1 l 1.156,0 c -0.014,0.074 -0.188,0.969 -0.188,0.969 l 1.188,0 c -0.015,0.079 -0.188,1 -0.188,1 l 1.188,0 c -0.015,0.079 -0.188,1 -0.188,1 l 1.188,0 c -0.015,0.079 -0.188,1 -0.188,1 l 1.188,0 c -0.015,0.079 -0.188,1 -0.188,1 l 1.188,0 c -0.015,0.079 -0.188,1 -0.188,1 l 1.156,0 c -0.014,0.074 -0.188,0.969 -0.188,0.969 l 1.188,0 c -0.015,0.079 -0.188,1 -0.188,1 l 1.188,0 c -0.015,0.079 -0.188,1 -0.188,1 l 1.188,0 c -0.015,0.079 -0.188,1 -0.188,1 l 1.188,0 c -0.015,0.079 -0.188,1 -0.188,1 l 1.188,0 c -0.015,0.079 -0.188,1 -0.188,1 l 1.156,0 c -0.014,0.074 -0.188,0.969 -0.188,0.969 0,0 1.079,-0.001 1.188,0 -0.015,0.079 -0.188,1 -0.188,1 l 1.188,0 c -0.015,0.079 -0.188,1 -0.188,1 l 1.188,0 c -0.015,0.079 -0.188,1 -0.188,1 l 1.188,0 c -0.015,0.079 -0.188,1 -0.188,1 l 1.188,0 c -0.015,0.079 -0.188,1 -0.188,1 l 1.156,0 -0.188,0.969 1.188,0 c -0.015,0.079 -0.188,1 -0.188,1 l 1.188,0 c -0.015,0.079 -0.188,1 -0.188,1 l 1.188,0 c -0.015,0.079 -0.188,1 -0.188,1 l 1.188,0 c -0.015,0.079 -0.188,1 -0.188,1 l 1.188,0 c -0.015,0.079 -0.188,1 -0.188,1 l 1.188,0 c -0.015,0.079 -0.188,1 -0.188,1 l 1.156,0 c -0.014,0.074 -0.188,0.969 -0.188,0.969 l 1.188,0 c -0.015,0.079 -0.188,1 -0.188,1 l 1.188,0 c -0.015,0.079 -0.188,1 -0.188,1 l 1.188,0 c -0.015,0.079 -0.188,1 -0.188,1 l 1.188,0 c -0.015,0.079 -0.188,1 -0.188,1 l 1.188,0 c -0.015,0.079 -0.188,1 -0.188,1 l 1.156,0 c -0.014,0.074 -0.188,0.969 -0.188,0.969 l 1.188,0 c -0.015,0.079 -0.188,1 -0.188,1 l 1.188,0 c -0.015,0.079 -0.188,1 -0.188,1 l 1.188,0 c -0.015,0.079 -0.188,1 -0.188,1 l 1.188,0 c -0.015,0.079 -0.188,1 -0.188,1 l 1.188,0 c -0.015,0.079 -0.188,1 -0.188,1 l 1.156,0 c -0.014,0.074 -0.188,0.969 -0.188,0.969 l 1.188,0 c -0.015,0.079 -0.188,1 -0.188,1 l 0.969,0 -21.469,69.69 1.781,-1.531 c -0.041,0.133 -0.781,2.531 -0.781,2.531 l 1.781,-1.531 c -0.041,0.133 -0.781,2.531 -0.781,2.531 0,0 1.61,-1.384 1.781,-1.531 -0.041,0.133 -0.781,2.531 -0.781,2.531 0,0 1.56,-1.332 1.719,-1.469 -0.038,0.123 -0.75,2.438 -0.75,2.438 0,0 1.61,-1.384 1.781,-1.531 -0.041,0.133 -0.781,2.531 -0.781,2.531 0,0 1.61,-1.384 1.781,-1.531 -0.041,0.133 -0.781,2.531 -0.781,2.531 0,0 1.61,-1.384 1.781,-1.531 -0.041,0.133 -0.781,2.531 -0.781,2.531 0,0 1.61,-1.384 1.781,-1.531 -0.041,0.133 -0.781,2.531 -0.781,2.531 0,0 1.61,-1.384 1.781,-1.531 -0.041,0.133 -0.781,2.531 -0.781,2.531 0,0 1.56,-1.332 1.719,-1.469 -0.038,0.123 -0.75,2.438 -0.75,2.438 0,0 1.61,-1.384 1.781,-1.531 -0.041,0.133 -0.781,2.531 -0.781,2.531 0,0 1.61,-1.384 1.781,-1.531 -0.041,0.133 -0.781,2.531 -0.781,2.531 0,0 1.61,-1.384 1.781,-1.531 -0.041,0.133 -0.781,2.531 -0.781,2.531 0,0 1.61,-1.384 1.781,-1.531 -0.041,0.133 -0.781,2.531 -0.781,2.531 0.001,0 1.61,-1.384 1.781,-1.531 -0.041,0.133 -0.781,2.531 -0.781,2.531 0,0 1.559,-1.332 1.719,-1.469 -0.038,0.123 -0.75,2.438 -0.75,2.438 10e-4,0 1.61,-1.384 1.781,-1.531 -0.041,0.133 -0.781,2.531 -0.781,2.531 10e-4,-10e-4 1.61,-1.384 1.781,-1.531 -0.041,0.133 -0.781,2.531 -0.781,2.531 l 1.781,-1.531 c -0.041,0.133 -0.781,2.531 -0.781,2.531 l 1.781,-1.531 c -0.041,0.133 -0.781,2.531 -0.781,2.531 l 1.781,-1.531 -0.781,2.531 1.719,-1.469 c -0.038,0.123 -0.75,2.438 -0.75,2.438 l 1.781,-1.531 c -0.041,0.133 -0.781,2.531 -0.781,2.531 l 1.781,-1.531 c -0.041,0.133 -0.781,2.531 -0.781,2.531 0.001,-0.001 1.609,-1.383 1.781,-1.531 -0.041,0.133 -0.781,2.531 -0.781,2.531 0.001,-0.001 1.609,-1.383 1.781,-1.531 l -0.781,2.531 c 0.001,-0.001 1.609,-1.383 1.781,-1.531 -0.041,0.133 -0.781,2.531 -0.781,2.531 0.001,-0.001 1.609,-1.383 1.781,-1.531 l -0.781,2.531 c 0.001,-0.001 1.559,-1.331 1.719,-1.469 -0.038,0.123 -0.75,2.438 -0.75,2.438 0.001,-0.001 1.609,-1.383 1.781,-1.531 l -0.781,2.531 c 0.001,-0.001 1.609,-1.383 1.781,-1.531 -0.041,0.133 -0.781,2.531 -0.781,2.531 0.001,-0.001 1.609,-1.383 1.781,-1.531 -0.041,0.133 -0.781,2.531 -0.781,2.531 0.001,-0.001 1.609,-1.383 1.781,-1.531 -0.041,0.133 -0.781,2.531 -0.781,2.531 0.001,-0.001 1.609,-1.383 1.781,-1.531 -0.041,0.133 -0.781,2.531 -0.781,2.531 0.001,-0.001 1.559,-1.331 1.719,-1.469 l -0.75,2.438 c 0.001,-0.001 1.609,-1.383 1.781,-1.531 -0.041,0.133 -0.781,2.531 -0.781,2.531 0.001,-0.001 1.609,-1.383 1.781,-1.531 -0.041,0.133 -0.781,2.531 -0.781,2.531 0.001,-0.001 1.609,-1.383 1.781,-1.531 -0.041,0.133 -0.781,2.531 -0.781,2.531 0.001,-0.001 1.609,-1.383 1.781,-1.531 -0.041,0.133 -0.781,2.531 -0.781,2.531 l 1.781,-1.531 c -0.041,0.133 -0.781,2.531 -0.781,2.531 l 1.719,-1.469 c -0.038,0.123 -0.75,2.438 -0.75,2.438 l 1.781,-1.531 c -0.041,0.133 -0.781,2.531 -0.781,2.531 l 1.781,-1.531 c -0.041,0.133 -0.781,2.531 -0.781,2.531 l 1.781,-1.531 c -0.041,0.133 -0.781,2.531 -0.781,2.531 0.002,-0.001 1.609,-1.383 1.781,-1.531 -0.041,0.133 -0.781,2.531 -0.781,2.531 0.002,-0.001 1.609,-1.383 1.781,-1.531 -0.041,0.133 -0.781,2.531 -0.781,2.531 0.002,-0.001 1.609,-1.383 1.781,-1.531 -0.041,0.133 -0.781,2.531 -0.781,2.531 0.002,-0.001 1.559,-1.331 1.719,-1.469 -0.038,0.123 -0.75,2.438 -0.75,2.438 0.002,-10e-4 1.609,-1.383 1.781,-1.531 l -0.781,2.531 c 0.002,-10e-4 1.609,-1.383 1.781,-1.531 -0.041,0.133 -0.781,2.531 -0.781,2.531 0.002,-10e-4 1.609,-1.383 1.781,-1.531 -0.041,0.133 -0.781,2.531 -0.781,2.531 0.002,-0.002 1.609,-1.383 1.781,-1.531 -0.041,0.133 -0.781,2.531 -0.781,2.531 0.002,-0.002 1.609,-1.383 1.781,-1.531 -0.041,0.133 -0.781,2.531 -0.781,2.531 0.002,-0.002 1.558,-1.331 1.719,-1.469 l -0.75,2.438 c 0.002,-0.002 1.609,-1.383 1.781,-1.531 -0.041,0.133 -0.781,2.531 -0.781,2.531 0.002,-0.002 1.608,-1.383 1.781,-1.531 l -0.781,2.531 c 0.002,-0.002 1.608,-1.383 1.781,-1.531 -0.041,0.133 -0.781,2.531 -0.781,2.531 0.002,-0.002 1.608,-1.383 1.781,-1.531 -0.041,0.133 -0.781,2.531 -0.781,2.531 l 1.781,-1.531 c -0.041,0.133 -0.781,2.531 -0.781,2.531 0.002,-0.002 1.558,-1.331 1.719,-1.469 -0.038,0.123 -0.75,2.438 -0.75,2.438 0.002,-0.002 1.608,-1.382 1.781,-1.531 -0.041,0.133 -0.781,2.531 -0.781,2.531 0.002,-0.002 1.608,-1.382 1.781,-1.531 -0.041,0.133 -0.781,2.531 -0.781,2.531 0.002,-0.002 1.608,-1.382 1.781,-1.531 l -0.781,2.531 c 0.002,-0.002 1.608,-1.382 1.781,-1.531 -0.041,0.133 -0.781,2.531 -0.781,2.531 0.002,-0.002 1.608,-1.382 1.781,-1.531 -0.041,0.133 -0.781,2.531 -0.781,2.531 0.002,-0.002 1.558,-1.33 1.719,-1.469 -0.038,0.123 -0.75,2.438 -0.75,2.438 0.002,-0.002 1.608,-1.382 1.781,-1.531 -0.041,0.133 -0.781,2.531 -0.781,2.531 0.002,-0.002 1.608,-1.382 1.781,-1.531 -0.041,0.133 -0.781,2.531 -0.781,2.531 0.002,-0.002 1.608,-1.382 1.781,-1.531 -0.041,0.133 -0.781,2.531 -0.781,2.531 0.002,-0.002 1.608,-1.382 1.781,-1.531 l -0.781,2.531 c 0.002,-0.002 1.608,-1.382 1.781,-1.531 -0.028,0.09 -0.309,1 -0.531,1.719 0.229,-0.003 0.459,0.004 0.688,0 0.401,-0.344 0.762,-0.648 0.844,-0.719 -0.012,0.038 -0.127,0.423 -0.219,0.719 114.84,-2.411 207.92,-93.26 213.91,-207.19 l -0.656,0 c 0.015,-0.079 0.188,-1 0.188,-1 l -1.188,0 c 0.015,-0.079 0.188,-1 0.188,-1 l -1.156,0 c 0.014,-0.074 0.188,-0.969 0.188,-0.969 l -1.188,0 c 0.015,-0.079 0.188,-1 0.188,-1 l -1.188,0 c 0.015,-0.079 0.188,-1 0.188,-1 l -1.188,0 c 0.015,-0.079 0.188,-1 0.188,-1 l -1.188,0 c 0.015,-0.079 0.188,-1 0.188,-1 l -1.188,0 c 0.015,-0.079 0.188,-1 0.188,-1 l -1.156,0 0.188,-0.969 -1.188,0 0.188,-1 -1.188,0 c 0.015,-0.079 0.188,-1 0.188,-1 l -1.188,0 c 0.015,-0.079 0.188,-1 0.188,-1 l -1.188,0 c 0.015,-0.079 0.188,-1 0.188,-1 l -1.188,0 c 0.015,-0.079 0.188,-1 0.188,-1 l -1.188,0 c 0.015,-0.079 0.188,-1 0.188,-1 l -1.156,0 c 0.014,-0.074 0.188,-0.969 0.188,-0.969 l -1.188,0 c 0.015,-0.079 0.188,-1 0.188,-1 l -1.188,0 c 0.015,-0.079 0.188,-1 0.188,-1 l -1.188,0 c 0.015,-0.079 0.188,-1 0.188,-1 l -1.188,0 c 0.015,-0.079 0.188,-1 0.188,-1 l -1.188,0 c 0.015,-0.079 0.188,-1 0.188,-1 l -1.156,0 c 0.014,-0.074 0.188,-0.969 0.188,-0.969 l -1.188,0 c 0.015,-0.079 0.188,-1 0.188,-1 l -1.188,0 c 0.015,-0.079 0.188,-1 0.188,-1 l -1.188,0 c 0.015,-0.079 0.188,-1 0.188,-1 l -1.188,0 c 0.015,-0.079 0.188,-1 0.188,-1 l -1.188,0 c 0.015,-0.079 0.188,-1 0.188,-1 l -1.156,0 c 0.014,-0.074 0.188,-0.969 0.188,-0.969 l -1.188,0 c 0.015,-0.079 0.188,-1 0.188,-1 l -1.188,0 c 0.015,-0.079 0.188,-1 0.188,-1 l -1.188,0 c 0.015,-0.079 0.188,-1 0.188,-1 l -1.188,0 c 0.015,-0.079 0.188,-1 0.188,-1 l -1.188,0 c 0.015,-0.079 0.188,-1 0.188,-1 l -1.156,0 c 0.014,-0.074 0.188,-0.969 0.188,-0.969 l -1.188,0 c 0.015,-0.079 0.188,-1 0.188,-1 l -1.188,0 c 0.015,-0.079 0.188,-1 0.188,-1 l -1.188,0 c 0.015,-0.079 0.188,-1 0.188,-1 l -1.188,0 c 0.015,-0.079 0.188,-1 0.188,-1 l -1.188,0 c 0.015,-0.079 0.188,-1 0.188,-1 l -1.188,0 c 0.015,-0.079 0.188,-1 0.188,-1 l -1.156,0 c 0.014,-0.074 0.188,-0.969 0.188,-0.969 l -1.188,0 c 0.015,-0.079 0.188,-1 0.188,-1 l -1.188,0 c 0.015,-0.079 0.188,-1 0.188,-1 l -1.188,0 c 0.015,-0.079 0.188,-1 0.188,-1 l -1.188,0 c 0.015,-0.079 0.188,-1 0.188,-1 l -1.188,0 c 0.015,-0.079 0.188,-1 0.188,-1 l -1.156,0 c 0.014,-0.074 0.188,-0.969 0.188,-0.969 l -1.188,0 c 0.015,-0.079 0.188,-1 0.188,-1 l -1.188,0 c 0.015,-0.079 0.188,-1 0.188,-1 l -1.188,0 c 0.015,-0.079 0.188,-1 0.188,-1 l -1.188,0 c 0.015,-0.079 0.188,-1 0.188,-1 l -1.188,0 c 0.015,-0.079 0.188,-1 0.188,-1 l -1.156,0 c 0.014,-0.074 0.188,-0.969 0.188,-0.969 l -1.188,0 c 0.015,-0.079 0.188,-1 0.188,-1 l -1.188,0 c 0.015,-0.079 0.188,-1 0.188,-1 l -1.188,0 c 0.015,-0.079 0.188,-1 0.188,-1 l -1.188,0 c 0.015,-0.079 0.188,-1 0.188,-1 l -1.188,0 c 0.015,-0.079 0.188,-1 0.188,-1 l -1.188,0 c 0.015,-0.079 0.188,-1 0.188,-1 l -1.156,0 c 0.014,-0.074 0.188,-0.969 0.188,-0.969 l -1.188,0 c 0.015,-0.079 0.188,-1 0.188,-1 l -1.188,0 c 0.015,-0.079 0.188,-1 0.188,-1 l -1.188,0 c 0.015,-0.079 0.188,-1 0.188,-1 l -1.188,0 c 0.015,-0.079 0.188,-1 0.188,-1 l -1.188,0 c 0.015,-0.079 0.188,-1 0.188,-1 l -1.156,0 c 0.014,-0.074 0.188,-0.969 0.188,-0.969 l -1.188,0 c 0.015,-0.079 0.188,-1 0.188,-1 l -1.188,0 c 0.015,-0.079 0.188,-1 0.188,-1 l -1.188,0 c 0.015,-0.079 0.188,-1 0.188,-1 l -1.188,0 c 0.015,-0.079 0.188,-1 0.188,-1 l -1.188,0 c 0.015,-0.079 0.188,-1 0.188,-1 l -1.156,0 c 0.014,-0.074 0.188,-0.969 0.188,-0.969 l -1.188,0 c 0.015,-0.079 0.188,-1 0.188,-1 l -1.188,0 c 0.015,-0.079 0.188,-1 0.188,-1 l -1.188,0 c 0.015,-0.079 0.188,-1 0.188,-1 l -1.188,0 c 0.015,-0.079 0.188,-1 0.188,-1 l -1.188,0 c 0.015,-0.079 0.188,-1 0.188,-1 l -1.156,0 c 0.014,-0.074 0.188,-0.969 0.188,-0.969 l -1.188,0 c 0.015,-0.079 0.188,-1 0.188,-1 l -1.188,0 c 0.015,-0.079 0.188,-1 0.188,-1 l -1.188,0 0.188,-1 -1.188,0 c 0.015,-0.079 0.188,-1 0.188,-1 l -1.188,0 c 0.015,-0.079 0.188,-1 0.188,-1 l -1.188,0 c 0.015,-0.079 0.188,-1 0.188,-1 l -1.156,0 c 0.014,-0.074 0.188,-0.969 0.188,-0.969 l -1.188,0 c 0.015,-0.079 0.188,-1 0.188,-1 l -1.188,0 c 0.015,-0.079 0.188,-1 0.188,-1 l -1.188,0 c 0.015,-0.079 0.188,-1 0.188,-1 l -1.188,0 c 0.015,-0.079 0.188,-1 0.188,-1 l -1.188,0 c 0.015,-0.079 0.188,-1 0.188,-1 l -1.156,0 c 0.014,-0.074 0.188,-0.969 0.188,-0.969 l -1.188,0 c 0.015,-0.079 0.188,-1 0.188,-1 l -1.188,0 c 0.015,-0.079 0.188,-1 0.188,-1 l -1.188,0 c 0.015,-0.079 0.188,-1 0.188,-1 l -1.188,0 c 0.015,-0.079 0.188,-1 0.188,-1 l -1.188,0 c 0.015,-0.079 0.188,-1 0.188,-1 l -1.156,0 c 0.014,-0.074 0.188,-0.969 0.188,-0.969 l -1.188,0 c 0.015,-0.079 0.188,-1 0.188,-1 l -1.188,0 c 0.015,-0.079 0.188,-1 0.188,-1 l -1.188,0 c 0.015,-0.079 0.188,-1 0.188,-1 l -1.188,0 c 0.015,-0.079 0.188,-1 0.188,-1 l -1.188,0 c 0.015,-0.079 0.188,-1 0.188,-1 l -1.188,0 0.188,-1 -1.156,0 c 0.014,-0.074 0.188,-0.969 0.188,-0.969 l -1.188,0 c 0.015,-0.079 0.188,-1 0.188,-1 l -1.188,0 c 0.015,-0.079 0.188,-1 0.188,-1 l -1.188,0 c 0.015,-0.079 0.188,-1 0.188,-1 l -1.188,0 c 0.015,-0.079 0.188,-1 0.188,-1 l -1.188,0 c 0.015,-0.079 0.188,-1 0.188,-1 l -1.156,0 c 0.014,-0.074 0.188,-0.969 0.188,-0.969 l -1.188,0 c 0.015,-0.079 0.188,-1 0.188,-1 l -1.188,0 c 0.015,-0.079 0.188,-1 0.188,-1 l -1.188,0 c 0.015,-0.079 0.188,-1 0.188,-1 l -1.188,0 c 0.015,-0.079 0.188,-1 0.188,-1 l -1.188,0 c 0.015,-0.079 0.188,-1 0.188,-1 l -1.156,0 c 0.014,-0.074 0.188,-0.969 0.188,-0.969 l -1.188,0 c 0.015,-0.079 0.188,-1 0.188,-1 l -1.188,0 c 0.015,-0.079 0.188,-1 0.188,-1 l -1.188,0 c 0.015,-0.079 0.188,-1 0.188,-1 l -1.188,0 c 0.015,-0.079 0.188,-1 0.188,-1 l -1.188,0 c 0.015,-0.079 0.188,-1 0.188,-1 l -1.156,0 c 0.014,-0.074 0.188,-0.969 0.188,-0.969 l -1.188,0 0.188,-1 -1.188,0 0.188,-1 -1.188,0 0.188,-1 -3.719,-0.063 c -0.005,-0.044 -0.094,-0.75 -0.094,-0.75 0,0 -0.785,0.262 -0.844,0.281 -0.015,-0.127 -0.156,-1.281 -0.156,-1.281 0,0 -0.785,0.262 -0.844,0.281 -0.015,-0.127 -0.156,-1.281 -0.156,-1.281 0,0 -0.758,0.233 -0.813,0.25 -0.014,-0.115 -0.156,-1.219 -0.156,-1.219 0,0 -0.785,0.262 -0.844,0.281 -0.015,-0.127 -0.156,-1.281 -0.156,-1.281 0,0 -0.785,0.262 -0.844,0.281 -0.015,-0.127 -0.156,-1.281 -0.156,-1.281 0,0 -0.785,0.262 -0.844,0.281 -0.015,-0.127 -0.156,-1.281 -0.156,-1.281 0,0 -0.785,0.262 -0.844,0.281 -0.015,-0.127 -0.156,-1.281 -0.156,-1.281 0,0 -0.785,0.262 -0.844,0.281 -0.015,-0.127 -0.156,-1.281 -0.156,-1.281 0,0 -0.759,0.233 -0.813,0.25 -0.014,-0.115 -0.156,-1.219 -0.156,-1.219 0,0 -0.785,0.262 -0.844,0.281 -0.015,-0.127 -0.156,-1.281 -0.156,-1.281 0,0 -0.785,0.262 -0.844,0.281 -0.015,-0.127 -0.156,-1.281 -0.156,-1.281 0,0 -0.785,0.262 -0.844,0.281 -0.015,-0.127 -0.156,-1.281 -0.156,-1.281 0,0 -0.785,0.262 -0.844,0.281 -0.015,-0.127 -0.156,-1.281 -0.156,-1.281 0,0 -0.785,0.262 -0.844,0.281 -0.015,-0.127 -0.156,-1.281 -0.156,-1.281 0,0 -0.759,0.233 -0.813,0.25 -0.014,-0.115 -0.156,-1.219 -0.156,-1.219 0,0 -0.785,0.263 -0.844,0.281 -0.015,-0.127 -0.156,-1.281 -0.156,-1.281 0,0 -0.785,0.263 -0.844,0.281 -0.015,-0.127 -0.156,-1.281 -0.156,-1.281 0,0 -0.785,0.263 -0.844,0.281 -0.015,-0.127 -0.156,-1.281 -0.156,-1.281 0,0 -0.785,0.263 -0.844,0.281 -0.015,-0.127 -0.156,-1.281 -0.156,-1.281 0,0 -0.785,0.263 -0.844,0.281 -0.015,-0.127 -0.156,-1.281 -0.156,-1.281 0,0 -0.759,0.233 -0.813,0.25 -0.014,-0.115 -0.156,-1.219 -0.156,-1.219 0,0 -0.785,0.263 -0.844,0.281 l -0.156,-1.281 -0.844,0.281 -0.156,-1.281 -0.844,0.281 -0.156,-1.281 -14.813,4.625 c -0.016,-0.033 -0.281,-0.625 -0.281,-0.625 0,0 -0.39,0.27 -0.406,0.281 -0.064,-0.138 -0.594,-1.281 -0.594,-1.281 0,0 -0.39,0.27 -0.406,0.281 -0.064,-0.138 -0.594,-1.281 -0.594,-1.281 0,0 -0.39,0.27 -0.406,0.281 -0.064,-0.138 -0.594,-1.281 -0.594,-1.281 0,0 -0.361,0.271 -0.375,0.281 -0.062,-0.133 -0.594,-1.25 -0.594,-1.25 0,0 -0.39,0.27 -0.406,0.281 -0.064,-0.138 -0.594,-1.281 -0.594,-1.281 0,0 -0.39,0.27 -0.406,0.281 -0.064,-0.138 -0.594,-1.281 -0.594,-1.281 0,0 -0.39,0.27 -0.406,0.281 -0.064,-0.138 -0.594,-1.281 -0.594,-1.281 0,0 -0.39,0.27 -0.406,0.281 -0.064,-0.138 -0.594,-1.281 -0.594,-1.281 0,0 -0.39,0.27 -0.406,0.281 -0.064,-0.138 -0.594,-1.281 -0.594,-1.281 0,0 -0.361,0.271 -0.375,0.281 -0.062,-0.133 -0.594,-1.25 -0.594,-1.25 0,0 -0.39,0.27 -0.406,0.281 -0.064,-0.138 -0.594,-1.281 -0.594,-1.281 0,0 -0.39,0.27 -0.406,0.281 -0.064,-0.138 -0.594,-1.281 -0.594,-1.281 0,0 -0.39,0.27 -0.406,0.281 -0.064,-0.138 -0.594,-1.281 -0.594,-1.281 0,0 -0.39,0.27 -0.406,0.281 -0.064,-0.138 -0.594,-1.281 -0.594,-1.281 0,0 -0.39,0.27 -0.406,0.281 -0.064,-0.138 -0.594,-1.281 -0.594,-1.281 0,0 -0.361,0.271 -0.375,0.281 -0.062,-0.133 -0.594,-1.25 -0.594,-1.25 0,0 -0.39,0.27 -0.406,0.281 l -0.594,-1.281 -0.406,0.281 -0.594,-1.281 -0.406,0.281 -0.594,-1.281 -19.406,13.875 c -0.042,-0.045 -0.594,-0.656 -0.594,-0.656 l -0.031,0.031 c -0.104,-0.112 -0.969,-1.031 -0.969,-1.031 l -0.031,0.031 c -0.098,-0.105 -0.938,-1 -0.938,-1 l -0.031,0.031 c -0.104,-0.112 -0.969,-1.031 -0.969,-1.031 l -0.031,0.031 c -0.104,-0.112 -0.969,-1.031 -0.969,-1.031 l -0.031,0.031 c -0.104,-0.112 -0.969,-1.031 -0.969,-1.031 l -0.031,0.031 c -0.104,-0.112 -0.969,-1.031 -0.969,-1.031 l -0.031,0.031 c -0.104,-0.112 -0.969,-1.031 -0.969,-1.031 l -0.031,0.031 c -0.098,-0.105 -0.938,-1 -0.938,-1 l -0.031,0.031 c -0.104,-0.112 -0.969,-1.031 -0.969,-1.031 l -0.031,0.031 c -0.104,-0.112 -0.969,-1.031 -0.969,-1.031 l -0.031,0.031 c -0.104,-0.112 -0.969,-1.031 -0.969,-1.031 l -0.031,0.031 c -0.104,-0.112 -0.969,-1.031 -0.969,-1.031 l -0.031,0.031 c -0.104,-0.112 -0.969,-1.031 -0.969,-1.031 l -0.031,0.031 c -0.098,-0.105 -0.938,-1 -0.938,-1 l -0.031,0.031 -0.969,-1.031 -0.031,0.031 -0.969,-1.031 -0.031,0.031 -0.969,-1.031" />
  <path
     inkscape:connector-curvature="0"
     id="path595"
     d="m 297.03,252.38 -43.19,13.25 6.25,20.406 c 16.04,-0.917 30.621,-7.165 42.03,-17 l -5.094,-16.656 m 7.344,23.938 c -11.766,9.375 -26.29,15.395 -42.16,16.656 l 37.41,121.97 8.156,-43.12 35.16,30.25 -38.563,-125.75"
     style="color:#000000;fill:#ffffff;fill-rule:evenodd" />
  <path
     inkscape:connector-curvature="0"
     id="path597"
     d="m 231.38,252.38 -7.938,25.844 c 9.738,5.057 20.815,7.938 32.563,7.938 4.329,0 8.543,-0.413 12.656,-1.156 l 5.938,-19.375 -43.22,-13.25 m -10.03,32.719 -35.844,116.97 35.16,-30.25 8.125,43.13 37.563,-122.41 c -3.392,0.453 -6.829,0.719 -10.344,0.719 -12.444,0 -24.22,-2.947 -34.656,-8.156"
     style="color:#000000;fill:#ffffff;fill-rule:evenodd" />
  <path
     inkscape:connector-curvature="0"
     d="m 249.19,97.06 -14.656,19.906 -21.625,-12 -7.781,23.438 -24.25,-4.719 -0.156,24.719 -24.531,2.969 7.5,23.563 -22.406,10.438 14.406,20.06 -18.09,16.844 19.906,14.656 -12,21.625 23.438,7.781 -4.719,24.25 24.719,0.156 2.969,24.531 23.563,-7.5 10.438,22.406 20.06,-14.406 16.844,18.09 14.656,-19.906 21.625,12 7.781,-23.438 24.25,4.719 0.156,-24.719 24.531,-2.969 -7.5,-23.563 22.406,-10.438 -14.406,-20.06 18.09,-16.844 -19.906,-14.656 12,-21.625 -23.438,-7.781 4.719,-24.25 -24.719,-0.156 -2.969,-24.531 -23.563,7.5 -10.438,-22.406 -20.06,14.406 -16.844,-18.09 m 4.781,40.625 c 0.667,-0.017 1.361,0 2.031,0 42.915,0 77.78,34.867 77.78,77.78 0,42.915 -34.867,77.78 -77.78,77.78 -42.915,0 -77.78,-34.867 -77.78,-77.78 0,-42.24 33.76,-76.72 75.75,-77.78 m 2.031,7.06 c -39.08,0 -70.69,31.637 -70.69,70.72 0,39.08 31.605,70.69 70.69,70.69 39.08,0 70.69,-31.605 70.69,-70.69 0,-39.08 -31.605,-70.72 -70.69,-70.72"
     id="path599"
     style="fill:#ffffff;fill-rule:evenodd" />
  <path
     inkscape:connector-curvature="0"
     d="m 256,144.75 c -39.08,0 -70.69,31.637 -70.69,70.72 0,39.08 31.605,70.69 70.69,70.69 39.08,0 70.69,-31.605 70.69,-70.69 0,-39.08 -31.605,-70.72 -70.69,-70.72"
     id="path601"
     style="fill:#ffffff;fill-rule:evenodd" />
</svg>
