<?xml version="1.0" encoding="UTF-8" standalone="no"?>
<svg
   xmlns:dc="http://purl.org/dc/elements/1.1/"
   xmlns:cc="http://creativecommons.org/ns#"
   xmlns:rdf="http://www.w3.org/1999/02/22-rdf-syntax-ns#"
   xmlns:svg="http://www.w3.org/2000/svg"
   xmlns="http://www.w3.org/2000/svg"
   xmlns:sodipodi="http://sodipodi.sourceforge.net/DTD/sodipodi-0.dtd"
   xmlns:inkscape="http://www.inkscape.org/namespaces/inkscape"
   version="1.1"
   width="100%"
   height="100%"
   viewBox="0 0 512 512"
   id="svg2"
   inkscape:version="0.91 r13725"
   sodipodi:docname="folder-math.svg">
  <sodipodi:namedview
     pagecolor="#ffffff"
     bordercolor="#666666"
     borderopacity="1"
     objecttolerance="10"
     gridtolerance="10"
     guidetolerance="10"
     inkscape:pageopacity="0"
     inkscape:pageshadow="2"
     inkscape:window-width="640"
     inkscape:window-height="480"
     id="namedview20"
     showgrid="false"
     inkscape:zoom="0.4609375"
     inkscape:cx="257.9196"
     inkscape:cy="237.52316"
     inkscape:window-x="0"
     inkscape:window-y="0"
     inkscape:window-maximized="0"
     inkscape:current-layer="svg2" />
  <metadata
     id="metadata365">
    <rdf:RDF>
      <cc:Work
         rdf:about="">
        <dc:format>image/svg+xml</dc:format>
        <dc:type
           rdf:resource="http://purl.org/dc/dcmitype/StillImage" />
        <dc:title></dc:title>
      </cc:Work>
    </rdf:RDF>
  </metadata>
  <defs
     id="defs4">
    <linearGradient
       y1="121.76"
       x2="0"
       y2="453.26001"
       id="0-9"
       gradientUnits="userSpaceOnUse"
       gradientTransform="translate(0.00121,-0.0195)">
      <stop
         id="stop7-3"
         style="stop-color:#6a6a6a;stop-opacity:1"
         offset="0" />
      <stop
         id="stop9-4"
         style="stop-color:#000000;stop-opacity:1"
         offset="0.47" />
      <stop
         id="stop11-9"
         style="stop-color:#ffffff;stop-opacity:1"
         offset="0.49399999" />
      <stop
         id="stop13-6"
         style="stop-color:#ffffff;stop-opacity:1"
         offset="0.90100002" />
      <stop
         id="stop15-9"
         style="stop-color:#000000;stop-opacity:1"
         offset="0.95499998" />
      <stop
         id="stop17-9"
         style="stop-color:#000000;stop-opacity:1"
         offset="1" />
    </linearGradient>
  </defs>
  <g
     id="g113"
     style="fill-rule:evenodd"
     transform="translate(0.00121,-0.0195)">
    <path
       d="m 108.63,57.39 c -7.963,0 -15.228,2.293 -20.693,6.22 -4.545,3.266 -7.751,7.872 -8.752,13.13 l -11.909,0 c -16.447,0 -29.883,13.03 -29.883,29.2 l 0,66.736 c 0,16.17 13.436,29.19 29.883,29.19 l 377.47,0 c 16.447,0 29.883,-13.03 29.883,-29.19 l 0,-66.736 c 0,-16.17 -13.436,-29.2 -29.883,-29.2 l -262.91,0 c -1,-5.256 -4.208,-9.862 -8.753,-13.13 -5.465,-3.927 -12.73,-6.22 -20.693,-6.22 l -43.761,0"
       id="path115"
       style="fill:#cccccc" />
    <path
       d="m 37.36,118.48 c -19.928,0 -38.06,15.818 -36.23,35.853 l 24.26,265.41 c 1.733,18.966 16.271,34.947 36.2,34.947 l 383.41,0 c 19.933,0 34.1,-16.05 36.2,-34.853 l 29.632,-265.41 c 1.123,-10.05 -3.137,-19.263 -9.971,-25.663 -6.833,-6.399 -16.258,-10.284 -26.22,-10.284 l -437.27,0"
       id="path117"
       style="fill:#85d075" />
  </g>
  <path
     d="m 37.36121,118.4505 c -19.928,0 -38.08,15.84 -36.25,35.875 l 11.781,128.78 12.469,136.63 c 1.733,18.966 16.29,34.938 36.22,34.938 l 383.40999,0 c 19.933,0 34.09,-16.04 36.19,-34.844 l 15.281,-136.72 14.375,-128.69 c 1.123,-10.05 -3.135,-19.287 -9.969,-25.688 -6.833,-6.399 -16.257,-10.281 -26.22,-10.281 l -437.27999,0"
     id="path119"
     style="opacity:0.05;fill:url(#0-9)" />
  <g
     id="g121"
     style="fill:#ffffff;fill-rule:evenodd"
     transform="translate(0.00121,-0.0195)">
    <path
       d="m 37.35,118.47 c -6.165,0 -12.154,1.503 -17.438,4.188 l 332.06,332.03 28.25,0 -336.19,-336.22 -6.688,0 m 34.969,0 336.22,336.22 28.28,0 -336.22,-336.22 -28.28,0 m 56.59,0 332.25,332.28 c 5.997,-3.165 10.884,-8.06 14.375,-13.938 l -318.37,-318.34 -28.25,0 m 56.56,0 296.28,296.31 2.844,-25.469 -270.87,-270.84 -28.25,0 m 56.56,0 245.41,245.44 2.844,-25.469 -220,-219.97 -28.25,0 m 56.56,0 194.53,194.53 2.844,-25.438 -169.12,-169.09 -28.25,0 m 56.56,0 143.63,143.63 2.844,-25.438 -118.19,-118.19 -28.28,0 m 56.56,0 92.75,92.75 2.844,-25.438 -67.28,-67.31 -28.313,0 m 56.59,0 41.844,41.844 0.656,-5.875 c 1.123,-10.05 -3.134,-19.288 -9.969,-25.688 -6.833,-6.399 -16.252,-10.281 -26.22,-10.281 l -6.313,0 M 5.253,136.259 c -3.108,5.286 -4.73,11.464 -4.125,18.09 l 0.625,6.719 293.66,293.63 28.25,0 -318.41,-318.44 m -0.656,55.906 2.844,31.13 231.41,231.41 28.25,0 -262.5,-262.53 m 5.688,62.25 2.844,31.13 169.16,169.16 28.25,0 -200.25,-200.28 m 5.688,62.28 2.844,31.13 106.88,106.88 28.28,0 -138,-138 m 5.688,62.25 2.844,31.13 44.625,44.625 28.28,0 -75.75,-75.75"
       id="path123"
       style="opacity:0" />
    <path
       d="m 108.55,57.31 c -7.963,0 -15.11,2.403 -20.572,6.33 -4.545,3.266 -7.702,7.931 -8.703,13.187 l -12.13,0 c -17.677,0 -29.802,12.771 -29.802,30.661 l 0,3.956 c 0,-16.17 13.355,-29.27 29.802,-29.27 l 14.286,0 c 1,-5.256 2,-9.657 6.549,-12.923 5.465,-3.927 12.609,-6.33 20.572,-6.33 l 43.78,0 c 7.963,0 15.371,2.403 20.835,6.33 4.545,3.266 5.766,7.668 6.769,12.923 l 264.88,0 c 16.447,0 29.802,11.455 29.802,27.625 l 0,-3.956 c 0,-16.17 -13.355,-29.01 -29.802,-29.01 l -262.95,0 c -1,-5.256 -4.159,-9.921 -8.703,-13.187 -5.465,-3.927 -12.872,-6.33 -20.835,-6.33 z"
       id="path125"
       style="opacity:0.76399997" />
    <path
       d="m 37.35,118.47 c -19.928,0 -38.05,15.84 -36.22,35.875 l 0.406,4.375 c 3,-15.936 18.732,-27.563 35.813,-27.563 l 437.28,0 c 9.966,0 19.386,3.882 26.22,10.281 4.736,4.435 8.234,10.208 9.563,16.688 l 0.406,-3.688 c 1.123,-10.05 -3.134,-19.288 -9.969,-25.688 -6.833,-6.399 -16.252,-10.281 -26.22,-10.281 l -437.28,0"
       id="path127"
       style="opacity:0.4" />
  </g>
  <path
     inkscape:connector-curvature="0"
     d="m 216.08121,171.9375 c -21.583,0.765 -35.573,1.879 -46.551,6.098 -10.977,4.218 -18.09,12.1 -23.934,23.24 l 17.34,17.34 c -0.01,0.008 -0.021,0.015 -0.031,0.023 l -17.336,-17.336 -17.783,34.383 9.687,9.688 -4.504,-0.34 55.34,55.34 c -5.627,19.502 -14.186,40.722 -28.479,65.781 l 32.33,32.33 c -0.254,0.144 -0.509,0.281 -0.766,0.416 l -31.943,-31.943 c -3.02,7.591 -3.33,14.78 -1.156,20.732 1.097,3.01 2.821,5.624 4.951,7.754 l 59.59,59.59 222.15,0 c 19.933,0 34.09,-16.04 36.19,-34.846 l 14.635,-130.94 -110.88,-110.88 -6.42,-6.42 -162.2,0 38.67,38.67 -0.223,0 -38.682,-38.682"
     style="color:#000000;opacity:0.25"
     id="path519" />
  <path
     inkscape:connector-curvature="0"
     d="m 216.08121,171.9375 c -21.583,0.765 -35.575,1.879 -46.552,6.097 -10.977,4.218 -18.09,12.1 -23.934,23.24 a 6.417492,6.417492 0 0 0 -0.0269,0.0268 l -17.783,34.384 a 6.417492,6.417492 0 0 0 5.18435,9.34793 l 6.071,0.457 a 6.417492,6.417492 0 0 0 6.12451,-3.30401 c 6.243,-11.45 12.311,-19.498 19.02,-24.552 6.665,-5.02 14.03,-7.463 24.445,-7.495 l 0.188,0 15.419,0.403 c -8.777,50.79 -7.04,90.1 -44.4,155.61 a 6.417492,6.417492 0 0 0 -0.37607,0.80587 c -3.02,7.591 -3.33,14.781 -1.155,20.733 2.17,5.956 6.791,10.352 12.169,12.545 10.755,4.383 24.702,0.305 32.26,-12.141 a 6.417492,6.417492 0 0 0 0.29548,-0.5641 c 15.704,-32.924 23.966,-95.43 29.06,-176.91 l 52.33,0 -8.542,133.75 a 6.417492,6.417492 0 0 0 0,0.26861 c -0.424,19.827 4.411,34.772 13.243,44.515 8.831,9.733 21.492,13.57 34.06,11.978 25.14,-3.18 50.858,-26.18 60.843,-63.07 a 6.417492,6.417492 0 0 0 -6.20509,-8.11229 l -6.04,0 a 6.417492,6.417492 0 0 0 -5.69471,3.43833 c -8.853,16.81 -17.435,26.511 -24.2,30.811 -6.771,4.298 -10.975,3.959 -15.365,1.263 -4.39,-2.697 -8.926,-9.02 -11.873,-18.11 -2.946,-9.07 -4.34,-20.679 -3.492,-33.09 10e-4,-0.009 -0.001,-0.017 0,-0.027 l 7.495,-103.23 59.953,-0.859 a 6.417492,6.417492 0 0 0 6.33941,-6.41999 l 0,-25.358 a 6.417492,6.417492 0 0 0 -6.42003,-6.41998 l -162.2,0 a 6.417492,6.417492 0 0 0 -0.24175,0"
     style="color:#000000;fill:#ffffff"
     id="path521" />
</svg>
