<?xml version="1.0" encoding="UTF-8" standalone="no"?>
<svg
   xmlns:dc="http://purl.org/dc/elements/1.1/"
   xmlns:cc="http://creativecommons.org/ns#"
   xmlns:rdf="http://www.w3.org/1999/02/22-rdf-syntax-ns#"
   xmlns:svg="http://www.w3.org/2000/svg"
   xmlns="http://www.w3.org/2000/svg"
   xmlns:sodipodi="http://sodipodi.sourceforge.net/DTD/sodipodi-0.dtd"
   xmlns:inkscape="http://www.inkscape.org/namespaces/inkscape"
   version="1.1"
   width="100%"
   height="100%"
   viewBox="0 0 512 512"
   id="svg2"
   inkscape:version="0.91 r13725"
   sodipodi:docname="folder-open.svg">
  <sodipodi:namedview
     pagecolor="#ffffff"
     bordercolor="#666666"
     borderopacity="1"
     objecttolerance="10"
     gridtolerance="10"
     guidetolerance="10"
     inkscape:pageopacity="0"
     inkscape:pageshadow="2"
     inkscape:window-width="640"
     inkscape:window-height="480"
     id="namedview20"
     showgrid="false"
     inkscape:zoom="0.4609375"
     inkscape:cx="256"
     inkscape:cy="256"
     inkscape:window-x="644"
     inkscape:window-y="0"
     inkscape:window-maximized="0"
     inkscape:current-layer="svg2" />
  <metadata
     id="metadata365">
    <rdf:RDF>
      <cc:Work
         rdf:about="">
        <dc:format>image/svg+xml</dc:format>
        <dc:type
           rdf:resource="http://purl.org/dc/dcmitype/StillImage" />
        <dc:title></dc:title>
      </cc:Work>
    </rdf:RDF>
  </metadata>
  <defs
     id="defs4">
    <linearGradient
       y1="121.76"
       x2="0"
       y2="453.26001"
       id="0-9"
       gradientUnits="userSpaceOnUse"
       gradientTransform="matrix(1,0,0,0.74189852,0.00121,117.33745)">
      <stop
         id="stop7-3"
         style="stop-color:#6a6a6a;stop-opacity:1"
         offset="0" />
      <stop
         id="stop9-4"
         style="stop-color:#000000;stop-opacity:1"
         offset="0.47" />
      <stop
         id="stop11-9"
         style="stop-color:#ffffff;stop-opacity:1"
         offset="0.49399999" />
      <stop
         id="stop13-6"
         style="stop-color:#ffffff;stop-opacity:1"
         offset="0.90100002" />
      <stop
         id="stop15-9"
         style="stop-color:#000000;stop-opacity:1"
         offset="0.95499998" />
      <stop
         id="stop17-9"
         style="stop-color:#000000;stop-opacity:1"
         offset="1" />
    </linearGradient>
  </defs>
  <path
     inkscape:connector-curvature="0"
     d="m 108.62333,57.3655 c -7.963,0 -15.223,2.323 -20.688,6.25 -4.545,3.266 -7.749,7.867 -8.75,13.13 l -11.906,0 c -16.447,0 -29.875,13.02 -29.875,29.19 l 0,66.75 c 0,0.505 0.005,1 0.031,1.5 -10e-4,0.011 10e-4,0.021 0,0.031 -0.026,0.499 -0.031,1.026 -0.031,1.531 l 0,66.72 c 0,16.17 13.428,29.22 29.875,29.22 l 377.47,0 c 16.447,0 29.875,-13.05 29.875,-29.22 l 0,-66.72 c 0,-0.505 -0.005,-1.032 -0.031,-1.531 0.001,-0.011 -10e-4,-0.021 0,-0.031 0.026,-0.499 0.031,-0.995 0.031,-1.5 l 0,-66.75 c 0,-16.17 -13.428,-29.19 -29.875,-29.19 l -262.91,0 c -1,-5.255 -4.205,-9.857 -8.75,-13.12 -5.465,-3.927 -12.756,-6.25 -20.719,-6.25 l -43.75,0"
     id="path349"
     style="fill:#cccccc;fill-rule:evenodd" />
  <g
     id="g113"
     style="fill-rule:evenodd"
     transform="matrix(1,0,0,0.7324312,0.00121,121.64136)">
    <path
       d="m 108.63,57.39 c -7.963,0 -15.228,2.293 -20.693,6.22 -4.545,3.266 -7.751,7.872 -8.752,13.13 l -11.909,0 c -16.447,0 -29.883,13.03 -29.883,29.2 l 0,66.736 c 0,16.17 13.436,29.19 29.883,29.19 l 377.47,0 c 16.447,0 29.883,-13.03 29.883,-29.19 l 0,-66.736 c 0,-16.17 -13.436,-29.2 -29.883,-29.2 l -262.91,0 c -1,-5.256 -4.208,-9.862 -8.753,-13.13 -5.465,-3.927 -12.73,-6.22 -20.693,-6.22 l -43.761,0"
       id="path115"
       style="fill:#cccccc"
       inkscape:connector-curvature="0" />
    <path
       d="m 37.36,118.48 c -19.928,0 -38.06,15.818 -36.23,35.853 l 24.26,265.41 c 1.733,18.966 16.271,34.947 36.2,34.947 l 383.41,0 c 19.933,0 34.1,-16.05 36.2,-34.853 l 29.632,-265.41 c 1.123,-10.05 -3.137,-19.263 -9.971,-25.663 -6.833,-6.399 -16.258,-10.284 -26.22,-10.284 l -437.27,0"
       id="path117"
       style="fill:#85d075"
       inkscape:connector-curvature="0" />
  </g>
  <path
     d="m 37.36121,205.23016 c -19.928,0 -38.08,11.75166 -36.25,26.61561 l 11.781,95.54168 12.469,101.36559 c 1.733,14.07087 16.29,25.92046 36.22,25.92046 l 383.40999,0 c 19.933,0 34.09,-11.90005 36.19,-25.8507 l 15.281,-101.43237 14.375,-95.47492 c 1.123,-7.45608 -3.135,-14.30901 -9.969,-19.05788 -6.833,-4.74741 -16.257,-7.62747 -26.22,-7.62747 l -437.27999,0"
     id="path119"
     style="opacity:0.05;fill:url(#0-9)"
     inkscape:connector-curvature="0" />
  <path
     style="opacity:0.4;fill:#ffffff;fill-rule:evenodd"
     id="path127-3"
     d="m 37.3512,207.39965 c -19.928,0 -38.04999999,15.84 -36.22,35.875 l 0.406,4.375 c 3,-15.936 18.732,-27.563 35.813,-27.563 l 437.28,0 c 9.966,0 19.386,3.882 26.22,10.281 4.736,4.435 8.234,10.208 9.563,16.688 l 0.406,-3.688 c 1.123,-10.05 -3.134,-19.288 -9.969,-25.688 -6.833,-6.399 -16.252,-10.281 -26.22,-10.281 l -437.28,0"
     inkscape:connector-curvature="0" />
</svg>
