<?xml version="1.0" encoding="UTF-8" standalone="no"?>
<svg
   xmlns:dc="http://purl.org/dc/elements/1.1/"
   xmlns:cc="http://creativecommons.org/ns#"
   xmlns:rdf="http://www.w3.org/1999/02/22-rdf-syntax-ns#"
   xmlns:svg="http://www.w3.org/2000/svg"
   xmlns="http://www.w3.org/2000/svg"
   xmlns:sodipodi="http://sodipodi.sourceforge.net/DTD/sodipodi-0.dtd"
   xmlns:inkscape="http://www.inkscape.org/namespaces/inkscape"
   version="1.1"
   width="100%"
   height="100%"
   viewBox="0 0 512 512"
   id="svg2"
   inkscape:version="0.91 r13725"
   sodipodi:docname="folder-musics.svg">
  <sodipodi:namedview
     pagecolor="#ffffff"
     bordercolor="#666666"
     borderopacity="1"
     objecttolerance="10"
     gridtolerance="10"
     guidetolerance="10"
     inkscape:pageopacity="0"
     inkscape:pageshadow="2"
     inkscape:window-width="640"
     inkscape:window-height="480"
     id="namedview20"
     showgrid="false"
     inkscape:zoom="0.4609375"
     inkscape:cx="257.9196"
     inkscape:cy="237.52316"
     inkscape:window-x="0"
     inkscape:window-y="0"
     inkscape:window-maximized="0"
     inkscape:current-layer="svg2" />
  <metadata
     id="metadata365">
    <rdf:RDF>
      <cc:Work
         rdf:about="">
        <dc:format>image/svg+xml</dc:format>
        <dc:type
           rdf:resource="http://purl.org/dc/dcmitype/StillImage" />
        <dc:title></dc:title>
      </cc:Work>
    </rdf:RDF>
  </metadata>
  <defs
     id="defs4">
    <linearGradient
       y1="121.76"
       x2="0"
       y2="453.26001"
       id="0-9"
       gradientUnits="userSpaceOnUse"
       gradientTransform="translate(0.00121,-0.0195)">
      <stop
         id="stop7-3"
         style="stop-color:#6a6a6a;stop-opacity:1"
         offset="0" />
      <stop
         id="stop9-4"
         style="stop-color:#000000;stop-opacity:1"
         offset="0.47" />
      <stop
         id="stop11-9"
         style="stop-color:#ffffff;stop-opacity:1"
         offset="0.49399999" />
      <stop
         id="stop13-6"
         style="stop-color:#ffffff;stop-opacity:1"
         offset="0.90100002" />
      <stop
         id="stop15-9"
         style="stop-color:#000000;stop-opacity:1"
         offset="0.95499998" />
      <stop
         id="stop17-9"
         style="stop-color:#000000;stop-opacity:1"
         offset="1" />
    </linearGradient>
  </defs>
  <g
     id="g113"
     style="fill-rule:evenodd"
     transform="translate(0.00121,-0.0195)">
    <path
       d="m 108.63,57.39 c -7.963,0 -15.228,2.293 -20.693,6.22 -4.545,3.266 -7.751,7.872 -8.752,13.13 l -11.909,0 c -16.447,0 -29.883,13.03 -29.883,29.2 l 0,66.736 c 0,16.17 13.436,29.19 29.883,29.19 l 377.47,0 c 16.447,0 29.883,-13.03 29.883,-29.19 l 0,-66.736 c 0,-16.17 -13.436,-29.2 -29.883,-29.2 l -262.91,0 c -1,-5.256 -4.208,-9.862 -8.753,-13.13 -5.465,-3.927 -12.73,-6.22 -20.693,-6.22 l -43.761,0"
       id="path115"
       style="fill:#cccccc" />
    <path
       d="m 37.36,118.48 c -19.928,0 -38.06,15.818 -36.23,35.853 l 24.26,265.41 c 1.733,18.966 16.271,34.947 36.2,34.947 l 383.41,0 c 19.933,0 34.1,-16.05 36.2,-34.853 l 29.632,-265.41 c 1.123,-10.05 -3.137,-19.263 -9.971,-25.663 -6.833,-6.399 -16.258,-10.284 -26.22,-10.284 l -437.27,0"
       id="path117"
       style="fill:#85d075" />
  </g>
  <path
     d="m 37.36121,118.4505 c -19.928,0 -38.08,15.84 -36.25,35.875 l 11.781,128.78 12.469,136.63 c 1.733,18.966 16.29,34.938 36.22,34.938 l 383.40999,0 c 19.933,0 34.09,-16.04 36.19,-34.844 l 15.281,-136.72 14.375,-128.69 c 1.123,-10.05 -3.135,-19.287 -9.969,-25.688 -6.833,-6.399 -16.257,-10.281 -26.22,-10.281 l -437.27999,0"
     id="path119"
     style="opacity:0.05;fill:url(#0-9)" />
  <g
     id="g121"
     style="fill:#ffffff;fill-rule:evenodd"
     transform="translate(0.00121,-0.0195)">
    <path
       d="m 37.35,118.47 c -6.165,0 -12.154,1.503 -17.438,4.188 l 332.06,332.03 28.25,0 -336.19,-336.22 -6.688,0 m 34.969,0 336.22,336.22 28.28,0 -336.22,-336.22 -28.28,0 m 56.59,0 332.25,332.28 c 5.997,-3.165 10.884,-8.06 14.375,-13.938 l -318.37,-318.34 -28.25,0 m 56.56,0 296.28,296.31 2.844,-25.469 -270.87,-270.84 -28.25,0 m 56.56,0 245.41,245.44 2.844,-25.469 -220,-219.97 -28.25,0 m 56.56,0 194.53,194.53 2.844,-25.438 -169.12,-169.09 -28.25,0 m 56.56,0 143.63,143.63 2.844,-25.438 -118.19,-118.19 -28.28,0 m 56.56,0 92.75,92.75 2.844,-25.438 -67.28,-67.31 -28.313,0 m 56.59,0 41.844,41.844 0.656,-5.875 c 1.123,-10.05 -3.134,-19.288 -9.969,-25.688 -6.833,-6.399 -16.252,-10.281 -26.22,-10.281 l -6.313,0 M 5.253,136.259 c -3.108,5.286 -4.73,11.464 -4.125,18.09 l 0.625,6.719 293.66,293.63 28.25,0 -318.41,-318.44 m -0.656,55.906 2.844,31.13 231.41,231.41 28.25,0 -262.5,-262.53 m 5.688,62.25 2.844,31.13 169.16,169.16 28.25,0 -200.25,-200.28 m 5.688,62.28 2.844,31.13 106.88,106.88 28.28,0 -138,-138 m 5.688,62.25 2.844,31.13 44.625,44.625 28.28,0 -75.75,-75.75"
       id="path123"
       style="opacity:0" />
    <path
       d="m 108.55,57.31 c -7.963,0 -15.11,2.403 -20.572,6.33 -4.545,3.266 -7.702,7.931 -8.703,13.187 l -12.13,0 c -17.677,0 -29.802,12.771 -29.802,30.661 l 0,3.956 c 0,-16.17 13.355,-29.27 29.802,-29.27 l 14.286,0 c 1,-5.256 2,-9.657 6.549,-12.923 5.465,-3.927 12.609,-6.33 20.572,-6.33 l 43.78,0 c 7.963,0 15.371,2.403 20.835,6.33 4.545,3.266 5.766,7.668 6.769,12.923 l 264.88,0 c 16.447,0 29.802,11.455 29.802,27.625 l 0,-3.956 c 0,-16.17 -13.355,-29.01 -29.802,-29.01 l -262.95,0 c -1,-5.256 -4.159,-9.921 -8.703,-13.187 -5.465,-3.927 -12.872,-6.33 -20.835,-6.33 z"
       id="path125"
       style="opacity:0.76399997" />
    <path
       d="m 37.35,118.47 c -19.928,0 -38.05,15.84 -36.22,35.875 l 0.406,4.375 c 3,-15.936 18.732,-27.563 35.813,-27.563 l 437.28,0 c 9.966,0 19.386,3.882 26.22,10.281 4.736,4.435 8.234,10.208 9.563,16.688 l 0.406,-3.688 c 1.123,-10.05 -3.134,-19.288 -9.969,-25.688 -6.833,-6.399 -16.252,-10.281 -26.22,-10.281 l -437.28,0"
       id="path127"
       style="opacity:0.4" />
  </g>
  <path
     inkscape:connector-curvature="0"
     style="fill-opacity:0.23500001"
     id="path459"
     d="m 292.5612,161.5905 c -6.204,0.056 -12.334,2.197 -16.844,5.5 -2.453,1.754 -4.478,3.728 -6.125,5.875 -1.196,1.612 -2.205,2.682 -3.531,4.75 -5.503,8.03 -8.07,16.15 -9.313,24.313 -1.187,8.05 -1.208,15.749 -0.844,23.13 l 0.188,4.156 c -10.573,5.394 -21.783,10.987 -32.469,17.781 -6.994,4.419 -13.92,9.359 -20.281,15.5 -6.327,6.071 -12.13,13.583 -15.438,22.438 -3.311,8.878 -4.02,18.324 -2.031,27.375 1.612,8.217 5.236,16.741 10.531,24.13 2.143,3.049 4.587,5.863 7.25,8.469 0.328,0.336 0.664,0.671 1,1 0.31,0.317 0.621,0.627 0.938,0.938 0.262,0.268 0.515,0.549 0.781,0.813 0.461,0.476 0.931,0.944 1.406,1.406 0.263,0.267 0.545,0.519 0.813,0.781 0.339,0.348 0.684,0.691 1.031,1.031 0.328,0.336 0.664,0.671 1,1 0.331,0.338 0.662,0.669 1,1 0.31,0.317 0.621,0.627 0.938,0.938 0.329,0.337 0.663,0.67 1,1 0.329,0.337 0.663,0.67 1,1 0.329,0.337 0.663,0.67 1,1 0.339,0.348 0.684,0.691 1.031,1.031 0.355,0.363 0.699,0.739 1.063,1.094 0.274,0.279 0.564,0.538 0.844,0.813 0.272,0.279 0.536,0.57 0.813,0.844 0.461,0.476 0.931,0.944 1.406,1.406 0.263,0.267 0.545,0.519 0.813,0.781 0.339,0.348 0.684,0.691 1.031,1.031 0.355,0.363 0.699,0.739 1.063,1.094 0.274,0.279 0.564,0.538 0.844,0.813 0.272,0.279 0.536,0.57 0.813,0.844 0.461,0.476 0.931,0.944 1.406,1.406 0.253,0.257 0.524,0.498 0.781,0.75 0.431,0.442 0.868,0.883 1.313,1.313 -1.39,0.798 -2.592,1.905 -3.375,3.344 -1.031,1.895 -2.137,3.704 -2.813,5.906 -0.789,2.052 -1.221,4.453 -1.281,6.844 -0.217,4.828 1.562,9.96 4.656,13.781 0.767,0.969 1.593,1.856 2.469,2.688 0.326,0.345 0.658,0.675 1,1 0.383,0.405 0.783,0.779 1.188,1.156 0.3,0.312 0.593,0.643 0.906,0.938 0.338,0.354 0.677,0.699 1.031,1.031 0.367,0.382 0.739,0.768 1.125,1.125 0.238,0.244 0.473,0.485 0.719,0.719 0.326,0.345 0.658,0.675 1,1 0.383,0.405 0.783,0.779 1.188,1.156 0.3,0.312 0.593,0.643 0.906,0.938 0.338,0.354 0.677,0.699 1.031,1.031 0.367,0.382 0.739,0.768 1.125,1.125 0.238,0.244 0.473,0.485 0.719,0.719 0.326,0.345 0.658,0.675 1,1 0.326,0.345 0.658,0.675 1,1 0.353,0.373 0.723,0.744 1.094,1.094 0.374,0.391 0.762,0.76 1.156,1.125 0.305,0.314 0.588,0.641 0.906,0.938 0.358,0.371 0.718,0.747 1.094,1.094 0.238,0.244 0.473,0.485 0.719,0.719 0.326,0.345 0.658,0.675 1,1 0.383,0.405 0.783,0.779 1.188,1.156 0.3,0.312 0.593,0.643 0.906,0.938 0.349,0.365 0.696,0.721 1.063,1.063 0.358,0.371 0.718,0.747 1.094,1.094 0.238,0.244 0.473,0.485 0.719,0.719 0.326,0.345 0.658,0.675 1,1 0.383,0.405 0.783,0.779 1.188,1.156 0.3,0.312 0.593,0.643 0.906,0.938 0.338,0.354 0.677,0.699 1.031,1.031 0.367,0.382 0.739,0.768 1.125,1.125 0.238,0.244 0.473,0.485 0.719,0.719 0.326,0.345 0.658,0.675 1,1 0.383,0.405 0.783,0.779 1.188,1.156 0.3,0.312 0.593,0.643 0.906,0.938 0.338,0.354 0.677,0.699 1.031,1.031 0.336,0.35 0.679,0.703 1.031,1.031 0.358,0.371 0.718,0.747 1.094,1.094 0.238,0.244 0.473,0.485 0.719,0.719 0.326,0.345 0.658,0.675 1,1 0.379,0.401 0.788,0.783 1.188,1.156 0.3,0.312 0.593,0.643 0.906,0.938 0.349,0.365 0.696,0.721 1.063,1.063 0.358,0.371 0.718,0.747 1.094,1.094 0.238,0.244 0.473,0.485 0.719,0.719 0.326,0.345 0.658,0.675 1,1 0.383,0.405 0.783,0.779 1.188,1.156 0.3,0.312 0.593,0.643 0.906,0.938 0.338,0.354 0.677,0.699 1.031,1.031 0.367,0.382 0.739,0.768 1.125,1.125 0.238,0.244 0.473,0.485 0.719,0.719 0.326,0.345 0.658,0.675 1,1 0.383,0.405 0.783,0.779 1.188,1.156 0.031,0.032 0.063,0.062 0.094,0.094 l 164.53,0 c 19.933,0 34.09,-16.04 36.19,-34.844 l 8.281,-74.19 c -0.197,-0.199 -0.391,-0.4 -0.594,-0.594 -0.324,-0.338 -0.658,-0.674 -1,-1 -0.245,-0.256 -0.494,-0.501 -0.75,-0.75 -0.317,-0.339 -0.665,-0.642 -1,-0.969 -0.31,-0.331 -0.642,-0.65 -0.969,-0.969 -0.405,-0.434 -0.815,-0.867 -1.25,-1.281 -0.324,-0.338 -0.658,-0.674 -1,-1 -0.324,-0.338 -0.658,-0.674 -1,-1 -0.245,-0.256 -0.494,-0.501 -0.75,-0.75 -0.317,-0.339 -0.665,-0.642 -1,-0.969 -0.31,-0.331 -0.642,-0.65 -0.969,-0.969 -0.328,-0.352 -0.684,-0.693 -1.031,-1.031 -0.395,-0.422 -0.796,-0.847 -1.219,-1.25 -0.324,-0.338 -0.658,-0.674 -1,-1 -0.324,-0.338 -0.658,-0.674 -1,-1 -0.189,-0.198 -0.398,-0.369 -0.594,-0.563 -0.055,-0.049 -0.101,-0.107 -0.156,-0.156 -0.31,-0.331 -0.642,-0.65 -0.969,-0.969 -0.328,-0.352 -0.684,-0.693 -1.031,-1.031 -0.395,-0.422 -0.796,-0.847 -1.219,-1.25 -0.324,-0.338 -0.658,-0.674 -1,-1 -0.324,-0.338 -0.658,-0.674 -1,-1 -0.245,-0.256 -0.494,-0.501 -0.75,-0.75 -0.317,-0.339 -0.665,-0.642 -1,-0.969 -0.31,-0.331 -0.642,-0.65 -0.969,-0.969 -0.405,-0.434 -0.815,-0.867 -1.25,-1.281 -0.324,-0.338 -0.658,-0.674 -1,-1 -0.324,-0.338 -0.658,-0.674 -1,-1 -0.245,-0.256 -0.494,-0.501 -0.75,-0.75 -0.317,-0.339 -0.665,-0.642 -1,-0.969 -0.31,-0.331 -0.642,-0.65 -0.969,-0.969 -0.405,-0.434 -0.815,-0.867 -1.25,-1.281 -0.324,-0.338 -0.658,-0.674 -1,-1 -0.324,-0.338 -0.658,-0.674 -1,-1 -0.324,-0.338 -0.658,-0.674 -1,-1 -0.189,-0.198 -0.398,-0.369 -0.594,-0.563 -0.055,-0.049 -0.101,-0.107 -0.156,-0.156 -0.31,-0.331 -0.642,-0.65 -0.969,-0.969 -0.328,-0.352 -0.684,-0.693 -1.031,-1.031 -0.395,-0.422 -0.796,-0.847 -1.219,-1.25 -0.324,-0.338 -0.658,-0.674 -1,-1 -0.324,-0.338 -0.658,-0.674 -1,-1 -0.189,-0.198 -0.398,-0.369 -0.594,-0.563 -0.055,-0.049 -0.101,-0.107 -0.156,-0.156 -0.31,-0.331 -0.642,-0.65 -0.969,-0.969 -0.328,-0.352 -0.684,-0.693 -1.031,-1.031 -0.395,-0.422 -0.796,-0.847 -1.219,-1.25 -0.324,-0.338 -0.658,-0.674 -1,-1 -0.324,-0.338 -0.658,-0.674 -1,-1 -0.245,-0.256 -0.494,-0.501 -0.75,-0.75 -0.317,-0.339 -0.665,-0.642 -1,-0.969 -0.31,-0.331 -0.642,-0.65 -0.969,-0.969 -0.405,-0.434 -0.815,-0.867 -1.25,-1.281 -0.324,-0.338 -0.658,-0.674 -1,-1 -0.324,-0.338 -0.658,-0.674 -1,-1 -0.245,-0.256 -0.494,-0.501 -0.75,-0.75 -0.317,-0.339 -0.665,-0.642 -1,-0.969 -0.31,-0.331 -0.642,-0.65 -0.969,-0.969 -0.328,-0.352 -0.684,-0.693 -1.031,-1.031 -0.395,-0.422 -0.796,-0.847 -1.219,-1.25 -0.324,-0.338 -0.658,-0.674 -1,-1 -0.324,-0.338 -0.658,-0.674 -1,-1 -0.189,-0.198 -0.398,-0.369 -0.594,-0.563 -0.055,-0.049 -0.101,-0.107 -0.156,-0.156 -0.31,-0.331 -0.642,-0.65 -0.969,-0.969 -0.328,-0.352 -0.684,-0.693 -1.031,-1.031 -0.395,-0.422 -0.796,-0.847 -1.219,-1.25 -0.324,-0.338 -0.658,-0.674 -1,-1 -0.324,-0.338 -0.658,-0.674 -1,-1 -0.189,-0.198 -0.398,-0.369 -0.594,-0.563 -0.054,-0.049 -0.102,-0.108 -0.156,-0.156 -0.319,-0.341 -0.662,-0.671 -1,-1 -0.319,-0.341 -0.662,-0.671 -1,-1 -0.395,-0.422 -0.796,-0.847 -1.219,-1.25 -0.324,-0.338 -0.658,-0.674 -1,-1 -0.324,-0.338 -0.658,-0.674 -1,-1 -0.245,-0.256 -0.494,-0.501 -0.75,-0.75 -0.317,-0.339 -0.665,-0.642 -1,-0.969 -0.31,-0.331 -0.642,-0.65 -0.969,-0.969 -0.405,-0.434 -0.815,-0.867 -1.25,-1.281 -0.324,-0.338 -0.658,-0.674 -1,-1 -0.324,-0.338 -0.658,-0.674 -1,-1 -0.245,-0.256 -0.494,-0.501 -0.75,-0.75 -0.317,-0.339 -0.665,-0.642 -1,-0.969 -0.31,-0.331 -0.642,-0.65 -0.969,-0.969 -0.328,-0.352 -0.684,-0.693 -1.031,-1.031 -0.395,-0.422 -0.796,-0.847 -1.219,-1.25 -0.324,-0.338 -0.658,-0.674 -1,-1 -0.324,-0.338 -0.658,-0.674 -1,-1 -0.189,-0.198 -0.398,-0.369 -0.594,-0.563 -0.055,-0.049 -0.101,-0.107 -0.156,-0.156 -0.31,-0.331 -0.642,-0.65 -0.969,-0.969 -0.328,-0.352 -0.684,-0.693 -1.031,-1.031 -0.395,-0.422 -0.796,-0.847 -1.219,-1.25 -0.324,-0.338 -0.658,-0.674 -1,-1 -0.324,-0.338 -0.658,-0.674 -1,-1 -0.245,-0.256 -0.494,-0.501 -0.75,-0.75 -0.317,-0.339 -0.665,-0.642 -1,-0.969 -0.31,-0.331 -0.642,-0.65 -0.969,-0.969 -0.405,-0.434 -0.815,-0.867 -1.25,-1.281 -0.324,-0.338 -0.658,-0.674 -1,-1 -0.324,-0.338 -0.658,-0.674 -1,-1 -0.245,-0.256 -0.494,-0.501 -0.75,-0.75 -0.317,-0.339 -0.665,-0.642 -1,-0.969 -0.31,-0.331 -0.642,-0.65 -0.969,-0.969 -0.405,-0.434 -0.815,-0.867 -1.25,-1.281 -0.324,-0.338 -0.658,-0.674 -1,-1 -0.324,-0.338 -0.658,-0.674 -1,-1 -0.324,-0.338 -0.658,-0.674 -1,-1 -0.189,-0.198 -0.398,-0.369 -0.594,-0.563 -0.055,-0.049 -0.101,-0.107 -0.156,-0.156 -0.31,-0.331 -0.642,-0.65 -0.969,-0.969 -0.328,-0.352 -0.684,-0.693 -1.031,-1.031 -0.395,-0.422 -0.796,-0.847 -1.219,-1.25 -0.324,-0.338 -0.658,-0.674 -1,-1 -0.324,-0.338 -0.658,-0.674 -1,-1 -0.189,-0.198 -0.398,-0.369 -0.594,-0.563 -0.055,-0.049 -0.101,-0.107 -0.156,-0.156 -0.31,-0.331 -0.642,-0.65 -0.969,-0.969 -0.328,-0.352 -0.684,-0.693 -1.031,-1.031 -0.395,-0.422 -0.796,-0.847 -1.219,-1.25 -0.324,-0.338 -0.658,-0.674 -1,-1 -0.324,-0.338 -0.658,-0.674 -1,-1 -0.245,-0.256 -0.494,-0.501 -0.75,-0.75 -0.317,-0.339 -0.665,-0.642 -1,-0.969 -0.31,-0.331 -0.642,-0.65 -0.969,-0.969 -0.405,-0.434 -0.815,-0.867 -1.25,-1.281 -0.324,-0.338 -0.658,-0.674 -1,-1 -0.324,-0.338 -0.658,-0.674 -1,-1 -0.245,-0.256 -0.494,-0.501 -0.75,-0.75 -0.317,-0.339 -0.665,-0.642 -1,-0.969 -0.31,-0.331 -0.642,-0.65 -0.969,-0.969 -0.328,-0.352 -0.684,-0.693 -1.031,-1.031 -0.395,-0.422 -0.796,-0.847 -1.219,-1.25 -0.324,-0.338 -0.658,-0.674 -1,-1 -0.324,-0.338 -0.658,-0.674 -1,-1 -0.189,-0.198 -0.398,-0.369 -0.594,-0.563 -0.055,-0.049 -0.101,-0.107 -0.156,-0.156 -0.31,-0.331 -0.642,-0.65 -0.969,-0.969 -0.328,-0.352 -0.684,-0.693 -1.031,-1.031 -0.395,-0.422 -0.796,-0.847 -1.219,-1.25 -0.324,-0.338 -0.658,-0.674 -1,-1 -0.324,-0.338 -0.658,-0.674 -1,-1 -0.245,-0.256 -0.494,-0.501 -0.75,-0.75 -0.317,-0.339 -0.665,-0.642 -1,-0.969 -0.31,-0.331 -0.642,-0.65 -0.969,-0.969 -0.405,-0.434 -0.815,-0.867 -1.25,-1.281 -0.324,-0.338 -0.658,-0.674 -1,-1 -0.324,-0.338 -0.658,-0.674 -1,-1 -0.245,-0.256 -0.494,-0.501 -0.75,-0.75 -0.317,-0.339 -0.665,-0.642 -1,-0.969 -0.31,-0.331 -0.642,-0.65 -0.969,-0.969 -0.405,-0.434 -0.815,-0.867 -1.25,-1.281 -0.324,-0.338 -0.658,-0.674 -1,-1 -0.324,-0.338 -0.658,-0.674 -1,-1 -0.324,-0.338 -0.658,-0.674 -1,-1 -0.189,-0.198 -0.398,-0.369 -0.594,-0.563 -0.055,-0.049 -0.101,-0.107 -0.156,-0.156 -0.31,-0.331 -0.642,-0.65 -0.969,-0.969 -0.328,-0.352 -0.684,-0.693 -1.031,-1.031 -0.395,-0.422 -0.796,-0.847 -1.219,-1.25 -0.324,-0.338 -0.658,-0.674 -1,-1 -0.324,-0.338 -0.658,-0.674 -1,-1 -0.189,-0.198 -0.398,-0.369 -0.594,-0.563 -0.055,-0.049 -0.101,-0.107 -0.156,-0.156 -0.31,-0.331 -0.642,-0.65 -0.969,-0.969 -0.328,-0.352 -0.684,-0.693 -1.031,-1.031 -0.395,-0.422 -0.796,-0.847 -1.219,-1.25 -0.324,-0.338 -0.658,-0.674 -1,-1 -0.324,-0.339 -0.658,-0.674 -1,-1 -0.245,-0.256 -0.494,-0.501 -0.75,-0.75 -0.317,-0.339 -0.665,-0.642 -1,-0.969 -0.31,-0.331 -0.642,-0.65 -0.969,-0.969 -0.405,-0.434 -0.815,-0.867 -1.25,-1.281 -0.324,-0.339 -0.658,-0.674 -1,-1 -0.324,-0.339 -0.658,-0.674 -1,-1 -0.245,-0.256 -0.494,-0.501 -0.75,-0.75 -0.317,-0.339 -0.665,-0.642 -1,-0.969 -0.31,-0.331 -0.642,-0.65 -0.969,-0.969 -0.328,-0.352 -0.684,-0.693 -1.031,-1.031 -0.395,-0.422 -0.796,-0.847 -1.219,-1.25 -0.324,-0.339 -0.658,-0.674 -1,-1 -0.324,-0.339 -0.658,-0.674 -1,-1 -0.189,-0.198 -0.398,-0.369 -0.594,-0.563 -0.055,-0.049 -0.101,-0.107 -0.156,-0.156 -0.31,-0.331 -0.642,-0.65 -0.969,-0.969 -0.328,-0.352 -0.684,-0.693 -1.031,-1.031 -0.395,-0.422 -0.796,-0.847 -1.219,-1.25 -5.113,-5.342 -12.53,-9.157 -20.969,-9.344 -0.414,-0.015 -0.805,-0.004 -1.219,0" />
  <path
     inkscape:connector-curvature="0"
     style="fill:#ffffff"
     id="path461"
     d="m 317.6512,289.8105 c -5.911,-7.211 -13.442,-12.66 -21.805,-16.56 -4.212,-1.934 -8.632,-3.531 -13.65,-4.529 -1.959,-0.385 -3.813,-0.598 -5.607,-0.708 l -0.529,-21.491 c 0,-0.558 0,-1.124 0,-1.675 0.719,-0.409 1.447,-0.818 2.158,-1.227 7.193,-4.16 14.03,-8.477 20.765,-13.651 6.656,-5.182 13.338,-11.06 18.365,-19.376 4.94,-8.438 7.04,-18.432 3.848,-28.851 -3.02,-10.27 -13.893,-19.84 -27.395,-20.14 -6.621,-0.244 -13.269,1.974 -18.08,5.497 -2.453,1.754 -4.463,3.735 -6.11,5.882 -1.196,1.612 -2.227,2.658 -3.553,4.726 -5.503,8.03 -8.05,16.15 -9.291,24.314 -1.187,8.05 -1.213,15.743 -0.849,23.12 l 0.182,4.183 c -10.573,5.394 -21.771,10.97 -32.457,17.764 -6.994,4.419 -13.936,9.358 -20.297,15.499 -6.327,6.071 -12.12,13.58 -15.427,22.435 -3.311,8.878 -4.02,18.345 -2.037,27.396 1.612,8.217 5.243,16.741 10.539,24.13 10.643,15.15 28.375,24.856 46.35,28.599 5.989,1.164 12.06,1.856 18.17,1.982 l 0.321,9.696 c 0.017,0.33 0.035,0.7 0.087,1.038 0.121,0.818 0.234,2.351 0.234,3.523 0.009,1.266 -0.043,2.524 -0.182,3.743 -0.26,2.422 -0.867,4.639 -1.707,6.267 -0.875,1.643 -1.803,2.469 -2.877,3.059 -0.572,0.26 -1.283,0.48 -2.132,0.629 -0.459,0.039 -0.893,0.142 -1.439,0.142 -0.061,0 -0.529,0.016 -0.546,0.016 l -1.109,-0.055 -1.239,-0.079 -0.598,-0.134 c -0.364,-0.047 -0.832,-0.142 -1.421,-0.291 -1.075,-0.236 -2.132,-0.613 -3.068,-1.062 -1.907,-0.857 -3.441,-2.06 -4.316,-3.224 -0.884,-1.195 -1.213,-2.288 -1.144,-3.641 0.043,-0.676 0.13,-1.431 0.511,-2.257 0.217,-0.818 0.849,-1.722 1.291,-2.626 l 0.615,-1.242 c 2.02,-4.113 0.113,-8.988 -4.385,-10.985 -4.611,-2.06 -10.166,-0.338 -12.437,3.837 -1.031,1.895 -2.115,3.696 -2.791,5.898 -0.789,2.052 -1.239,4.443 -1.3,6.833 -0.217,4.828 1.569,9.979 4.663,13.8 3.068,3.877 7.107,6.605 11.319,8.445 2.115,0.936 4.299,1.643 6.526,2.131 1.803,0.511 5.59,0.928 6.838,0.928 l 1.283,0.063 c 1.369,0.031 1.404,-0.024 2.175,-0.031 1.17,-0.016 2.435,-0.181 3.666,-0.346 2.496,-0.417 5.087,-1.132 7.54,-2.304 4.975,-2.383 8.684,-6.479 10.721,-10.435 2.071,-3.995 2.964,-7.903 3.406,-11.638 0.217,-1.864 0.303,-3.719 0.303,-5.528 -0.035,-1.738 -0.087,-3.193 -0.321,-5.119 l -0.286,-10.482 c 6.249,-1.148 12.411,-2.972 18.382,-5.591 4.368,-1.974 8.632,-4.419 12.471,-7.604 3.744,-2.949 7.791,-7.698 9.802,-11.316 4.264,-7.447 7.54,-16.12 7.427,-25.493 0.043,-9.35 -3.657,-18.731 -9.577,-25.879 m -40.776,-85.1 c 0.997,-6.134 3.38,-12.09 6.413,-16.277 0.641,-1.085 2.271,-2.776 3.337,-4.136 0.641,-0.802 1.421,-1.463 2.132,-1.903 1.456,-0.928 2.782,-1.219 4.151,-1.117 2.713,0.197 5.755,2.406 6.682,6.094 1.023,3.586 0.121,8.909 -2.652,13.04 -4.203,6.456 -12.298,12.637 -21.259,18.17 0.095,-4.852 0.416,-9.523 1.196,-13.871 m -28.18,138.38 c -12.879,-2.965 -24.2,-9.601 -30.645,-19.12 -3.25,-4.781 -5.538,-9.994 -6.613,-16.02 -0.971,-5.143 -0.745,-10.584 1.066,-15.381 3.441,-9.821 13.745,-18.833 25.809,-26.524 5.971,-3.837 12.298,-7.36 18.85,-10.899 l 0.537,14.886 c -6.01,1.565 -11.726,3.979 -17.09,7.266 -3.995,2.556 -7.791,5.748 -10.807,9.853 -1.517,2.123 -2.739,4.073 -3.796,7.148 -0.234,0.692 -0.529,1.533 -0.659,2.076 l -0.251,1.337 -0.355,1.997 -0.113,1.934 c -0.355,5.206 1.664,10.946 5.122,15.255 3.666,4.309 7.583,7.242 13.13,9.593 0.312,0.149 0.693,0.275 1.031,0.385 4.897,1.478 10.192,-0.936 11.813,-5.394 1.629,-4.451 -1.031,-9.247 -5.937,-10.718 l -0.087,-0.016 c -10.157,-3.067 -9.542,-13.36 1.352,-19.494 2.227,-1.266 4.697,-2.367 7.297,-3.24 l 0.078,2.155 1.803,54.675 c -3.926,-0.283 -7.809,-0.857 -11.535,-1.754 m 56.784,-27.53 c -0.104,5.151 -2.219,10.576 -5.469,15.798 -1.811,2.705 -2.895,3.609 -5.157,5.426 -2.071,1.636 -4.68,3.03 -7.471,4.168 -2.773,1.132 -5.737,2.02 -8.831,2.674 l -1.465,-53.755 -0.087,-3.798 c 0.251,0.055 0.537,0.11 0.763,0.181 2.756,0.629 5.781,1.785 8.615,3.208 11.605,5.795 19.769,15.931 19.1,26.1" />
</svg>
