<?xml version="1.0" encoding="UTF-8" standalone="no"?>
<!-- Created with Inkscape (http://www.inkscape.org/) -->

<svg
   xmlns:dc="http://purl.org/dc/elements/1.1/"
   xmlns:cc="http://creativecommons.org/ns#"
   xmlns:rdf="http://www.w3.org/1999/02/22-rdf-syntax-ns#"
   xmlns:svg="http://www.w3.org/2000/svg"
   xmlns="http://www.w3.org/2000/svg"
   xmlns:sodipodi="http://sodipodi.sourceforge.net/DTD/sodipodi-0.dtd"
   xmlns:inkscape="http://www.inkscape.org/namespaces/inkscape"
   version="1.1"
   width="100%"
   height="100%"
   viewBox="0 0 512 512"
   id="svg2"
   inkscape:version="0.91 r13725"
   sodipodi:docname="server-database.svg">
  <sodipodi:namedview
     pagecolor="#ffffff"
     bordercolor="#666666"
     borderopacity="1"
     objecttolerance="10"
     gridtolerance="10"
     guidetolerance="10"
     inkscape:pageopacity="0"
     inkscape:pageshadow="2"
     inkscape:window-width="640"
     inkscape:window-height="480"
     id="namedview62"
     showgrid="false"
     inkscape:zoom="0.4609375"
     inkscape:cx="256"
     inkscape:cy="256"
     inkscape:window-x="0"
     inkscape:window-y="0"
     inkscape:window-maximized="0"
     inkscape:current-layer="svg2" />
  <metadata
     id="metadata122">
    <rdf:RDF>
      <cc:Work
         rdf:about="">
        <dc:format>image/svg+xml</dc:format>
        <dc:type
           rdf:resource="http://purl.org/dc/dcmitype/StillImage" />
        <dc:title></dc:title>
      </cc:Work>
    </rdf:RDF>
  </metadata>
  <defs
     id="defs120" />
  <path
     d="m 471.95,253.05 c 0,120.9 -98.01,218.9 -218.9,218.9 -120.9,0 -218.9,-98.01 -218.9,-218.9 0,-120.9 98.01,-218.9 218.9,-218.9 120.9,0 218.9,98.01 218.9,218.9"
     inkscape:connector-curvature="0"
     id="path4"
     style="fill:#8db173;fill-rule:evenodd" />
  <g
     id="g8"
     style="fill-rule:evenodd">
    <path
       d="M 256,1 C 115.17,1 1,115.17 1,256 1,396.83 115.17,511 256,511 396.83,511 511,396.83 511,256 511,115.17 396.83,1 256,1 m 8.827,44.931 c 120.9,0 218.9,98 218.9,218.9 0,120.9 -98,218.9 -218.9,218.9 -120.9,0 -218.93,-98 -218.93,-218.9 0,-120.9 98.03,-218.9 218.93,-218.9"
       inkscape:connector-curvature="0"
       id="path10"
       style="fill-opacity:0.06700003" />
    <g
       id="g12"
       style="fill-opacity:0.12900002">
      <path
         d="m 256,4.433 c -138.94,0 -251.57,112.63 -251.57,251.57 0,138.94 112.63,251.57 251.57,251.57 138.94,0 251.57,-112.63 251.57,-251.57 C 507.57,117.063 394.94,4.433 256,4.433 m 5.885,38.556 c 120.9,0 218.9,98 218.9,218.9 0,120.9 -98,218.9 -218.9,218.9 -120.9,0 -218.93,-98 -218.93,-218.9 0,-120.9 98.03,-218.9 218.93,-218.9"
         inkscape:connector-curvature="0"
         id="path14" />
      <path
         d="m 256,8.356 c -136.77,0 -247.64,110.87 -247.64,247.64 0,136.77 110.87,247.64 247.64,247.64 136.77,0 247.64,-110.87 247.64,-247.64 C 503.64,119.226 392.77,8.356 256,8.356 m 2.942,31.691 c 120.9,0 218.9,98 218.9,218.9 0,120.9 -98,218.9 -218.9,218.9 -120.9,0 -218.93,-98 -218.93,-218.9 0,-120.9 98.03,-218.9 218.93,-218.9"
         inkscape:connector-curvature="0"
         id="path16" />
    </g>
    <path
       d="m 253.04,7.859 c -135.42,0 -245.19,109.78 -245.19,245.19 0,135.42 109.78,245.19 245.19,245.19 135.42,0 245.19,-109.78 245.19,-245.19 0,-135.42 -109.78,-245.19 -245.19,-245.19 z m 0,26.297 c 120.9,0 218.9,98 218.9,218.9 0,120.9 -98,218.9 -218.9,218.9 -120.9,0 -218.93,-98 -218.93,-218.9 0,-120.9 98.03,-218.9 218.93,-218.9 z"
       inkscape:connector-curvature="0"
       id="path18"
       style="fill:#ffffff;stroke:#000000;stroke-width:4.90399981;stroke-opacity:0.31000001" />
  </g>
  <text
     x="729.64001"
     y="231.36"
     id="text20"
     style="font-size:129.22999573px;line-height:125%;letter-spacing:0;word-spacing:0;font-family:Gentium Book Basic">
    <tspan
       x="729.64001"
       y="231.36"
       id="tspan22" />
  </text>
  <text
     x="378.91"
     y="579.25"
     transform="scale(4.0128,0.2492)"
     id="text24"
     style="font-size:46.95399857px;text-anchor:middle;font-family:Arial" />
  <text
     x="1310.91"
     y="151.36"
     id="text26"
     style="font-size:129.22999573px;line-height:125%;letter-spacing:0;word-spacing:0;font-family:Gentium Book Basic">
    <tspan
       x="1310.91"
       y="151.36"
       id="tspan28" />
  </text>
  <text
     x="523.76001"
     y="258.22"
     transform="scale(4.0128,0.2492)"
     id="text30"
     style="font-size:46.95399857px;text-anchor:middle;font-family:Arial" />
  <text
     x="239.33"
     y="-29.900999"
     id="text32"
     style="font-size:129.22999573px;line-height:125%;letter-spacing:0;word-spacing:0;font-family:Gentium Book Basic">
    <tspan
       x="239.33"
       y="-29.900999"
       id="tspan34" />
  </text>
  <text
     x="256.72"
     y="-469.14001"
     transform="scale(4.0128,0.2492)"
     id="text36"
     style="font-size:46.95399857px;text-anchor:middle;font-family:Arial" />
  <text
     x="1337.38"
     y="-246.37"
     id="text38"
     style="font-size:129.22999573px;line-height:125%;letter-spacing:0;word-spacing:0;font-family:Gentium Book Basic">
    <tspan
       x="1337.38"
       y="-246.37"
       id="tspan40" />
  </text>
  <text
     x="530.35999"
     y="-1337.8101"
     transform="scale(4.0128,0.2492)"
     id="text42"
     style="font-size:46.95399857px;text-anchor:middle;font-family:Arial" />
  <text
     x="1918.65"
     y="-326.38"
     id="text44"
     style="font-size:129.22999573px;line-height:125%;letter-spacing:0;word-spacing:0;font-family:Gentium Book Basic">
    <tspan
       x="1918.65"
       y="-326.38"
       id="tspan46" />
  </text>
  <text
     x="675.21002"
     y="-1658.85"
     transform="scale(4.0128,0.2492)"
     id="text48"
     style="font-size:46.95399857px;text-anchor:middle;font-family:Arial" />
  <text
     x="1529.53"
     y="-798.78003"
     id="text50"
     style="font-size:129.22999573px;line-height:125%;letter-spacing:0;word-spacing:0;font-family:Gentium Book Basic">
    <tspan
       x="1529.53"
       y="-798.78003"
       id="tspan52" />
  </text>
  <text
     x="578.23999"
     y="-3554.51"
     transform="scale(4.0128,0.2492)"
     id="text54"
     style="font-size:46.95399857px;text-anchor:middle;font-family:Arial" />
  <text
     x="2110.79"
     y="-878.78003"
     id="text56"
     style="font-size:129.22999573px;line-height:125%;letter-spacing:0;word-spacing:0;font-family:Gentium Book Basic">
    <tspan
       x="2110.79"
       y="-878.78003"
       id="tspan58" />
  </text>
  <text
     x="723.09003"
     y="-3875.54"
     transform="scale(4.0128,0.2492)"
     id="text60"
     style="font-size:46.95399857px;text-anchor:middle;font-family:Arial" />
  <text
     x="277.98999"
     y="535.94"
     id="text62"
     style="font-size:208.33000183px;line-height:125%;letter-spacing:0;word-spacing:0;font-family:Gentium Book Basic">
    <tspan
       x="277.98999"
       y="535.94"
       id="tspan64" />
  </text>
  <g
     transform="matrix(4.73421,0,0,4.73421,95.46,95.54)"
     id="g66"
     style="fill:#ffffff" />
  <path
     inkscape:connector-curvature="0"
     style="fill-opacity:0.23500001"
     id="path415"
     d="m 256,111.63 c -62.2,0 -112.62,16.664 -112.62,37.22 0,4.496 2.392,8.791 6.813,12.781 0.159,0.159 0.304,0.342 0.469,0.5 0.384,0.411 0.793,0.814 1.219,1.219 0.313,0.332 0.629,0.641 0.969,0.969 l -9.219,-2.938 c -2.01,3.61 -3.188,7.385 -3.188,11.25 l 0,35.16 c 0,13.02 11.94,24.875 31.375,33.688 0.788,0.377 1.592,0.758 2.406,1.125 0.769,0.366 1.58,0.707 2.375,1.063 0.107,0.05 0.205,0.106 0.313,0.156 0.34,0.151 0.686,0.288 1.031,0.438 0.879,0.425 1.774,0.839 2.688,1.25 0.763,0.363 1.556,0.71 2.344,1.063 0.128,0.061 0.246,0.127 0.375,0.188 0.354,0.157 0.704,0.314 1.063,0.469 0.945,0.456 1.922,0.903 2.906,1.344 0.107,0.051 0.205,0.106 0.313,0.156 0.522,0.232 1.03,0.46 1.563,0.688 0.084,0.038 0.165,0.087 0.25,0.125 0.116,0.055 0.227,0.102 0.344,0.156 0.451,0.2 0.885,0.429 1.344,0.625 0.231,0.204 0.484,0.388 0.719,0.563 0.495,0.503 0.989,0.968 1.5,1.344 0.389,0.386 0.789,0.718 1.188,1.031 0.492,0.504 0.993,0.948 1.5,1.344 0.443,0.444 0.888,0.826 1.344,1.188 0.507,0.509 1.01,0.968 1.531,1.375 0.41,0.4 0.83,0.787 1.25,1.125 0.469,0.463 0.924,0.895 1.406,1.281 0.382,0.373 0.766,0.737 1.156,1.063 0.448,0.445 0.915,0.836 1.375,1.219 0.484,0.478 0.97,0.934 1.469,1.344 0.465,0.45 0.897,0.891 1.375,1.281 -20.24,-4.06 -37.24,-10.579 -48.969,-18.625 -0.089,-0.148 -0.196,-0.289 -0.281,-0.438 -0.035,0.06 -0.059,0.127 -0.094,0.188 -0.123,-0.085 -0.254,-0.164 -0.375,-0.25 -0.23,-0.362 -0.477,-0.729 -0.688,-1.094 -0.071,0.12 -0.119,0.254 -0.188,0.375 -0.326,-0.497 -0.647,-0.996 -0.938,-1.5 -0.075,0.127 -0.146,0.248 -0.219,0.375 -0.332,-0.505 -0.643,-1.02 -0.938,-1.531 -0.071,0.12 -0.119,0.254 -0.188,0.375 -0.327,-0.498 -0.678,-0.995 -0.969,-1.5 -0.067,0.114 -0.122,0.229 -0.188,0.344 -0.326,-0.497 -0.647,-0.996 -0.938,-1.5 -0.075,0.127 -0.146,0.248 -0.219,0.375 -0.332,-0.505 -0.643,-1.02 -0.938,-1.531 -0.071,0.12 -0.119,0.254 -0.188,0.375 -0.326,-0.497 -0.647,-0.996 -0.938,-1.5 -0.074,0.126 -0.147,0.249 -0.219,0.375 -0.332,-0.505 -0.643,-1.02 -0.938,-1.531 -0.066,0.112 -0.123,0.231 -0.188,0.344 -0.326,-0.497 -0.679,-0.966 -0.969,-1.469 -0.067,0.114 -0.122,0.229 -0.188,0.344 -0.326,-0.497 -0.647,-0.996 -0.938,-1.5 -0.075,0.127 -0.146,0.248 -0.219,0.375 -0.332,-0.505 -0.643,-1.02 -0.938,-1.531 -0.071,0.12 -0.119,0.254 -0.188,0.375 -0.327,-0.498 -0.678,-0.995 -0.969,-1.5 -2.209,3.758 -3.5,7.758 -3.5,11.813 l 0,35.13 c 0,7.22 3.657,14.08 10.219,20.25 0.371,0.373 0.733,0.757 1.125,1.125 0.381,0.384 0.754,0.777 1.156,1.156 0.38,0.384 0.754,0.778 1.156,1.156 0.371,0.373 0.733,0.757 1.125,1.125 0.381,0.384 0.754,0.777 1.156,1.156 0.371,0.373 0.765,0.788 1.156,1.156 0.371,0.373 0.733,0.757 1.125,1.125 0.381,0.384 0.754,0.777 1.156,1.156 0.371,0.373 0.733,0.757 1.125,1.125 0.381,0.384 0.754,0.777 1.156,1.156 0.38,0.384 0.754,0.778 1.156,1.156 0.371,0.373 0.733,0.757 1.125,1.125 0.381,0.384 0.754,0.777 1.156,1.156 0.371,0.373 0.733,0.757 1.125,1.125 0.381,0.384 0.753,0.777 1.156,1.156 0.38,0.384 0.754,0.778 1.156,1.156 0.371,0.373 0.733,0.757 1.125,1.125 0.149,0.151 0.285,0.319 0.438,0.469 0.588,0.62 1.23,1.237 1.875,1.844 0.371,0.373 0.733,0.757 1.125,1.125 0.381,0.384 0.754,0.777 1.156,1.156 0.371,0.373 0.733,0.757 1.125,1.125 0.381,0.384 0.754,0.777 1.156,1.156 0.38,0.384 0.754,0.778 1.156,1.156 0.371,0.373 0.733,0.757 1.125,1.125 0.381,0.384 0.754,0.777 1.156,1.156 0.371,0.373 0.733,0.788 1.125,1.156 0.165,0.166 0.331,0.335 0.5,0.5 -9.432,-3.36 -17.579,-7.374 -24.09,-11.844 -0.076,-0.128 -0.176,-0.247 -0.25,-0.375 -0.031,0.053 -0.063,0.103 -0.094,0.156 -0.134,-0.093 -0.273,-0.188 -0.406,-0.281 -0.216,-0.342 -0.457,-0.686 -0.656,-1.031 -0.067,0.114 -0.122,0.229 -0.188,0.344 -0.325,-0.495 -0.648,-0.968 -0.938,-1.469 -0.075,0.127 -0.146,0.248 -0.219,0.375 -0.332,-0.504 -0.643,-1.021 -0.938,-1.531 -0.067,0.114 -0.122,0.229 -0.188,0.344 -0.327,-0.498 -0.678,-0.996 -0.969,-1.5 -0.071,0.12 -0.119,0.254 -0.188,0.375 -0.326,-0.497 -0.647,-0.997 -0.938,-1.5 -0.075,0.127 -0.146,0.248 -0.219,0.375 -0.332,-0.504 -0.643,-1.021 -0.938,-1.531 -0.067,0.114 -0.122,0.229 -0.188,0.344 -0.326,-0.497 -0.647,-0.997 -0.938,-1.5 -0.073,0.123 -0.148,0.251 -0.219,0.375 -0.326,-0.497 -0.647,-0.997 -0.938,-1.5 -0.067,0.114 -0.122,0.229 -0.188,0.344 -0.327,-0.498 -0.678,-0.996 -0.969,-1.5 -0.066,0.112 -0.123,0.231 -0.188,0.344 -0.325,-0.495 -0.648,-0.968 -0.938,-1.469 -0.075,0.127 -0.146,0.248 -0.219,0.375 -0.332,-0.504 -0.643,-1.021 -0.938,-1.531 -0.067,0.114 -0.122,0.229 -0.188,0.344 -0.327,-0.498 -0.678,-0.996 -0.969,-1.5 -2.209,3.758 -3.5,7.669 -3.5,11.75 l 0,35.22 c 0,7.213 3.657,14.05 10.219,20.22 0.371,0.373 0.733,0.757 1.125,1.125 0.381,0.384 0.753,0.778 1.156,1.156 0.38,0.383 0.754,0.778 1.156,1.156 0.371,0.373 0.733,0.757 1.125,1.125 0.149,0.15 0.285,0.319 0.438,0.469 0.588,0.619 1.23,1.238 1.875,1.844 0.371,0.373 0.733,0.757 1.125,1.125 0.381,0.383 0.754,0.778 1.156,1.156 0.371,0.373 0.733,0.757 1.125,1.125 0.381,0.384 0.753,0.778 1.156,1.156 0.38,0.383 0.754,0.778 1.156,1.156 0.371,0.373 0.733,0.757 1.125,1.125 0.381,0.383 0.754,0.778 1.156,1.156 0.371,0.373 0.733,0.788 1.125,1.156 0.376,0.378 0.759,0.752 1.156,1.125 0.38,0.383 0.754,0.778 1.156,1.156 0.371,0.373 0.733,0.757 1.125,1.125 0.149,0.15 0.285,0.319 0.438,0.469 0.588,0.619 1.23,1.238 1.875,1.844 0.371,0.373 0.733,0.757 1.125,1.125 0.381,0.383 0.754,0.778 1.156,1.156 0.371,0.373 0.733,0.757 1.125,1.125 0.381,0.384 0.753,0.778 1.156,1.156 0.38,0.383 0.754,0.778 1.156,1.156 0.371,0.373 0.733,0.757 1.125,1.125 0.381,0.383 0.754,0.778 1.156,1.156 0.371,0.373 0.733,0.788 1.125,1.156 0.376,0.378 0.759,0.752 1.156,1.125 0.381,0.383 0.754,0.778 1.156,1.156 0.371,0.373 0.733,0.757 1.125,1.125 0.149,0.15 0.285,0.319 0.438,0.469 0.588,0.619 1.23,1.238 1.875,1.844 0.371,0.373 0.733,0.757 1.125,1.125 0.381,0.383 0.754,0.778 1.156,1.156 0.371,0.373 0.733,0.757 1.125,1.125 0.381,0.384 0.753,0.778 1.156,1.156 0.38,0.383 0.754,0.778 1.156,1.156 0.371,0.373 0.733,0.757 1.125,1.125 0.149,0.15 0.285,0.319 0.438,0.469 0.588,0.619 1.23,1.238 1.875,1.844 0.371,0.373 0.733,0.757 1.125,1.125 0.381,0.383 0.754,0.778 1.156,1.156 0.371,0.373 0.733,0.757 1.125,1.125 0.381,0.383 0.754,0.778 1.156,1.156 0.38,0.383 0.754,0.778 1.156,1.156 0.371,0.373 0.733,0.757 1.125,1.125 0.381,0.383 0.754,0.778 1.156,1.156 0.371,0.373 0.733,0.757 1.125,1.125 0.381,0.384 0.753,0.778 1.156,1.156 0.38,0.383 0.754,0.778 1.156,1.156 0.371,0.373 0.733,0.757 1.125,1.125 0.149,0.15 0.285,0.319 0.438,0.469 0.588,0.619 1.23,1.238 1.875,1.844 0.371,0.373 0.733,0.757 1.125,1.125 0.381,0.383 0.754,0.778 1.156,1.156 0.371,0.373 0.733,0.757 1.125,1.125 0.381,0.384 0.753,0.778 1.156,1.156 0.38,0.383 0.754,0.778 1.156,1.156 0.371,0.373 0.733,0.757 1.125,1.125 0.381,0.383 0.754,0.778 1.156,1.156 0.371,0.373 0.733,0.757 1.125,1.125 0.381,0.384 0.753,0.778 1.156,1.156 0.38,0.383 0.754,0.778 1.156,1.156 0.371,0.373 0.733,0.757 1.125,1.125 0.149,0.15 0.285,0.319 0.438,0.469 0.588,0.619 1.23,1.238 1.875,1.844 0.371,0.373 0.733,0.757 1.125,1.125 0.381,0.383 0.754,0.778 1.156,1.156 0.371,0.373 0.733,0.757 1.125,1.125 0.381,0.384 0.753,0.778 1.156,1.156 0.38,0.383 0.754,0.778 1.156,1.156 0.371,0.373 0.733,0.757 1.125,1.125 0.381,0.383 0.754,0.778 1.156,1.156 0.371,0.373 0.733,0.788 1.125,1.156 0.376,0.378 0.759,0.752 1.156,1.125 0.381,0.383 0.754,0.778 1.156,1.156 0.371,0.373 0.733,0.757 1.125,1.125 0.149,0.15 0.285,0.319 0.438,0.469 0.588,0.619 1.23,1.238 1.875,1.844 0.371,0.373 0.733,0.757 1.125,1.125 0.381,0.383 0.754,0.778 1.156,1.156 0.371,0.373 0.733,0.757 1.125,1.125 0.381,0.384 0.753,0.778 1.156,1.156 0.38,0.383 0.754,0.778 1.156,1.156 0.371,0.373 0.733,0.757 1.125,1.125 0.381,0.383 0.754,0.778 1.156,1.156 0.371,0.373 0.765,0.788 1.156,1.156 0.288,0.29 0.579,0.584 0.875,0.875 0.649,0.006 1.287,0.031 1.938,0.031 120.9,0 218.91,-98.01 218.91,-218.91 0,-2.351 -0.051,-4.698 -0.125,-7.03 -0.237,-0.24 -0.468,-0.481 -0.719,-0.719 -0.361,-0.383 -0.728,-0.747 -1.125,-1.125 -0.361,-0.383 -0.759,-0.778 -1.156,-1.156 -0.433,-0.46 -0.89,-0.923 -1.375,-1.375 -0.292,-0.303 -0.592,-0.607 -0.906,-0.906 -0.366,-0.388 -0.754,-0.773 -1.156,-1.156 -0.361,-0.383 -0.728,-0.747 -1.125,-1.125 -0.361,-0.383 -0.759,-0.778 -1.156,-1.156 -0.433,-0.46 -0.89,-0.923 -1.375,-1.375 -0.292,-0.303 -0.592,-0.607 -0.906,-0.906 -0.362,-0.385 -0.758,-0.777 -1.156,-1.156 -0.356,-0.378 -0.734,-0.752 -1.125,-1.125 -0.361,-0.383 -0.759,-0.778 -1.156,-1.156 -0.366,-0.388 -0.754,-0.773 -1.156,-1.156 -0.361,-0.383 -0.728,-0.747 -1.125,-1.125 -0.361,-0.383 -0.759,-0.778 -1.156,-1.156 -0.433,-0.46 -0.89,-0.923 -1.375,-1.375 -0.292,-0.303 -0.592,-0.607 -0.906,-0.906 -0.274,-0.291 -0.58,-0.587 -0.875,-0.875 -0.044,-0.048 -0.111,-0.077 -0.156,-0.125 -0.048,-0.046 -0.077,-0.11 -0.125,-0.156 -0.361,-0.383 -0.728,-0.747 -1.125,-1.125 -0.361,-0.383 -0.759,-0.778 -1.156,-1.156 -0.366,-0.388 -0.754,-0.773 -1.156,-1.156 -0.361,-0.383 -0.728,-0.747 -1.125,-1.125 -0.362,-0.385 -0.758,-0.777 -1.156,-1.156 -0.356,-0.378 -0.734,-0.752 -1.125,-1.125 -0.361,-0.383 -0.759,-0.778 -1.156,-1.156 -0.366,-0.388 -0.754,-0.773 -1.156,-1.156 -0.361,-0.383 -0.728,-0.747 -1.125,-1.125 -0.361,-0.383 -0.759,-0.778 -1.156,-1.156 -0.433,-0.46 -0.89,-0.923 -1.375,-1.375 -0.292,-0.303 -0.592,-0.607 -0.906,-0.906 -0.362,-0.385 -0.758,-0.777 -1.156,-1.156 -0.358,-0.38 -0.732,-0.75 -1.125,-1.125 -0.054,-0.057 -0.133,-0.099 -0.188,-0.156 -0.153,-0.143 -0.28,-0.295 -0.438,-0.438 -0.179,-0.179 -0.344,-0.385 -0.531,-0.563 -0.366,-0.388 -0.754,-0.773 -1.156,-1.156 -0.361,-0.383 -0.728,-0.747 -1.125,-1.125 -0.362,-0.385 -0.758,-0.777 -1.156,-1.156 -0.433,-0.46 -0.89,-0.923 -1.375,-1.375 -0.292,-0.303 -0.592,-0.607 -0.906,-0.906 -0.366,-0.388 -0.754,-0.773 -1.156,-1.156 -0.361,-0.383 -0.728,-0.747 -1.125,-1.125 -0.361,-0.383 -0.759,-0.778 -1.156,-1.156 -0.433,-0.46 -0.89,-0.923 -1.375,-1.375 -0.292,-0.303 -0.592,-0.607 -0.906,-0.906 -0.362,-0.385 -0.758,-0.777 -1.156,-1.156 -0.358,-0.38 -0.732,-0.75 -1.125,-1.125 -0.054,-0.057 -0.133,-0.099 -0.188,-0.156 -0.153,-0.143 -0.28,-0.295 -0.438,-0.438 -0.179,-0.179 -0.344,-0.385 -0.531,-0.563 -0.366,-0.388 -0.754,-0.773 -1.156,-1.156 -0.361,-0.383 -0.728,-0.747 -1.125,-1.125 -0.361,-0.383 -0.759,-0.778 -1.156,-1.156 -0.433,-0.46 -0.89,-0.923 -1.375,-1.375 -0.292,-0.303 -0.592,-0.607 -0.906,-0.906 -0.366,-0.388 -0.754,-0.773 -1.156,-1.156 -0.361,-0.383 -0.728,-0.747 -1.125,-1.125 -0.361,-0.383 -0.759,-0.778 -1.156,-1.156 -0.433,-0.46 -0.89,-0.923 -1.375,-1.375 -0.292,-0.303 -0.592,-0.607 -0.906,-0.906 -0.362,-0.385 -0.758,-0.777 -1.156,-1.156 -0.356,-0.378 -0.734,-0.752 -1.125,-1.125 -0.361,-0.383 -0.759,-0.778 -1.156,-1.156 -0.366,-0.388 -0.754,-0.773 -1.156,-1.156 -0.361,-0.383 -0.728,-0.747 -1.125,-1.125 -0.361,-0.383 -0.759,-0.778 -1.156,-1.156 -0.433,-0.46 -0.89,-0.923 -1.375,-1.375 -0.292,-0.303 -0.592,-0.607 -0.906,-0.906 -0.274,-0.291 -0.58,-0.587 -0.875,-0.875 -0.044,-0.048 -0.111,-0.077 -0.156,-0.125 -0.048,-0.046 -0.077,-0.11 -0.125,-0.156 -0.361,-0.383 -0.728,-0.747 -1.125,-1.125 -0.361,-0.383 -0.759,-0.778 -1.156,-1.156 -0.366,-0.388 -0.754,-0.773 -1.156,-1.156 -0.361,-0.383 -0.728,-0.747 -1.125,-1.125 -0.362,-0.385 -0.758,-0.777 -1.156,-1.156 -0.356,-0.378 -0.734,-0.752 -1.125,-1.125 -0.361,-0.383 -0.759,-0.778 -1.156,-1.156 -0.366,-0.388 -0.754,-0.773 -1.156,-1.156 -0.361,-0.383 -0.728,-0.747 -1.125,-1.125 -0.361,-0.383 -0.759,-0.778 -1.156,-1.156 -0.433,-0.46 -0.89,-0.923 -1.375,-1.375 -0.292,-0.303 -0.592,-0.607 -0.906,-0.906 -0.362,-0.385 -0.758,-0.777 -1.156,-1.156 -0.358,-0.38 -0.732,-0.75 -1.125,-1.125 -0.054,-0.057 -0.102,-0.13 -0.156,-0.188 -0.153,-0.143 -0.311,-0.264 -0.469,-0.406 -0.179,-0.179 -0.344,-0.385 -0.531,-0.563 -0.366,-0.388 -0.754,-0.773 -1.156,-1.156 -0.361,-0.383 -0.728,-0.747 -1.125,-1.125 -0.362,-0.385 -0.758,-0.777 -1.156,-1.156 -0.433,-0.46 -0.89,-0.923 -1.375,-1.375 -0.292,-0.303 -0.592,-0.607 -0.906,-0.906 -0.366,-0.388 -0.754,-0.773 -1.156,-1.156 -0.361,-0.383 -0.728,-0.747 -1.125,-1.125 -0.361,-0.383 -0.759,-0.778 -1.156,-1.156 -0.433,-0.46 -0.89,-0.923 -1.375,-1.375 -0.292,-0.303 -0.592,-0.607 -0.906,-0.906 -0.362,-0.385 -0.758,-0.777 -1.156,-1.156 -0.358,-0.38 -0.732,-0.75 -1.125,-1.125 -0.054,-0.057 -0.102,-0.13 -0.156,-0.188 -0.153,-0.143 -0.311,-0.264 -0.469,-0.406 -0.179,-0.179 -0.344,-0.385 -0.531,-0.563 -0.366,-0.388 -0.754,-0.773 -1.156,-1.156 -14.258,-15.15 -56.991,-26.12 -107.53,-26.12" />
  <path
     inkscape:connector-curvature="0"
     style="fill:#ffffff"
     id="path651"
     d="m 255.99,111.61 c -62.2,0 -112.62,16.662 -112.62,37.22 0,20.555 50.41,37.22 112.62,37.22 62.2,0 112.62,-16.662 112.62,-37.22 0,-20.555 -50.42,-37.22 -112.62,-37.22 m -112.36,49.76 c -2.01,3.61 -3.194,7.387 -3.194,11.253 l 0,35.17 c 0,27.16 51.783,49.23 115.55,49.23 63.82,0 115.58,-22.09 115.58,-49.23 l 0,-35.17 c 0,-3.866 -1.185,-7.643 -3.165,-11.253 -2.209,19.895 -51.638,35.811 -112.41,35.811 -60.776,0 -110.12,-15.916 -112.36,-35.811 m 0.322,70.3 c -2.209,3.758 -3.517,7.755 -3.517,11.81 l 0,35.14 c 0,27.18 51.783,49.17 115.55,49.17 63.82,0 115.58,-22 115.58,-49.17 l 0,-35.14 c 0,-4.054 -1.334,-8.05 -3.517,-11.81 -12.406,21.498 -57.779,37.422 -112.06,37.422 -54.24,0 -99.64,-15.938 -112.03,-37.422 m 0,72.65 c -2.209,3.758 -3.517,7.67 -3.517,11.751 l 0,35.2 c 0,27.16 51.783,49.12 115.55,49.12 63.82,0 115.58,-21.973 115.58,-49.12 l 0,-35.2 c 0,-4.081 -1.334,-7.993 -3.517,-11.751 -12.406,21.458 -57.779,37.36 -112.06,37.36 -54.24,0 -99.64,-15.906 -112.03,-37.36" />
</svg>
