<?xml version="1.0" encoding="UTF-8" standalone="no"?>
<!-- Created with Inkscape (http://www.inkscape.org/) -->

<svg
   xmlns:dc="http://purl.org/dc/elements/1.1/"
   xmlns:cc="http://creativecommons.org/ns#"
   xmlns:rdf="http://www.w3.org/1999/02/22-rdf-syntax-ns#"
   xmlns:svg="http://www.w3.org/2000/svg"
   xmlns="http://www.w3.org/2000/svg"
   xmlns:sodipodi="http://sodipodi.sourceforge.net/DTD/sodipodi-0.dtd"
   xmlns:inkscape="http://www.inkscape.org/namespaces/inkscape"
   version="1.1"
   width="100%"
   height="100%"
   viewBox="0 0 512 512"
   id="svg2"
   inkscape:version="0.91 r13725"
   sodipodi:docname="start-here.svg">
  <sodipodi:namedview
     pagecolor="#ffffff"
     bordercolor="#666666"
     borderopacity="1"
     objecttolerance="10"
     gridtolerance="10"
     guidetolerance="10"
     inkscape:pageopacity="0"
     inkscape:pageshadow="2"
     inkscape:window-width="640"
     inkscape:window-height="480"
     id="namedview62"
     showgrid="false"
     inkscape:zoom="0.4609375"
     inkscape:cx="256"
     inkscape:cy="256"
     inkscape:window-x="0"
     inkscape:window-y="0"
     inkscape:window-maximized="0"
     inkscape:current-layer="svg2" />
  <metadata
     id="metadata122">
    <rdf:RDF>
      <cc:Work
         rdf:about="">
        <dc:format>image/svg+xml</dc:format>
        <dc:type
           rdf:resource="http://purl.org/dc/dcmitype/StillImage" />
        <dc:title></dc:title>
      </cc:Work>
    </rdf:RDF>
  </metadata>
  <defs
     id="defs120" />
  <path
     d="m 471.95,253.05 c 0,120.9 -98.01,218.9 -218.9,218.9 -120.9,0 -218.9,-98.01 -218.9,-218.9 0,-120.9 98.01,-218.9 218.9,-218.9 120.9,0 218.9,98.01 218.9,218.9"
     inkscape:connector-curvature="0"
     id="path4"
     style="fill:#8db173;fill-rule:evenodd" />
  <g
     id="g8"
     style="fill-rule:evenodd">
    <path
       d="M 256,1 C 115.17,1 1,115.17 1,256 1,396.83 115.17,511 256,511 396.83,511 511,396.83 511,256 511,115.17 396.83,1 256,1 m 8.827,44.931 c 120.9,0 218.9,98 218.9,218.9 0,120.9 -98,218.9 -218.9,218.9 -120.9,0 -218.93,-98 -218.93,-218.9 0,-120.9 98.03,-218.9 218.93,-218.9"
       inkscape:connector-curvature="0"
       id="path10"
       style="fill-opacity:0.06700003" />
    <g
       id="g12"
       style="fill-opacity:0.12900002">
      <path
         d="m 256,4.433 c -138.94,0 -251.57,112.63 -251.57,251.57 0,138.94 112.63,251.57 251.57,251.57 138.94,0 251.57,-112.63 251.57,-251.57 C 507.57,117.063 394.94,4.433 256,4.433 m 5.885,38.556 c 120.9,0 218.9,98 218.9,218.9 0,120.9 -98,218.9 -218.9,218.9 -120.9,0 -218.93,-98 -218.93,-218.9 0,-120.9 98.03,-218.9 218.93,-218.9"
         inkscape:connector-curvature="0"
         id="path14" />
      <path
         d="m 256,8.356 c -136.77,0 -247.64,110.87 -247.64,247.64 0,136.77 110.87,247.64 247.64,247.64 136.77,0 247.64,-110.87 247.64,-247.64 C 503.64,119.226 392.77,8.356 256,8.356 m 2.942,31.691 c 120.9,0 218.9,98 218.9,218.9 0,120.9 -98,218.9 -218.9,218.9 -120.9,0 -218.93,-98 -218.93,-218.9 0,-120.9 98.03,-218.9 218.93,-218.9"
         inkscape:connector-curvature="0"
         id="path16" />
    </g>
    <path
       d="m 253.04,7.859 c -135.42,0 -245.19,109.78 -245.19,245.19 0,135.42 109.78,245.19 245.19,245.19 135.42,0 245.19,-109.78 245.19,-245.19 0,-135.42 -109.78,-245.19 -245.19,-245.19 z m 0,26.297 c 120.9,0 218.9,98 218.9,218.9 0,120.9 -98,218.9 -218.9,218.9 -120.9,0 -218.93,-98 -218.93,-218.9 0,-120.9 98.03,-218.9 218.93,-218.9 z"
       inkscape:connector-curvature="0"
       id="path18"
       style="fill:#ffffff;stroke:#000000;stroke-width:4.90399981;stroke-opacity:0.31000001" />
  </g>
  <text
     x="729.64001"
     y="231.36"
     id="text20"
     style="font-size:129.22999573px;line-height:125%;letter-spacing:0;word-spacing:0;font-family:Gentium Book Basic">
    <tspan
       x="729.64001"
       y="231.36"
       id="tspan22" />
  </text>
  <text
     x="378.91"
     y="579.25"
     transform="scale(4.0128,0.2492)"
     id="text24"
     style="font-size:46.95399857px;text-anchor:middle;font-family:Arial" />
  <text
     x="1310.91"
     y="151.36"
     id="text26"
     style="font-size:129.22999573px;line-height:125%;letter-spacing:0;word-spacing:0;font-family:Gentium Book Basic">
    <tspan
       x="1310.91"
       y="151.36"
       id="tspan28" />
  </text>
  <text
     x="523.76001"
     y="258.22"
     transform="scale(4.0128,0.2492)"
     id="text30"
     style="font-size:46.95399857px;text-anchor:middle;font-family:Arial" />
  <text
     x="239.33"
     y="-29.900999"
     id="text32"
     style="font-size:129.22999573px;line-height:125%;letter-spacing:0;word-spacing:0;font-family:Gentium Book Basic">
    <tspan
       x="239.33"
       y="-29.900999"
       id="tspan34" />
  </text>
  <text
     x="256.72"
     y="-469.14001"
     transform="scale(4.0128,0.2492)"
     id="text36"
     style="font-size:46.95399857px;text-anchor:middle;font-family:Arial" />
  <text
     x="1337.38"
     y="-246.37"
     id="text38"
     style="font-size:129.22999573px;line-height:125%;letter-spacing:0;word-spacing:0;font-family:Gentium Book Basic">
    <tspan
       x="1337.38"
       y="-246.37"
       id="tspan40" />
  </text>
  <text
     x="530.35999"
     y="-1337.8101"
     transform="scale(4.0128,0.2492)"
     id="text42"
     style="font-size:46.95399857px;text-anchor:middle;font-family:Arial" />
  <text
     x="1918.65"
     y="-326.38"
     id="text44"
     style="font-size:129.22999573px;line-height:125%;letter-spacing:0;word-spacing:0;font-family:Gentium Book Basic">
    <tspan
       x="1918.65"
       y="-326.38"
       id="tspan46" />
  </text>
  <text
     x="675.21002"
     y="-1658.85"
     transform="scale(4.0128,0.2492)"
     id="text48"
     style="font-size:46.95399857px;text-anchor:middle;font-family:Arial" />
  <text
     x="1529.53"
     y="-798.78003"
     id="text50"
     style="font-size:129.22999573px;line-height:125%;letter-spacing:0;word-spacing:0;font-family:Gentium Book Basic">
    <tspan
       x="1529.53"
       y="-798.78003"
       id="tspan52" />
  </text>
  <text
     x="578.23999"
     y="-3554.51"
     transform="scale(4.0128,0.2492)"
     id="text54"
     style="font-size:46.95399857px;text-anchor:middle;font-family:Arial" />
  <text
     x="2110.79"
     y="-878.78003"
     id="text56"
     style="font-size:129.22999573px;line-height:125%;letter-spacing:0;word-spacing:0;font-family:Gentium Book Basic">
    <tspan
       x="2110.79"
       y="-878.78003"
       id="tspan58" />
  </text>
  <text
     x="723.09003"
     y="-3875.54"
     transform="scale(4.0128,0.2492)"
     id="text60"
     style="font-size:46.95399857px;text-anchor:middle;font-family:Arial" />
  <text
     x="277.98999"
     y="535.94"
     id="text62"
     style="font-size:208.33000183px;line-height:125%;letter-spacing:0;word-spacing:0;font-family:Gentium Book Basic">
    <tspan
       x="277.98999"
       y="535.94"
       id="tspan64" />
  </text>
  <g
     transform="matrix(4.73421,0,0,4.73421,95.46,95.54)"
     id="g66"
     style="fill:#ffffff" />
  <path
     inkscape:connector-curvature="0"
     style="fill-opacity:0.23500001;fill-rule:evenodd"
     id="path433"
     d="m 173.22,140.06 c -2.293,0.109 -4.541,0.692 -6.969,2.094 -6.342,3.662 -7.527,9.31 -9.438,16.25 -1.91,6.94 -3.403,15.613 -4.594,25.75 -2.381,20.274 -3.563,46.07 -3.563,71.844 0,25.777 1.182,51.57 3.563,71.844 1.19,10.137 2.683,18.81 4.594,25.75 1.565,5.686 2.645,10.473 6.469,14.03 0.303,0.342 0.654,0.678 1,1 0.335,0.378 0.706,0.74 1.094,1.094 0.301,0.333 0.626,0.655 0.969,0.969 0.32,0.356 0.664,0.697 1.031,1.031 0.364,0.403 0.762,0.781 1.188,1.156 0.224,0.239 0.441,0.489 0.688,0.719 0.303,0.342 0.654,0.678 1,1 0.335,0.378 0.706,0.74 1.094,1.094 0.301,0.333 0.626,0.655 0.969,0.969 0.32,0.356 0.664,0.697 1.031,1.031 0.312,0.345 0.644,0.676 1,1 0.277,0.307 0.563,0.584 0.875,0.875 0.303,0.342 0.654,0.678 1,1 0.303,0.342 0.654,0.678 1,1 0.327,0.368 0.686,0.717 1.063,1.063 0.32,0.356 0.664,0.697 1.031,1.031 0.312,0.345 0.644,0.676 1,1 0.329,0.364 0.684,0.69 1.063,1.031 0.26,0.284 0.522,0.573 0.813,0.844 0.303,0.342 0.654,0.678 1,1 0.335,0.378 0.706,0.74 1.094,1.094 0.312,0.345 0.644,0.676 1,1 0.312,0.345 0.644,0.676 1,1 0.364,0.403 0.762,0.781 1.188,1.156 0.224,0.239 0.441,0.489 0.688,0.719 0.303,0.342 0.654,0.678 1,1 0.335,0.378 0.706,0.74 1.094,1.094 0.301,0.333 0.626,0.655 0.969,0.969 0.32,0.356 0.664,0.697 1.031,1.031 0.312,0.345 0.644,0.676 1,1 0.277,0.307 0.563,0.584 0.875,0.875 0.303,0.342 0.654,0.678 1,1 0.303,0.342 0.654,0.678 1,1 0.327,0.368 0.686,0.717 1.063,1.063 0.32,0.356 0.664,0.697 1.031,1.031 0.312,0.345 0.644,0.676 1,1 0.329,0.364 0.684,0.69 1.063,1.031 0.26,0.284 0.522,0.573 0.813,0.844 0.303,0.342 0.654,0.678 1,1 0.327,0.368 0.686,0.717 1.063,1.063 0.32,0.356 0.664,0.697 1.031,1.031 0.312,0.345 0.644,0.676 1,1 0.329,0.364 0.684,0.69 1.063,1.031 0.26,0.284 0.522,0.573 0.813,0.844 0.303,0.342 0.654,0.678 1,1 0.335,0.378 0.706,0.74 1.094,1.094 0.301,0.333 0.626,0.655 0.969,0.969 0.32,0.356 0.664,0.697 1.031,1.031 0.364,0.403 0.762,0.781 1.188,1.156 0.224,0.239 0.441,0.489 0.688,0.719 0.303,0.342 0.654,0.678 1,1 0.335,0.378 0.706,0.74 1.094,1.094 0.301,0.333 0.626,0.655 0.969,0.969 0.32,0.356 0.664,0.697 1.031,1.031 0.312,0.345 0.644,0.676 1,1 0.277,0.307 0.563,0.584 0.875,0.875 0.303,0.342 0.654,0.678 1,1 0.303,0.342 0.654,0.678 1,1 0.327,0.368 0.686,0.717 1.063,1.063 0.32,0.356 0.664,0.697 1.031,1.031 0.312,0.345 0.644,0.676 1,1 0.329,0.364 0.684,0.69 1.063,1.031 0.26,0.284 0.522,0.573 0.813,0.844 0.303,0.342 0.654,0.678 1,1 0.335,0.378 0.706,0.74 1.094,1.094 0.312,0.345 0.644,0.676 1,1 0.312,0.345 0.644,0.676 1,1 0.364,0.403 0.762,0.781 1.188,1.156 0.224,0.239 0.441,0.489 0.688,0.719 0.303,0.342 0.654,0.678 1,1 0.335,0.378 0.706,0.74 1.094,1.094 0.301,0.333 0.626,0.655 0.969,0.969 0.32,0.356 0.664,0.697 1.031,1.031 0.312,0.345 0.644,0.676 1,1 0.277,0.307 0.563,0.584 0.875,0.875 0.303,0.342 0.654,0.678 1,1 0.335,0.378 0.706,0.74 1.094,1.094 0.301,0.333 0.626,0.655 0.969,0.969 0.32,0.356 0.664,0.697 1.031,1.031 0.312,0.345 0.644,0.676 1,1 0.329,0.364 0.684,0.69 1.063,1.031 0.26,0.284 0.522,0.573 0.813,0.844 0.303,0.342 0.654,0.678 1,1 0.327,0.368 0.686,0.717 1.063,1.063 0.32,0.356 0.664,0.697 1.031,1.031 0.312,0.345 0.644,0.676 1,1 0.329,0.364 0.684,0.69 1.063,1.031 0.26,0.284 0.522,0.573 0.813,0.844 0.303,0.342 0.654,0.678 1,1 0.335,0.378 0.706,0.74 1.094,1.094 0.301,0.333 0.626,0.655 0.969,0.969 0.32,0.356 0.664,0.697 1.031,1.031 0.364,0.403 0.762,0.781 1.188,1.156 0.224,0.239 0.441,0.489 0.688,0.719 0.303,0.342 0.654,0.678 1,1 0.335,0.378 0.706,0.74 1.094,1.094 0.301,0.333 0.626,0.655 0.969,0.969 0.32,0.356 0.664,0.697 1.031,1.031 0.312,0.345 0.644,0.676 1,1 0.277,0.307 0.563,0.584 0.875,0.875 0.303,0.342 0.654,0.678 1,1 0.303,0.342 0.654,0.678 1,1 0.327,0.368 0.686,0.717 1.063,1.063 0.32,0.356 0.664,0.697 1.031,1.031 0.078,0.086 0.169,0.165 0.25,0.25 83.998,-5.336 155.11,-58.03 186.94,-131.69 -0.178,-0.187 -0.35,-0.38 -0.531,-0.563 -0.045,-0.046 -0.111,-0.079 -0.156,-0.125 -0.286,-0.288 -0.552,-0.579 -0.844,-0.875 -0.511,-0.518 -1.048,-1.035 -1.594,-1.563 -0.042,-0.042 -0.083,-0.082 -0.125,-0.125 -0.082,-0.083 -0.167,-0.167 -0.25,-0.25 -0.01,-0.01 -0.021,-0.021 -0.031,-0.031 -0.04,-0.041 -0.085,-0.084 -0.125,-0.125 -0.27,-0.274 -0.566,-0.564 -0.844,-0.844 -0.01,-0.01 -0.021,-0.021 -0.031,-0.031 -0.04,-0.041 -0.084,-0.084 -0.125,-0.125 -0.272,-0.276 -0.564,-0.562 -0.844,-0.844 -0.01,-0.01 -0.021,-0.021 -0.031,-0.031 -0.04,-0.041 -0.084,-0.084 -0.125,-0.125 -0.278,-0.282 -0.559,-0.588 -0.844,-0.875 -0.045,-0.046 -0.111,-0.079 -0.156,-0.125 -0.278,-0.282 -0.559,-0.588 -0.844,-0.875 -0.045,-0.046 -0.111,-0.079 -0.156,-0.125 -0.286,-0.288 -0.552,-0.579 -0.844,-0.875 -0.227,-0.231 -0.484,-0.455 -0.719,-0.688 -0.093,-0.093 -0.188,-0.187 -0.281,-0.281 -0.04,-0.041 -0.085,-0.084 -0.125,-0.125 -0.27,-0.274 -0.566,-0.564 -0.844,-0.844 -0.01,-0.01 -0.021,-0.021 -0.031,-0.031 -0.04,-0.041 -0.084,-0.084 -0.125,-0.125 -0.27,-0.274 -0.566,-0.564 -0.844,-0.844 -0.01,-0.01 -0.021,-0.021 -0.031,-0.031 -0.04,-0.041 -0.084,-0.084 -0.125,-0.125 -0.283,-0.287 -0.585,-0.582 -0.875,-0.875 -0.04,-0.041 -0.084,-0.084 -0.125,-0.125 -0.278,-0.282 -0.559,-0.588 -0.844,-0.875 -0.045,-0.046 -0.111,-0.079 -0.156,-0.125 -0.286,-0.288 -0.552,-0.579 -0.844,-0.875 -0.227,-0.231 -0.484,-0.455 -0.719,-0.688 -0.093,-0.093 -0.188,-0.187 -0.281,-0.281 -0.04,-0.041 -0.085,-0.084 -0.125,-0.125 -0.27,-0.274 -0.566,-0.564 -0.844,-0.844 -0.01,-0.01 -0.021,-0.021 -0.031,-0.031 -0.04,-0.041 -0.085,-0.084 -0.125,-0.125 -0.27,-0.274 -0.566,-0.564 -0.844,-0.844 -0.01,-0.01 -0.021,-0.021 -0.031,-0.031 -0.04,-0.041 -0.084,-0.084 -0.125,-0.125 -0.272,-0.276 -0.564,-0.562 -0.844,-0.844 -0.01,-0.01 -0.021,-0.021 -0.031,-0.031 -0.04,-0.041 -0.084,-0.084 -0.125,-0.125 -0.278,-0.282 -0.559,-0.588 -0.844,-0.875 -0.045,-0.046 -0.111,-0.079 -0.156,-0.125 -0.286,-0.288 -0.552,-0.579 -0.844,-0.875 -0.318,-0.323 -0.668,-0.642 -1,-0.969 -0.04,-0.041 -0.085,-0.084 -0.125,-0.125 -0.27,-0.274 -0.566,-0.564 -0.844,-0.844 -0.01,-0.01 -0.021,-0.021 -0.031,-0.031 -0.04,-0.041 -0.085,-0.084 -0.125,-0.125 -0.27,-0.274 -0.566,-0.564 -0.844,-0.844 -0.01,-0.01 -0.021,-0.021 -0.031,-0.031 -0.04,-0.041 -0.084,-0.084 -0.125,-0.125 -0.272,-0.276 -0.564,-0.562 -0.844,-0.844 -0.01,-0.01 -0.021,-0.021 -0.031,-0.031 -0.04,-0.041 -0.084,-0.084 -0.125,-0.125 -0.278,-0.282 -0.559,-0.588 -0.844,-0.875 -0.045,-0.046 -0.111,-0.079 -0.156,-0.125 -0.286,-0.288 -0.552,-0.579 -0.844,-0.875 -0.316,-0.32 -0.671,-0.644 -1,-0.969 -0.045,-0.046 -0.111,-0.079 -0.156,-0.125 -0.086,-0.087 -0.163,-0.194 -0.25,-0.281 -0.064,-0.062 -0.123,-0.125 -0.188,-0.188 -0.042,-0.042 -0.083,-0.082 -0.125,-0.125 -0.093,-0.093 -0.188,-0.187 -0.281,-0.281 -0.04,-0.041 -0.085,-0.084 -0.125,-0.125 -0.27,-0.274 -0.566,-0.564 -0.844,-0.844 -0.01,-0.01 -0.021,-0.021 -0.031,-0.031 -0.04,-0.041 -0.084,-0.084 -0.125,-0.125 -0.272,-0.276 -0.564,-0.562 -0.844,-0.844 -0.01,-0.01 -0.021,-0.021 -0.031,-0.031 -0.04,-0.041 -0.084,-0.084 -0.125,-0.125 -0.278,-0.282 -0.559,-0.588 -0.844,-0.875 -0.045,-0.046 -0.111,-0.079 -0.156,-0.125 -0.278,-0.282 -0.559,-0.588 -0.844,-0.875 -0.045,-0.046 -0.111,-0.079 -0.156,-0.125 -0.286,-0.288 -0.552,-0.579 -0.844,-0.875 -0.227,-0.231 -0.484,-0.455 -0.719,-0.688 -0.093,-0.093 -0.188,-0.187 -0.281,-0.281 -0.04,-0.041 -0.085,-0.084 -0.125,-0.125 -0.27,-0.274 -0.566,-0.564 -0.844,-0.844 -0.01,-0.01 -0.021,-0.021 -0.031,-0.031 -0.04,-0.041 -0.084,-0.084 -0.125,-0.125 -0.27,-0.274 -0.566,-0.564 -0.844,-0.844 -0.01,-0.01 -0.021,-0.021 -0.031,-0.031 -0.04,-0.041 -0.084,-0.084 -0.125,-0.125 -0.283,-0.287 -0.585,-0.582 -0.875,-0.875 -0.04,-0.041 -0.084,-0.084 -0.125,-0.125 -0.278,-0.282 -0.559,-0.588 -0.844,-0.875 -0.045,-0.046 -0.111,-0.079 -0.156,-0.125 -0.286,-0.288 -0.552,-0.579 -0.844,-0.875 -0.318,-0.323 -0.668,-0.642 -1,-0.969 -0.04,-0.041 -0.085,-0.084 -0.125,-0.125 -0.27,-0.274 -0.566,-0.564 -0.844,-0.844 -0.01,-0.01 -0.021,-0.021 -0.031,-0.031 -0.04,-0.041 -0.085,-0.084 -0.125,-0.125 -0.27,-0.274 -0.566,-0.564 -0.844,-0.844 -0.01,-0.01 -0.021,-0.021 -0.031,-0.031 -0.04,-0.041 -0.084,-0.084 -0.125,-0.125 -0.272,-0.276 -0.564,-0.562 -0.844,-0.844 -0.01,-0.01 -0.021,-0.021 -0.031,-0.031 -0.04,-0.041 -0.084,-0.084 -0.125,-0.125 -0.278,-0.282 -0.559,-0.588 -0.844,-0.875 -0.045,-0.046 -0.111,-0.079 -0.156,-0.125 -0.286,-0.288 -0.552,-0.579 -0.844,-0.875 -0.511,-0.518 -1.048,-1.035 -1.594,-1.563 -0.042,-0.042 -0.083,-0.082 -0.125,-0.125 -0.082,-0.083 -0.167,-0.167 -0.25,-0.25 -0.01,-0.01 -0.021,-0.021 -0.031,-0.031 -0.04,-0.041 -0.085,-0.084 -0.125,-0.125 -0.27,-0.274 -0.566,-0.564 -0.844,-0.844 -0.01,-0.01 -0.021,-0.021 -0.031,-0.031 -0.04,-0.041 -0.084,-0.084 -0.125,-0.125 -0.272,-0.276 -0.564,-0.562 -0.844,-0.844 -0.01,-0.01 -0.021,-0.021 -0.031,-0.031 -0.04,-0.041 -0.084,-0.084 -0.125,-0.125 -0.278,-0.282 -0.559,-0.588 -0.844,-0.875 -0.045,-0.046 -0.111,-0.079 -0.156,-0.125 -0.278,-0.282 -0.559,-0.588 -0.844,-0.875 -0.045,-0.046 -0.111,-0.079 -0.156,-0.125 -0.286,-0.288 -0.552,-0.579 -0.844,-0.875 -0.227,-0.231 -0.484,-0.455 -0.719,-0.688 -0.093,-0.093 -0.188,-0.187 -0.281,-0.281 -0.04,-0.041 -0.085,-0.084 -0.125,-0.125 -0.27,-0.274 -0.566,-0.564 -0.844,-0.844 -0.01,-0.01 -0.021,-0.021 -0.031,-0.031 -0.04,-0.041 -0.084,-0.084 -0.125,-0.125 -0.272,-0.276 -0.564,-0.562 -0.844,-0.844 -0.01,-0.01 -0.021,-0.021 -0.031,-0.031 -0.04,-0.041 -0.084,-0.084 -0.125,-0.125 -0.283,-0.287 -0.585,-0.582 -0.875,-0.875 -0.04,-0.041 -0.084,-0.084 -0.125,-0.125 -0.278,-0.282 -0.559,-0.588 -0.844,-0.875 -0.045,-0.046 -0.111,-0.079 -0.156,-0.125 -0.286,-0.288 -0.552,-0.579 -0.844,-0.875 -0.228,-0.231 -0.484,-0.455 -0.719,-0.688 -0.093,-0.093 -0.188,-0.187 -0.281,-0.281 -0.04,-0.041 -0.085,-0.084 -0.125,-0.125 -0.27,-0.274 -0.566,-0.564 -0.844,-0.844 -0.01,-0.01 -0.021,-0.021 -0.031,-0.031 -0.04,-0.041 -0.084,-0.084 -0.125,-0.125 -0.27,-0.274 -0.566,-0.564 -0.844,-0.844 -0.01,-0.01 -0.021,-0.021 -0.031,-0.031 -0.04,-0.041 -0.084,-0.084 -0.125,-0.125 -0.283,-0.287 -0.585,-0.582 -0.875,-0.875 -0.04,-0.041 -0.084,-0.084 -0.125,-0.125 -0.278,-0.282 -0.559,-0.588 -0.844,-0.875 -0.045,-0.046 -0.111,-0.079 -0.156,-0.125 -0.286,-0.288 -0.552,-0.579 -0.844,-0.875 -0.318,-0.323 -0.668,-0.642 -1,-0.969 -0.04,-0.041 -0.085,-0.084 -0.125,-0.125 -0.27,-0.274 -0.566,-0.564 -0.844,-0.844 -0.01,-0.01 -0.021,-0.021 -0.031,-0.031 -0.04,-0.041 -0.085,-0.084 -0.125,-0.125 -0.27,-0.274 -0.566,-0.564 -0.844,-0.844 -0.01,-0.01 -0.021,-0.021 -0.031,-0.031 -0.04,-0.041 -0.084,-0.084 -0.125,-0.125 -0.272,-0.276 -0.564,-0.562 -0.844,-0.844 -0.01,-0.01 -0.021,-0.021 -0.031,-0.031 -0.04,-0.041 -0.084,-0.084 -0.125,-0.125 -0.278,-0.282 -0.559,-0.588 -0.844,-0.875 -0.045,-0.046 -0.111,-0.079 -0.156,-0.125 -0.286,-0.288 -0.552,-0.579 -0.844,-0.875 -0.316,-0.32 -0.671,-0.644 -1,-0.969 -0.045,-0.046 -0.111,-0.079 -0.156,-0.125 -0.086,-0.087 -0.163,-0.194 -0.25,-0.281 -0.064,-0.062 -0.123,-0.125 -0.188,-0.188 -0.042,-0.042 -0.083,-0.082 -0.125,-0.125 -0.093,-0.093 -0.188,-0.187 -0.281,-0.281 -0.04,-0.041 -0.085,-0.084 -0.125,-0.125 -0.27,-0.274 -0.566,-0.564 -0.844,-0.844 -0.01,-0.01 -0.021,-0.021 -0.031,-0.031 -0.04,-0.041 -0.084,-0.084 -0.125,-0.125 -0.272,-0.276 -0.564,-0.562 -0.844,-0.844 -0.01,-0.01 -0.021,-0.021 -0.031,-0.031 -0.04,-0.041 -0.084,-0.084 -0.125,-0.125 -0.278,-0.282 -0.559,-0.588 -0.844,-0.875 -0.045,-0.046 -0.111,-0.079 -0.156,-0.125 -0.278,-0.282 -0.559,-0.588 -0.844,-0.875 -0.045,-0.046 -0.111,-0.079 -0.156,-0.125 -0.286,-0.288 -0.552,-0.579 -0.844,-0.875 -0.228,-0.231 -0.484,-0.455 -0.719,-0.688 -0.093,-0.093 -0.188,-0.187 -0.281,-0.281 -0.04,-0.041 -0.085,-0.084 -0.125,-0.125 -0.27,-0.274 -0.566,-0.564 -0.844,-0.844 -0.01,-0.01 -0.021,-0.021 -0.031,-0.031 -0.04,-0.041 -0.084,-0.084 -0.125,-0.125 -0.27,-0.274 -0.566,-0.564 -0.844,-0.844 -0.01,-0.01 -0.021,-0.021 -0.031,-0.031 -0.04,-0.041 -0.084,-0.084 -0.125,-0.125 -0.283,-0.287 -0.585,-0.582 -0.875,-0.875 -0.04,-0.041 -0.084,-0.084 -0.125,-0.125 -0.278,-0.282 -0.559,-0.588 -0.844,-0.875 -0.045,-0.046 -0.111,-0.079 -0.156,-0.125 -0.286,-0.288 -0.552,-0.579 -0.844,-0.875 -0.318,-0.323 -0.668,-0.642 -1,-0.969 -0.04,-0.041 -0.085,-0.084 -0.125,-0.125 -0.27,-0.274 -0.566,-0.564 -0.844,-0.844 -0.01,-0.01 -0.021,-0.021 -0.031,-0.031 -0.04,-0.041 -0.085,-0.084 -0.125,-0.125 -0.27,-0.274 -0.566,-0.564 -0.844,-0.844 -0.01,-0.01 -0.021,-0.021 -0.031,-0.031 -0.04,-0.041 -0.084,-0.084 -0.125,-0.125 -0.272,-0.276 -0.564,-0.562 -0.844,-0.844 -0.01,-0.01 -0.021,-0.021 -0.031,-0.031 -0.04,-0.041 -0.084,-0.084 -0.125,-0.125 -0.278,-0.282 -0.559,-0.588 -0.844,-0.875 -0.045,-0.046 -0.111,-0.079 -0.156,-0.125 -0.286,-0.288 -0.552,-0.579 -0.844,-0.875 -0.511,-0.518 -1.048,-1.035 -1.594,-1.563 -0.042,-0.042 -0.083,-0.082 -0.125,-0.125 -0.082,-0.083 -0.167,-0.167 -0.25,-0.25 -0.01,-0.01 -0.021,-0.021 -0.031,-0.031 -0.04,-0.041 -0.085,-0.084 -0.125,-0.125 -0.27,-0.274 -0.566,-0.564 -0.844,-0.844 -0.01,-0.01 -0.021,-0.021 -0.031,-0.031 -0.04,-0.041 -0.084,-0.084 -0.125,-0.125 -0.272,-0.276 -0.564,-0.562 -0.844,-0.844 -0.01,-0.01 -0.021,-0.021 -0.031,-0.031 -0.04,-0.041 -0.084,-0.084 -0.125,-0.125 -0.278,-0.282 -0.559,-0.588 -0.844,-0.875 -0.045,-0.046 -0.111,-0.079 -0.156,-0.125 -0.278,-0.282 -0.559,-0.588 -0.844,-0.875 -0.045,-0.046 -0.111,-0.079 -0.156,-0.125 -0.286,-0.288 -0.552,-0.579 -0.844,-0.875 -0.228,-0.231 -0.484,-0.455 -0.719,-0.688 -0.093,-0.093 -0.188,-0.187 -0.281,-0.281 -0.04,-0.041 -0.085,-0.084 -0.125,-0.125 -0.27,-0.274 -0.566,-0.564 -0.844,-0.844 -0.01,-0.01 -0.021,-0.021 -0.031,-0.031 -0.04,-0.041 -0.084,-0.084 -0.125,-0.125 -0.272,-0.276 -0.564,-0.562 -0.844,-0.844 -0.01,-0.01 -0.021,-0.021 -0.031,-0.031 -0.327,-0.329 -0.634,-0.661 -0.969,-1 -5.05,-5.124 -11.847,-10.744 -20.03,-16.844 -16.368,-12.199 -38.08,-26.08 -60.41,-38.969 -22.324,-12.889 -45.25,-24.768 -64,-32.844 -9.374,-4.04 -17.66,-7.153 -24.625,-8.969 -3.483,-0.908 -6.607,-1.788 -9.625,-2 -0.377,-0.024 -0.749,-0.031 -1.125,-0.031 -0.329,-0.003 -0.672,-0.016 -1,0" />
  <path
     inkscape:connector-curvature="0"
     style="fill:#ffffff;fill-rule:evenodd"
     id="path481"
     d="m 173.22,140.06 c -2.293,0.109 -4.556,0.697 -6.984,2.099 -6.342,3.662 -7.516,9.299 -9.427,16.238 -1.911,6.94 -3.42,15.631 -4.61,25.768 -2.381,20.274 -3.544,46.06 -3.544,71.835 0,25.777 1.163,51.56 3.544,71.835 1.19,10.137 2.7,18.828 4.61,25.768 1.911,6.94 3.084,12.542 9.427,16.204 6.342,3.662 11.75,1.918 18.716,0.103 6.965,-1.816 15.259,-4.942 24.633,-8.979 18.749,-8.08 41.667,-19.967 63.991,-32.855 22.324,-12.889 44.04,-26.78 60.41,-38.979 8.184,-6.1 14.968,-11.733 20.02,-16.858 5.05,-5.125 9.323,-8.915 9.323,-16.238 0,-7.323 -4.268,-11.148 -9.323,-16.273 -5.05,-5.124 -11.839,-10.758 -20.02,-16.858 -16.368,-12.199 -38.09,-26.06 -60.41,-38.945 -22.324,-12.889 -45.24,-24.78 -63.991,-32.855 -9.374,-4.04 -17.668,-7.164 -24.633,-8.979 -3.483,-0.908 -6.58,-1.783 -9.599,-1.995 -0.377,-0.024 -0.76,-0.034 -1.135,-0.034 -0.329,-0.003 -0.67,-0.016 -0.998,0" />
</svg>
