<?xml version="1.0" encoding="UTF-8" standalone="no"?>
<svg
   xmlns:dc="http://purl.org/dc/elements/1.1/"
   xmlns:cc="http://creativecommons.org/ns#"
   xmlns:rdf="http://www.w3.org/1999/02/22-rdf-syntax-ns#"
   xmlns:svg="http://www.w3.org/2000/svg"
   xmlns="http://www.w3.org/2000/svg"
   xmlns:sodipodi="http://sodipodi.sourceforge.net/DTD/sodipodi-0.dtd"
   xmlns:inkscape="http://www.inkscape.org/namespaces/inkscape"
   viewBox="0 0 64 64"
   id="svg2"
   version="1.1"
   inkscape:version="0.91 r13725"
   sodipodi:docname="nemo-eject.svg">
  <metadata
     id="metadata14">
    <rdf:RDF>
      <cc:Work
         rdf:about="">
        <dc:format>image/svg+xml</dc:format>
        <dc:type
           rdf:resource="http://purl.org/dc/dcmitype/StillImage" />
        <dc:title></dc:title>
      </cc:Work>
    </rdf:RDF>
  </metadata>
  <defs
     id="defs12" />
  <sodipodi:namedview
     pagecolor="#ffffff"
     bordercolor="#666666"
     borderopacity="1"
     objecttolerance="10"
     gridtolerance="10"
     guidetolerance="10"
     inkscape:pageopacity="0"
     inkscape:pageshadow="2"
     inkscape:window-width="1366"
     inkscape:window-height="713"
     id="namedview10"
     showgrid="false"
     inkscape:zoom="3.6875"
     inkscape:cx="32"
     inkscape:cy="32"
     inkscape:window-x="0"
     inkscape:window-y="0"
     inkscape:window-maximized="1"
     inkscape:current-layer="svg2" />
  <g
     transform="matrix(3.3333333,0,0,4,5.333333,-2.0799999e-7)"
     fill="#dc322f"
     fill-opacity="1"
     id="g4">
    <path
       d="m 14 11 0 2 -12 0 0 -2 z"
       id="path6" />
    <path
       d="m 2 9 6 -6 6 6"
       id="path8" />
  </g>
  <path
     style="fill:#f2f2f2"
     d="m 12.149153,35.850066 c 0,-0.182523 19.569108,-23.613692 19.792599,-23.698767 0.114444,-0.04356 4.150032,4.65474 8.967973,10.440678 4.817941,5.785938 9.302104,11.160565 9.964805,11.943616 l 1.204914,1.423729 -19.965146,0 c -10.98083,0 -19.965145,-0.04917 -19.965145,-0.109256 z"
     id="path3350"
     inkscape:connector-curvature="0" />
  <path
     style="fill:#f2f2f2"
     d="m 11.938513,47.959322 0.07505,-4 20,-0.06954 20,-0.06955 0,4.069546 0,4.069545 -20.075046,0 -20.075046,0 0.07505,-4 z"
     id="path3352"
     inkscape:connector-curvature="0" />
</svg>
