<?xml version="1.0" encoding="UTF-8" standalone="no"?>
<svg
   xmlns:dc="http://purl.org/dc/elements/1.1/"
   xmlns:cc="http://creativecommons.org/ns#"
   xmlns:rdf="http://www.w3.org/1999/02/22-rdf-syntax-ns#"
   xmlns:svg="http://www.w3.org/2000/svg"
   xmlns="http://www.w3.org/2000/svg"
   xmlns:sodipodi="http://sodipodi.sourceforge.net/DTD/sodipodi-0.dtd"
   xmlns:inkscape="http://www.inkscape.org/namespaces/inkscape"
   version="1.1"
   width="100%"
   height="100%"
   viewBox="0 0 512 512"
   id="svg2"
   inkscape:version="0.91 r13725"
   sodipodi:docname="folder-ursa.svg">
  <sodipodi:namedview
     pagecolor="#ffffff"
     bordercolor="#666666"
     borderopacity="1"
     objecttolerance="10"
     gridtolerance="10"
     guidetolerance="10"
     inkscape:pageopacity="0"
     inkscape:pageshadow="2"
     inkscape:window-width="640"
     inkscape:window-height="480"
     id="namedview18"
     showgrid="false"
     inkscape:zoom="0.4609375"
     inkscape:cx="256"
     inkscape:cy="243.68211"
     inkscape:window-x="722"
     inkscape:window-y="0"
     inkscape:window-maximized="0"
     inkscape:current-layer="svg2" />
  <metadata
     id="metadata365">
    <rdf:RDF>
      <cc:Work
         rdf:about="">
        <dc:format>image/svg+xml</dc:format>
        <dc:type
           rdf:resource="http://purl.org/dc/dcmitype/StillImage" />
        <dc:title></dc:title>
      </cc:Work>
    </rdf:RDF>
  </metadata>
  <defs
     id="defs4">
    <linearGradient
       y1="121.76"
       x2="0"
       y2="453.26001"
       id="0-5"
       gradientUnits="userSpaceOnUse"
       gradientTransform="translate(0.0012,-0.0195)">
      <stop
         id="stop7-8"
         style="stop-color:#6a6a6a;stop-opacity:1"
         offset="0" />
      <stop
         id="stop9-4"
         style="stop-color:#000000;stop-opacity:1"
         offset="0.47" />
      <stop
         id="stop11-3"
         style="stop-color:#ffffff;stop-opacity:1"
         offset="0.49399999" />
      <stop
         id="stop13-7"
         style="stop-color:#ffffff;stop-opacity:1"
         offset="0.90100002" />
      <stop
         id="stop15-3"
         style="stop-color:#000000;stop-opacity:1"
         offset="0.95499998" />
      <stop
         id="stop17-8"
         style="stop-color:#000000;stop-opacity:1"
         offset="1" />
    </linearGradient>
  </defs>
  <path
     style="fill:#cccccc;fill-rule:evenodd"
     id="path115"
     d="m 108.6312,57.3705 c -7.963,0 -15.228,2.293 -20.693,6.22 -4.545,3.266 -7.751,7.872 -8.752,13.13 l -11.909,0 c -16.447,0 -29.883,13.03 -29.883,29.2 l 0,66.736 c 0,16.17 13.436,29.19 29.883,29.19 l 377.47,0 c 16.447,0 29.883,-13.03 29.883,-29.19 l 0,-66.736 c 0,-16.17 -13.436,-29.2 -29.883,-29.2 l -262.91,0 c -1,-5.256 -4.208,-9.862 -8.753,-13.13 -5.465,-3.927 -12.73,-6.22 -20.693,-6.22 l -43.761,0" />
  <path
     style="fill:#d23638;fill-rule:evenodd"
     id="path117"
     d="m 37.3612,118.4605 c -19.928,0 -38.06,15.818 -36.23,35.853 l 24.26,265.41 c 1.733,18.966 16.271,34.947 36.2,34.947 l 383.41,0 c 19.933,0 34.1,-16.05 36.2,-34.853 l 29.632,-265.41 c 1.123,-10.05 -3.137,-19.263 -9.971,-25.663 -6.833,-6.399 -16.258,-10.284 -26.22,-10.284 l -437.27,0" />
  <path
     d="m 37.3612,118.4505 c -19.928,0 -38.08,15.84 -36.25,35.875 l 11.781,128.78 12.469,136.63 c 1.733,18.966 16.29,34.938 36.22,34.938 l 383.41,0 c 19.933,0 34.09,-16.04 36.19,-34.844 l 15.281,-136.72 14.375,-128.69 c 1.123,-10.05 -3.135,-19.287 -9.969,-25.688 -6.833,-6.399 -16.257,-10.281 -26.22,-10.281 l -437.28,0"
     id="path119"
     style="opacity:0.05;fill:url(#0-5)" />
  <path
     style="opacity:0;fill:#ffffff;fill-rule:evenodd"
     id="path123"
     d="m 37.3512,118.4505 c -6.165,0 -12.154,1.503 -17.438,4.188 l 332.06,332.03 28.25,0 -336.19,-336.22 -6.688,0 m 34.969,0 336.22,336.22 28.28,0 -336.22,-336.22 -28.28,0 m 56.59,0 332.25,332.28 c 5.997,-3.165 10.884,-8.06 14.375,-13.938 l -318.37,-318.34 -28.25,0 m 56.56,0 296.28,296.31 2.844,-25.469 -270.87,-270.84 -28.25,0 m 56.56,0 245.41,245.44 2.844,-25.469 -220,-219.97 -28.25,0 m 56.56,0 194.53,194.53 2.844,-25.438 -169.12,-169.09 -28.25,0 m 56.56,0 143.63,143.63 2.844,-25.438 -118.19,-118.19 -28.28,0 m 56.56,0 92.75,92.75 2.844,-25.438 -67.28,-67.31 -28.313,0 m 56.59,0 41.844,41.844 0.656,-5.875 c 1.123,-10.05 -3.134,-19.288 -9.969,-25.688 -6.833,-6.399 -16.252,-10.281 -26.22,-10.281 l -6.313,0 m -463.06,17.781 c -3.108,5.286 -4.73,11.464 -4.125,18.09 l 0.625,6.719 293.66,293.63 28.25,0 -318.41,-318.44 m -0.656,55.906 2.844,31.13 231.41,231.41 28.25,0 -262.5,-262.53 m 5.688,62.25 2.844,31.13 169.16,169.16 28.25,0 -200.25,-200.28 m 5.688,62.28 2.844,31.13 106.88,106.88 28.28,0 -138,-138 m 5.688,62.25 2.844,31.13 44.625,44.625 28.28,0 -75.75,-75.75" />
  <path
     style="opacity:0.76399997;fill:#ffffff;fill-rule:evenodd"
     id="path125"
     d="m 108.5512,57.2905 c -7.963,0 -15.11,2.403 -20.572,6.33 -4.545,3.266 -7.702,7.931 -8.703,13.187 l -12.13,0 c -17.677,0 -29.802,12.771 -29.802,30.661 l 0,3.956 c 0,-16.17 13.355,-29.27 29.802,-29.27 l 14.286,0 c 1,-5.256 2,-9.657 6.549,-12.923 5.465,-3.927 12.609,-6.33 20.572,-6.33 l 43.78,0 c 7.963,0 15.371,2.403 20.835,6.33 4.545,3.266 5.766,7.668 6.769,12.923 l 264.88,0 c 16.447,0 29.802,11.455 29.802,27.625 l 0,-3.956 c 0,-16.17 -13.355,-29.01 -29.802,-29.01 l -262.95,0 c -1,-5.256 -4.159,-9.921 -8.703,-13.187 -5.465,-3.927 -12.872,-6.33 -20.835,-6.33 z" />
  <path
     style="opacity:0.4;fill:#ffffff;fill-rule:evenodd"
     id="path127"
     d="m 37.3512,118.4505 c -19.928,0 -38.05,15.84 -36.22,35.875 l 0.406,4.375 c 3,-15.936 18.732,-27.563 35.813,-27.563 l 437.28,0 c 9.966,0 19.386,3.882 26.22,10.281 4.736,4.435 8.234,10.208 9.563,16.688 l 0.406,-3.688 c 1.123,-10.05 -3.134,-19.288 -9.969,-25.688 -6.833,-6.399 -16.252,-10.281 -26.22,-10.281 l -437.28,0" />
  <path
     inkscape:connector-curvature="0"
     style="color:#000000;visibility:visible;opacity:0.25;fill:#000000;fill-opacity:1;fill-rule:nonzero;stroke:none;stroke-width:1px;stroke-linecap:butt;stroke-linejoin:miter;stroke-opacity:1;marker:none"
     d="m 129.2207,161.5293 0,207.5039 7.16992,7.16992 -12.83789,7.40235 70.12891,71.08594 251.30859,0 c 19.933,0 34.09141,-16.03975 36.19141,-34.84375 l 15.28125,-136.72071 2.24023,-20.04883 -115.42968,-101.54882 -254.05274,0 z"
     id="path5914" />
  <path
     inkscape:connector-curvature="0"
     style="color:#000000;display:inline;overflow:visible;visibility:visible;fill:#ffffff;fill-opacity:1;fill-rule:nonzero;stroke:none;stroke-width:1px;stroke-linecap:butt;stroke-linejoin:miter;stroke-opacity:1;marker:none;enable-background:accumulate"
     d="m 129.47852,161.5293 0,207.09179 47.17187,-27.1914 0,-132.72852 159.20117,0 0,132.38672 47.17188,27.68164 0,-207.24023 -253.54492,0 z m 127.57031,144.83593 -133.22852,76.79883 c 16.8449,9.72537 32.69633,18.95706 49.01172,28.37696 l 84.03906,-48.39063 82.38672,48.48047 c 16.27905,-9.47925 32.61213,-18.89274 48.92188,-28.32031 L 257.04883,306.36523 Z"
     id="path4341" />
</svg>
