<?xml version="1.0" encoding="UTF-8"?>
<!-- Created with Inkscape (http://www.inkscape.org/) -->
<svg id="svg2" width="48" height="48" version="1.0" xmlns="http://www.w3.org/2000/svg" xmlns:cc="http://web.resource.org/cc/" xmlns:dc="http://purl.org/dc/elements/1.1/" xmlns:rdf="http://www.w3.org/1999/02/22-rdf-syntax-ns#" xmlns:xlink="http://www.w3.org/1999/xlink">
 <defs id="defs4">
  <linearGradient id="linearGradient7422">
   <stop id="stop7424" offset="0"/>
   <stop id="stop7426" style="stop-opacity:0" offset="1"/>
  </linearGradient>
  <linearGradient id="linearGradient3151" x1="7" x2="12" y1="-1" y2="16" gradientTransform="matrix(1 0 0 1.5 -8.9269e-8 -3)" gradientUnits="userSpaceOnUse">
   <stop id="stop3147" style="stop-color:#fff" offset="0"/>
   <stop id="stop3149" style="stop-color:#fff;stop-opacity:0" offset="1"/>
  </linearGradient>
  <linearGradient id="linearGradient4307" x1="-5" x2="39" y1="-7" y2="30" gradientTransform="matrix(.91667 0 0 1 1.5 0)" gradientUnits="userSpaceOnUse">
   <stop id="stop4303" style="stop-color:#fff" offset="0"/>
   <stop id="stop4305" style="stop-color:#fff;stop-opacity:0" offset="1"/>
  </linearGradient>
  <radialGradient id="radialGradient4699" cx="24" cy="39.923" r="20" gradientTransform="matrix(1.6128 4.9537e-8 -1.7969e-8 .65 -14.708 8.05)" gradientUnits="userSpaceOnUse">
   <stop id="stop4703" style="stop-color:#729fcf" offset="0"/>
   <stop id="stop4705" style="stop-color:#3465a4" offset="1"/>
  </radialGradient>
  <linearGradient id="linearGradient5097" x1="2" x2="19" y1="-4" y2="30" gradientTransform="matrix(.94595 0 0 1 1.2973 1.1192e-6)" gradientUnits="userSpaceOnUse">
   <stop id="stop5090" style="stop-color:#fff;stop-opacity:.54348" offset="0"/>
   <stop id="stop5092" style="stop-color:#729fcf" offset="1"/>
  </linearGradient>
  <linearGradient id="linearGradient5872" x1="8" x2="8" y1="37" y2="41" gradientTransform="matrix(4.625 0 0 1.3333 -15.312 -13.5)" gradientUnits="userSpaceOnUse">
   <stop id="stop5865" offset="0"/>
   <stop id="stop5867" style="stop-color:#2e3436" offset="1"/>
  </linearGradient>
  <linearGradient id="linearGradient6263" x1="12.283" x2="12.283" y1="41.25" y2="36.75" gradientTransform="matrix(.81081 0 0 -.66667 2.0405 64.5)" gradientUnits="userSpaceOnUse">
   <stop id="stop6259" style="stop-color:#555753" offset="0"/>
   <stop id="stop6261" style="stop-color:#2e3436" offset="1"/>
  </linearGradient>
  <radialGradient id="radialGradient6652" cx="12" cy="8.4459" r="22" gradientTransform="matrix(.53368 1.3433 -1.5603 .68182 19.332 -10.878)" gradientUnits="userSpaceOnUse">
   <stop id="stop6648" style="stop-color:#eeeeec" offset="0"/>
   <stop id="stop6650" style="stop-color:#555753" offset="1"/>
  </radialGradient>
  <radialGradient id="radialGradient7831" cx="2" cy="43.5" r="2" gradientTransform="matrix(1 0 0 1.25 0 -10.875)" gradientUnits="userSpaceOnUse" xlink:href="#linearGradient7422"/>
  <radialGradient id="radialGradient7833" cx="2" cy="43.5" r="2" gradientTransform="matrix(1 0 0 1.25 44 -10.875)" gradientUnits="userSpaceOnUse" xlink:href="#linearGradient7422"/>
  <linearGradient id="linearGradient7835" x1="6" x2="6" y1="41" y2="46" gradientUnits="userSpaceOnUse">
   <stop id="stop7817" style="stop-opacity:0" offset="0"/>
   <stop id="stop7823" offset=".5"/>
   <stop id="stop7819" style="stop-opacity:0" offset="1"/>
  </linearGradient>
  <linearGradient id="linearGradient8234" x1="10" x2="10" y1="41" y2="36" gradientTransform="translate(0 3.3875e-6)" gradientUnits="userSpaceOnUse">
   <stop id="stop8230" offset="0"/>
   <stop id="stop8232" style="stop-opacity:0" offset="1"/>
  </linearGradient>
 </defs>
 <metadata id="metadata7">
  <rdf:RDF>
   <cc:Work rdf:about="">
    <dc:format>image/svg+xml</dc:format>
    <dc:type rdf:resource="http://purl.org/dc/dcmitype/StillImage"/>
    <dc:title>TV</dc:title>
    <dc:date>2007-06-06</dc:date>
    <dc:creator>
     <cc:Agent>
      <dc:title>Sebastian Kraft</dc:title>
     </cc:Agent>
    </dc:creator>
    <dc:subject>
     <rdf:Bag>
      <rdf:li>tv</rdf:li>
      <rdf:li>television</rdf:li>
     </rdf:Bag>
    </dc:subject>
    <cc:license rdf:resource="GPL"/>
   </cc:Work>
  </rdf:RDF>
 </metadata>
 <g id="layer1">
  <g id="g7826" transform="matrix(1 0 0 1.6 0 -26.6)" style="opacity:.46">
   <path id="path6654" d="m2 46c-1.104 0-2-1.12-2-2.5 0-1.38 0.896-2.5 2-2.5v5z" style="color:#000000;fill-rule:evenodd;fill:url(#radialGradient7831)"/>
   <path id="path7037" d="m48 43.5c0 1.38-0.896 2.5-2 2.5v-5c1.104 0 2 1.12 2 2.5z" style="color:#000000;fill-rule:evenodd;fill:url(#radialGradient7833)"/>
   <path id="rect7432" d="m2 41h44v5h-44v-5z" style="fill:url(#linearGradient7835)"/>
  </g>
  <path id="rect2174" d="m6.5611 5.5-4.0611 2v36h43v-36l-4.0611-2h-34.878z" style="fill:#2e3436;stroke-linecap:round;stroke:#000"/>
  <path id="rect2761" d="m7 6h34l4 3h-42l4-3z" style="fill:url(#linearGradient3151)"/>
  <path id="path2757" d="m6.9466 6.5-3.4466 1.5376v34.462h41v-34.462l-3.4466-1.5376h-34.107z" style="fill:none;stroke-linecap:round;stroke:url(#radialGradient6652)"/>
  <path id="rect2759" d="m5.5 10.5h37v25h-37v-25z" style="fill:url(#radialGradient4699);stroke-linecap:round;stroke:#204a87"/>
  <path id="rect3536" d="m7 12h33v6s-1.8333-3-11.917 4c-10.083 7-21.083 2.1203-21.083 2.1203v-12.12z" style="fill:url(#linearGradient4307);opacity:.4"/>
  <path id="rect3534" d="m6.5 11.5h35v23h-35v-23z" style="fill:none;stroke-linecap:round;stroke:url(#linearGradient5097)"/>
  <path id="rect5099" d="m5.5 36.5h37v4h-37v-4z" style="fill:url(#linearGradient5872);stroke-linecap:round;stroke:url(#linearGradient8234)"/>
  <path id="path5874" d="m6.5 39.5h30v-2h-30v2z" style="fill:none;stroke-linecap:round;stroke:url(#linearGradient6263)"/>
  <path id="path7839" d="m37.5 37.5h4v2h-4v-2z" style="fill:#2e3436;stroke-linecap:round;stroke:#555753"/>
  <rect id="rect7843" x="40" y="38" width="1" height="1" style="fill:#4e9a06"/>
  <rect id="rect7845" x="39" y="38" width="1" height="1" style="fill:#8ae234"/>
 </g>
</svg>
