<?xml version="1.0" encoding="UTF-8" standalone="no"?>
<svg
   xmlns:dc="http://purl.org/dc/elements/1.1/"
   xmlns:cc="http://creativecommons.org/ns#"
   xmlns:rdf="http://www.w3.org/1999/02/22-rdf-syntax-ns#"
   xmlns:svg="http://www.w3.org/2000/svg"
   xmlns="http://www.w3.org/2000/svg"
   xmlns:sodipodi="http://sodipodi.sourceforge.net/DTD/sodipodi-0.dtd"
   xmlns:inkscape="http://www.inkscape.org/namespaces/inkscape"
   viewBox="0 0 24 24"
   id="svg2"
   version="1.1"
   inkscape:version="0.91 r13725"
   sodipodi:docname="nemo-eject.svg">
  <metadata
     id="metadata14">
    <rdf:RDF>
      <cc:Work
         rdf:about="">
        <dc:format>image/svg+xml</dc:format>
        <dc:type
           rdf:resource="http://purl.org/dc/dcmitype/StillImage" />
      </cc:Work>
    </rdf:RDF>
  </metadata>
  <defs
     id="defs12" />
  <sodipodi:namedview
     pagecolor="#ffffff"
     bordercolor="#666666"
     borderopacity="1"
     objecttolerance="10"
     gridtolerance="10"
     guidetolerance="10"
     inkscape:pageopacity="0"
     inkscape:pageshadow="2"
     inkscape:window-width="1366"
     inkscape:window-height="713"
     id="namedview10"
     showgrid="false"
     inkscape:zoom="9.8333333"
     inkscape:cx="12"
     inkscape:cy="12"
     inkscape:window-x="0"
     inkscape:window-y="0"
     inkscape:window-maximized="1"
     inkscape:current-layer="svg2" />
  <g
     transform="matrix(1.1666667,0,0,1.4,2.6666666,0.8000004)"
     fill="#dc322f"
     fill-opacity="1"
     id="g4">
    <path
       d="m 14 10.143 0 2.143 -12 0 0 -2.143 z"
       id="path6" />
    <path
       d="m 2 8.714 6 -5.714 6 5.714"
       id="path8" />
  </g>
  <path
     style="fill:#f2f2f2"
     d="m 5.0644068,12.932372 c 0,-0.07421 6.8127672,-7.8354809 6.9059522,-7.8674259 0.04808,-0.016483 1.359792,1.4250424 2.914911,3.2033898 1.555118,1.7783471 3.121964,3.5651391 3.481879,3.9706471 l 0.654391,0.737288 -6.978567,0 c -3.8382114,0 -6.9785662,-0.01975 -6.9785662,-0.0439 z"
     id="path3342"
     inkscape:connector-curvature="0" />
  <path
     style="fill:#f2f2f2"
     d="m 4.9627119,16.535593 0,-1.525424 7.0169491,0 7.016949,0 0,1.525424 0,1.525424 -7.016949,0 -7.0169491,0 0,-1.525424 z"
     id="path3344"
     inkscape:connector-curvature="0" />
</svg>
